<?xml version="1.0" encoding="UTF-8" standalone="no"?>
<!-- Created with Inkscape (http://www.inkscape.org/) -->

<svg
   width="166.00491mm"
   height="217.88626mm"
   viewBox="0 0 166.00491 217.88626"
   version="1.1"
   id="svg15781"
   xml:space="preserve"
   inkscape:version="1.3.2 (091e20e, 2023-11-25, custom)"
   sodipodi:docname="dexiostoma_campylum.svg"
   xmlns:inkscape="http://www.inkscape.org/namespaces/inkscape"
   xmlns:sodipodi="http://sodipodi.sourceforge.net/DTD/sodipodi-0.dtd"
   xmlns="http://www.w3.org/2000/svg"
   xmlns:svg="http://www.w3.org/2000/svg"><sodipodi:namedview
     id="namedview15783"
     pagecolor="#ffffff"
     bordercolor="#000000"
     borderopacity="0.25"
     inkscape:showpageshadow="2"
     inkscape:pageopacity="0.0"
     inkscape:pagecheckerboard="0"
     inkscape:deskcolor="#d1d1d1"
     inkscape:document-units="mm"
     showgrid="false"
     inkscape:zoom="1.5589927"
     inkscape:cx="286.7236"
     inkscape:cy="613.53718"
     inkscape:window-width="2560"
     inkscape:window-height="1361"
     inkscape:window-x="-9"
     inkscape:window-y="-9"
     inkscape:window-maximized="1"
     inkscape:current-layer="g27285" /><defs
     id="defs15778" /><g
     inkscape:label="Layer 1"
     inkscape:groupmode="layer"
     id="layer1"
     transform="translate(-13.71414,-46.566718)"><g
       id="g27285"
       transform="rotate(30.489379,97.438677,154.36066)"><path
         style="fill:#0090fc;fill-rule:evenodd;stroke:#f8fcfc;stroke-width:1.56597;stroke-linecap:round"
         d="m 150.12181,184.12879 c 1.8323,-16.43175 -8.59986,-57.09094 -12.95064,-66.44038 -3.81123,-8.18999 -7.64508,-18.988977 -7.11191,-31.448457 0.53206,-12.43336 -5.87923,-34.59215 -33.547642,-34.66938 -19.89633,-0.0556 -30.81098,15.36694 -36.98844,42.42436 -13.21039,57.861987 -9.00811,79.398877 -7.74174,110.850717 0.35272,8.76023 11.06161,48.1807 46.88066,52.00405 1.746352,0.18654 28.245542,2.29289 39.999122,-25.54584 5.45905,-12.92993 9.14168,-26.37959 11.46059,-47.17507 z"
         id="path15968"
         sodipodi:nodetypes="sssssssss" /><path
         style="fill:#7ce0fc;fill-opacity:1;stroke:none;stroke-width:0.224256;stroke-dasharray:none"
         d="m 99.096119,233.24526 c 0.53083,-3.03545 -3.52149,-3.17619 -3.34465,-0.3659 0.44372,2.08831 2.65169,2.74128 3.34465,0.3659 z"
         id="path3401-6-4-9-1-8-9-2-7-99"
         sodipodi:nodetypes="ccc" /><path
         style="fill:#7ce0fc;fill-opacity:1;stroke:none;stroke-width:0.224256;stroke-dasharray:none"
         d="m 63.574307,153.5612 c 0.53083,-3.03545 -3.52149,-3.17619 -3.34465,-0.3659 0.44372,2.08831 2.65169,2.74128 3.34465,0.3659 z"
         id="path3401-6-4-9-1-8-9-2-7-8"
         sodipodi:nodetypes="ccc" /><path
         style="fill:#7ce0fc;fill-opacity:1;stroke:none;stroke-width:0.224256;stroke-dasharray:none"
         d="m 113.25684,130.04 c 0.53083,-3.03545 -3.52149,-3.17619 -3.34465,-0.3659 0.44372,2.08831 2.65169,2.74128 3.34465,0.3659 z"
         id="path3401-6-4-9-1-8-9-2-6"
         sodipodi:nodetypes="ccc" /><path
         style="fill:#7ce0fc;fill-opacity:1;stroke:none;stroke-width:0.224256;stroke-dasharray:none"
         d="m 126.93754,166.04183 c 0.53083,-3.03545 -3.52149,-3.17619 -3.34465,-0.3659 0.44372,2.08831 2.65169,2.74128 3.34465,0.3659 z"
         id="path3401-6-4-9-1-8-9-2-7"
         sodipodi:nodetypes="ccc" /><path
         style="fill:#7ce0fc;fill-opacity:1;stroke:none;stroke-width:0.224256;stroke-dasharray:none"
         d="m 76.054943,206.93719 c 0.53083,3.03545 -3.52149,3.17619 -3.34465,0.3659 0.44372,-2.08831 2.65169,-2.74128 3.34465,-0.3659 z"
         id="path3401-6-4-9-1-8-9-2-7-9"
         sodipodi:nodetypes="ccc" /><path
         style="fill:#7ce0fc;fill-opacity:1;stroke:none;stroke-width:0.224256;stroke-dasharray:none"
         d="m 93.335825,154.04122 c 0.53083,-3.03545 -3.52149,-3.17619 -3.34465,-0.3659 0.44372,2.08831 2.65169,2.74128 3.34465,0.3659 z"
         id="path3401-6-4-9-1-8-9-2-5"
         sodipodi:nodetypes="ccc" /><path
         style="fill:#7ce0fc;fill-opacity:1;stroke:none;stroke-width:0.491824;stroke-dasharray:none"
         d="m 98.088625,90.09268 c 1.05569,-7.34119 -7.00351,-7.68157 -6.65181,-0.88495 0.88246,5.05058 5.27365,6.62978 6.65181,0.88495 z"
         id="path3401-6-4-9-1-8-9-24"
         sodipodi:nodetypes="ccc" /><path
         style="fill:#7ce0fc;fill-opacity:1;stroke:none;stroke-width:0.224256;stroke-dasharray:none"
         d="m 108.56681,64.990065 c 0.53083,-3.03545 -3.52149,-3.17619 -3.34465,-0.36591 0.44372,2.08832 2.65169,2.74129 3.34465,0.36591 z"
         id="path3401-6-4-9-1-8-9-5"
         sodipodi:nodetypes="ccc" /><path
         style="fill:#7ce0fc;fill-opacity:1;stroke:none;stroke-width:0.224256;stroke-dasharray:none"
         d="m 114.78412,73.285003 c 0.53083,-3.03545 -3.52149,-3.17619 -3.34465,-0.3659 0.44373,2.08831 2.65169,2.74128 3.34465,0.3659 z"
         id="path3401-6-4-9-1-8-9-9"
         sodipodi:nodetypes="ccc" /><path
         style="fill:#7ce0fc;fill-opacity:1;stroke:none;stroke-width:0.224256;stroke-dasharray:none"
         d="m 122.69138,123.60513 c 0.53083,-3.03545 -3.52149,-3.17619 -3.34465,-0.3659 0.44372,2.08831 2.65169,2.74128 3.34465,0.3659 z"
         id="path3401-6-4-9-1-8-9-2"
         sodipodi:nodetypes="ccc" /><path
         style="fill:#7ce0fc;fill-opacity:1;stroke:none;stroke-width:0.224256;stroke-dasharray:none"
         d="m 67.340598,136.2861 c 0.53083,3.03545 -3.52149,3.17619 -3.34465,0.36591 0.44373,-2.08832 2.65169,-2.74129 3.34465,-0.36591 z"
         id="path3401-6-4-9-1-8-9-55"
         sodipodi:nodetypes="ccc" /><path
         style="fill:#7ce0fc;fill-opacity:1;stroke:none;stroke-width:0.224256;stroke-dasharray:none"
         d="m 99.577878,126.83078 c 0.530822,-3.03545 -3.52149,-3.17619 -3.34465,-0.36591 0.44372,2.08832 2.65169,2.74129 3.34465,0.36591 z"
         id="path3401-6-4-9-1-8-9-1"
         sodipodi:nodetypes="ccc" /><path
         style="fill:#7ce0fc;fill-opacity:1;stroke:none;stroke-width:0.224256;stroke-dasharray:none"
         d="m 136.07289,179.08631 c 0.53083,-3.03545 -3.52149,-3.17617 -3.34465,-0.36591 0.44373,2.08832 2.65169,2.74129 3.34465,0.36591 z"
         id="path3401-6-4-9-1-8-9-14"
         sodipodi:nodetypes="ccc" /><path
         style="fill:#7ce0fc;fill-opacity:1;stroke:none;stroke-width:0.224256;stroke-dasharray:none"
         d="m 125.73264,226.18082 c 0.53082,-3.03545 -3.5215,-3.17619 -3.34466,-0.36591 0.44372,2.08832 2.65169,2.74129 3.34466,0.36591 z"
         id="path3401-6-4-9-1-8-9-4"
         sodipodi:nodetypes="ccc" /><path
         style="fill:#7ce0fc;fill-opacity:1;stroke:none;stroke-width:0.224256;stroke-dasharray:none"
         d="m 88.195375,238.09278 c 0.53082,-3.03545 -3.52149,-3.17619 -3.34465,-0.3659 0.44372,2.08831 2.65168,2.74129 3.34465,0.3659 z"
         id="path3401-6-4-9-1-8-9-26"
         sodipodi:nodetypes="ccc" /><path
         style="fill:#7ce0fc;fill-opacity:1;stroke:none;stroke-width:0.224256;stroke-dasharray:none"
         d="m 130.47039,214.34373 c 0.53082,3.03545 -3.52149,3.17619 -3.34465,0.3659 0.44372,-2.08831 2.65168,-2.74129 3.34465,-0.3659 z"
         id="path3401-6-4-9-1-8-9-3"
         sodipodi:nodetypes="ccc" /><path
         style="fill:#7ce0fc;fill-opacity:1;stroke:none;stroke-width:0.224256;stroke-dasharray:none"
         d="m 58.825078,199.08534 c 0.53084,-3.03545 -3.52149,-3.17619 -3.34463,-0.36591 0.44372,2.08832 2.65169,2.74129 3.34463,0.36591 z"
         id="path3401-6-4-9-1-8-9-91"
         sodipodi:nodetypes="ccc" /><path
         style="fill:#7ce0fc;fill-opacity:1;stroke:none;stroke-width:0.224256;stroke-dasharray:none"
         d="m 59.433348,173.92529 c 0.53082,-3.03545 -3.52149,-3.17619 -3.34465,-0.36591 0.44372,2.08832 2.65168,2.74129 3.34465,0.36591 z"
         id="path3401-6-4-9-1-8-9-0"
         sodipodi:nodetypes="ccc" /><path
         style="fill:#7ce0fc;fill-opacity:1;stroke:none;stroke-width:0.224256;stroke-dasharray:none"
         d="m 80.08755,157.60289 c 0.53082,-3.03545 -3.52149,-3.17619 -3.34465,-0.36591 0.44372,2.08832 2.65169,2.74129 3.34465,0.36591 z"
         id="path3401-6-4-9-1-8-9-45"
         sodipodi:nodetypes="ccc" /><path
         style="fill:#7ce0fc;fill-opacity:1;stroke:none;stroke-width:0.224256;stroke-dasharray:none"
         d="m 80.722118,139.51175 c 0.53082,3.03545 -3.52149,3.17619 -3.34465,0.3659 0.44372,-2.08831 2.65168,-2.74128 3.34465,-0.3659 z"
         id="path3401-6-4-9-1-8-9-82"
         sodipodi:nodetypes="ccc" /><path
         style="fill:#7ce0fc;fill-opacity:1;stroke:none;stroke-width:0.224256;stroke-dasharray:none"
         d="m 98.969608,101.02558 c 0.53082,-3.035457 -3.52149,-3.176197 -3.34465,-0.36591 0.44372,2.08832 2.65169,2.74129 3.34465,0.36591 z"
         id="path3401-6-4-9-1-8-9-6"
         sodipodi:nodetypes="ccc" /><path
         style="fill:#7ce0fc;fill-opacity:1;stroke:none;stroke-width:0.224256;stroke-dasharray:none"
         d="m 107.48511,90.481863 c 0.53082,3.03546 -3.52149,3.17619 -3.34465,0.36591 0.44372,-2.08831 2.65169,-2.74129 3.34465,-0.36591 z"
         id="path3401-6-4-9-1-8-9-08"
         sodipodi:nodetypes="ccc" /><path
         style="fill:#7ce0fc;fill-opacity:1;stroke:none;stroke-width:0.224256;stroke-dasharray:none"
         d="m 96.789784,73.538754 c 0.53083,-3.03545 -3.52149,-3.17619 -3.34465,-0.36591 0.44373,2.08832 2.65169,2.74129 3.34465,0.36591 z"
         id="path3401-6-4-9-1-8-9-7"
         sodipodi:nodetypes="ccc" /><path
         style="fill:#7ce0fc;fill-opacity:1;stroke:none;stroke-width:0.224256;stroke-dasharray:none"
         d="m 72.814858,83.607063 c 0.53082,-3.03545 -3.52149,-3.17619 -3.34465,-0.3659 0.44372,2.08831 2.65168,2.74129 3.34465,0.3659 z"
         id="path3401-6-4-9-1-8-9-81"
         sodipodi:nodetypes="ccc" /><path
         style="fill:#7ce0fc;fill-opacity:1;stroke:none;stroke-width:0.224256;stroke-dasharray:none"
         d="m 143.98015,169.40937 c 0.53082,-3.03545 -3.52149,-3.17619 -3.34465,-0.36591 0.44372,2.08832 2.65168,2.74129 3.34465,0.36591 z"
         id="path3401-6-4-9-1-8-9-70"
         sodipodi:nodetypes="ccc" /><path
         style="fill:#7ce0fc;fill-opacity:1;stroke:none;stroke-width:0.224256;stroke-dasharray:none"
         d="m 114.17588,182.31198 c 0.53082,-3.03545 -3.52149,-3.17619 -3.34465,-0.3659 0.44372,2.08831 2.65168,2.74128 3.34465,0.3659 z"
         id="path3401-6-4-9-1-8-9-46"
         sodipodi:nodetypes="ccc" /><path
         style="fill:#7ce0fc;fill-opacity:1;stroke:none;stroke-width:0.224256;stroke-dasharray:none"
         d="m 137.2894,215.2136 c 0.53082,-3.03545 -3.52149,-3.17619 -3.34465,-0.3659 0.44372,2.08831 2.65168,2.74128 3.34465,0.3659 z"
         id="path3401-6-4-9-1-8-9-95"
         sodipodi:nodetypes="ccc" /><path
         style="fill:#7ce0fc;fill-opacity:1;stroke:none;stroke-width:0.224256;stroke-dasharray:none"
         d="m 100.18613,219.72952 c 0.53082,-3.03545 -3.521492,-3.17619 -3.344652,-0.3659 0.44372,2.08831 2.65168,2.74128 3.344652,0.3659 z"
         id="path3401-6-4-9-1-8-9-94"
         sodipodi:nodetypes="ccc" /><path
         style="fill:#005ce0;fill-rule:evenodd;stroke:none;stroke-width:1.56597;stroke-linecap:round"
         d="m 130.24613,98.988905 c -1.00995,-5.29033 -0.42857,-14.67461 -1.14969,-18.02786 -4.01335,2.27908 -6.62751,5.09417 -6.9112,6.64601 -1.23515,2.94589 -4.1936,10.00696 -6.32997,12.768995 -7.57799,5.42992 -9.45949,8.5964 -8.07014,11.16284 3.2247,3.82605 14.14341,-6.1353 13.94391,-5.46502 4.15845,-2.57859 7.80139,-4.29874 8.51709,-7.084965 z"
         id="path16024"
         sodipodi:nodetypes="ccccccc" /><path
         style="fill:#7ce0fc;fill-opacity:1;fill-rule:evenodd;stroke:none;stroke-width:1.44266;stroke-linecap:round"
         d="m 90.875459,205.86171 c -6.435343,1.63123 -19.00712,-5.44684 -22.198727,-13.51721 -5.270998,-16.26752 5.451449,-23.96051 9.21456,-25.04657 8.783541,-1.41733 14.922692,2.85351 20.993032,8.97934 3.883986,2.88604 4.691206,11.60027 3.718786,17.25994 -1.98413,7.15621 -7.818425,10.81519 -11.727651,12.3245 z"
         id="path16080"
         sodipodi:nodetypes="cccccc" /><path
         style="fill:#00007c;fill-opacity:1;fill-rule:evenodd;stroke:none;stroke-width:0.92735;stroke-linecap:round"
         d="m 128.93537,148.80077 c 6.86019,-4.25326 2.04083,-16.58855 -2.75254,-13.72333 -3.91905,1.83242 -4.38306,15.93648 2.75254,13.72333 z"
         id="path16082"
         sodipodi:nodetypes="ccc" /><path
         style="fill:#00007c;fill-rule:evenodd;stroke:none;stroke-width:0.973902;stroke-linecap:round"
         d="m 79.604783,75.084488 c 8.315571,3.74758 11.32198,-9.552015 5.586279,-12.233923 -4.332923,-2.49625 -12.690291,7.020717 -5.586279,12.233923 z"
         id="path16082-8"
         sodipodi:nodetypes="ccc" /><path
         style="fill:#00007c;fill-rule:evenodd;stroke:none;stroke-width:1.56597;stroke-linecap:round"
         d="m 72.411448,212.59561 c -13.4843,4.34532 -10.7368,21.99658 2.12887,19.67648 16.722134,-5.90632 10.63474,-23.01279 -2.12887,-19.67648 z"
         id="path16088"
         sodipodi:nodetypes="ccc" /><path
         style="fill:#00007c;fill-rule:evenodd;stroke:none;stroke-width:0.910281;stroke-linecap:round"
         d="m 104.23568,237.78637 c -4.8305,3.96506 -3.98806,11.45281 5.37867,8.39991 8.63187,-4.03211 -1.67256,-12.31737 -5.37867,-8.39991 z"
         id="path16090"
         sodipodi:nodetypes="ccc" /><path
         style="fill:#00007c;fill-rule:evenodd;stroke:none;stroke-width:1.11594;stroke-linecap:round"
         d="m 122.36801,203.71515 c 1.29951,10.70119 12.48783,5.18693 10.19326,-9.67694 -1.19746,-8.39769 -11.69339,-6.91114 -10.19326,9.67694 z"
         id="path16092"
         sodipodi:nodetypes="ccc" /><path
         id="path1307-1-54-7-5-8-63"
         style="fill:#000078;fill-opacity:1;stroke:#ffffff;stroke-width:0.224256;stroke-dasharray:none"
         d="m 85.335408,50.756493 -3.32587,-11.41317 -0.355,0.11666 2.69756,11.63201 z" /><path
         id="path1307-3-8-4-6-6-9-2"
         style="fill:#000078;fill-opacity:1;stroke:#ffffff;stroke-width:0.224256;stroke-dasharray:none"
         d="m 80.083408,53.155903 -6.07692,-10.08962 -0.31326,0.21047 5.52529,10.47371 z" /><path
         id="path1307-1-54-7-5-8-6-5"
         style="fill:#000078;fill-opacity:1;stroke:#ffffff;stroke-width:0.224256;stroke-dasharray:none"
         d="m 74.442908,57.350293 -7.29595,-9.19005 -0.28348,0.25132 6.79873,9.64643 z" /><path
         id="path1307-1-54-7-5-8-6-7-0"
         style="fill:#000078;fill-opacity:1;stroke:#ffffff;stroke-width:0.224256;stroke-dasharray:none"
         d="m 70.746608,61.195723 -9.14111,-7.12631 -0.21845,0.31527 8.76236,7.69525 z" /><path
         id="path1307-1-54-7-5-8-6-7-8-3"
         style="fill:#000078;fill-opacity:1;stroke:#ffffff;stroke-width:0.224256;stroke-dasharray:none"
         d="m 67.309578,66.692303 -9.96651,-5.74855 -0.17815,0.34255 9.66437,6.36695 z" /><path
         id="path1307-1-54-7-5-8-6-7-9-7"
         style="fill:#000078;fill-opacity:1;stroke:#ffffff;stroke-width:0.224256;stroke-dasharray:none"
         d="m 64.392438,71.316143 -10.19128,-5.28588 -0.16067,0.35228 9.91512,5.91767 z" /><path
         id="path1307-1-54-7-5-8-6-7-8-7-3"
         style="fill:#000078;fill-opacity:1;stroke:#ffffff;stroke-width:0.224256;stroke-dasharray:none"
         d="m 62.506648,76.593303 -10.60524,-4.2717 -0.13127,0.36572 10.38506,4.92787 z" /><path
         id="path1307-1-54-7-5-8-6-7-5-5"
         style="fill:#000078;fill-opacity:1;stroke:#ffffff;stroke-width:0.224256;stroke-dasharray:none"
         d="m 60.485028,82.746023 -10.75152,-3.83602 -0.11683,0.37115 10.55563,4.50092 z" /><path
         id="path1307-1-54-7-5-8-6-7-8-5-9"
         style="fill:#000078;fill-opacity:1;stroke:#ffffff;stroke-width:0.224256;stroke-dasharray:none"
         d="m 59.092108,88.643983 -10.88647,-3.37719 -0.1034,0.37564 10.71607,4.05 z" /><path
         id="path1307-1-54-7-5-8-6-7-9-2-1"
         style="fill:#000078;fill-opacity:1;stroke:#ffffff;stroke-width:0.224256;stroke-dasharray:none"
         d="m 57.888238,94.178063 -11.10961,-2.41065 -0.0725,0.3837 10.99301,3.0963 z" /><path
         id="path1307-1-54-7-5-8-6-7-8-7-4-8"
         style="fill:#000078;fill-opacity:1;stroke:#ffffff;stroke-width:0.224256;stroke-dasharray:none"
         d="m 56.206128,100.28914 -10.94982,-3.135867 -0.0963,0.37781 10.79288,3.812367 z" /><path
         id="path1307-1-54-7-5-8-6-7-8-7-1-4"
         style="fill:#000078;fill-opacity:1;stroke:#ffffff;stroke-width:0.224256;stroke-dasharray:none"
         d="m 54.766878,106.67652 -11.1076,-2.42151 -0.0738,0.38349 10.99032,3.10708 z" /><path
         id="path1307-1-54-7-5-8-6-7-5-7-0"
         style="fill:#000078;fill-opacity:1;stroke:#ffffff;stroke-width:0.224256;stroke-dasharray:none"
         d="m 53.179938,113.12932 -11.04963,-2.70742 -0.0816,0.38174 10.91655,3.38971 z" /><path
         id="path1307-1-54-7-5-8-6-7-8-5-4-8"
         style="fill:#000078;fill-opacity:1;stroke:#ffffff;stroke-width:0.224256;stroke-dasharray:none"
         d="m 52.155158,119.09617 -11.13961,-2.24628 -0.0682,0.38464 11.03201,2.93377 z" /><path
         id="path1307-1-54-7-5-8-6-7-9-2-5-9"
         style="fill:#000078;fill-opacity:1;stroke:#ffffff;stroke-width:0.224256;stroke-dasharray:none"
         d="m 50.994908,125.52228 -11.19838,-1.87979 -0.0565,0.38679 11.11118,2.5705 z" /><path
         id="path1307-1-54-7-5-8-6-7-8-7-4-1-5"
         style="fill:#000078;fill-opacity:1;stroke:#ffffff;stroke-width:0.224256;stroke-dasharray:none"
         d="m 50.439958,131.54429 -11.32451,-0.4069 -0.0101,0.39166 11.31876,1.10424 z" /><path
         id="path1307-1-54-7-5-8-6-7-9-5-2"
         style="fill:#000078;fill-opacity:1;stroke:#ffffff;stroke-width:0.224256;stroke-dasharray:none"
         d="m 49.984248,139.30317 -11.32575,-0.69337 -0.0203,0.39079 11.30145,1.3893 z" /><path
         id="path1307-1-54-7-5-8-6-7-8-7-6-1"
         style="fill:#000078;fill-opacity:1;stroke:#ffffff;stroke-width:0.224256;stroke-dasharray:none"
         d="m 49.542478,145.19317 -11.33853,-0.3838 -0.0127,0.39106 11.33133,1.08027 z" /><path
         id="path1307-1-54-7-5-8-6-7-5-72-9"
         style="fill:#000078;fill-opacity:1;stroke:#ffffff;stroke-width:0.224256;stroke-dasharray:none"
         d="m 48.749358,150.98757 -11.34331,0.0785 0.005,0.39122 11.3618,0.61773 z" /><path
         id="path1307-1-54-7-5-8-6-7-8-5-8-1"
         style="fill:#000078;fill-opacity:1;stroke:#ffffff;stroke-width:0.224256;stroke-dasharray:none"
         d="m 48.547158,157.64484 -11.33032,0.55903 0.0177,0.39082 11.37535,0.13601 z" /><path
         id="path1307-1-54-7-5-8-6-7-9-2-0-6"
         style="fill:#000078;fill-opacity:1;stroke:#ffffff;stroke-width:0.224256;stroke-dasharray:none"
         d="m 48.393708,163.76426 -11.24522,1.55006 0.0481,0.388 11.34502,-0.86129 z" /><path
         id="path1307-1-54-7-5-8-6-7-8-7-4-0-3"
         style="fill:#000078;fill-opacity:1;stroke:#ffffff;stroke-width:0.224256;stroke-dasharray:none"
         d="m 48.219378,170.44606 -11.31626,0.80912 0.0266,0.39028 11.37513,-0.11531 z" /><path
         id="path1307-1-54-7-5-8-6-7-8-7-1-8-9"
         style="fill:#000078;fill-opacity:1;stroke:#ffffff;stroke-width:0.224256;stroke-dasharray:none"
         d="m 48.663528,176.6602 -11.24656,1.53907 0.0484,0.38803 11.34575,-0.85029 z" /><path
         id="path1307-1-54-7-5-8-6-7-5-7-2-1"
         style="fill:#000078;fill-opacity:1;stroke:#ffffff;stroke-width:0.224256;stroke-dasharray:none"
         d="m 48.988168,183.14843 -11.27931,1.24993 0.0393,0.38921 11.36256,-0.55758 z" /><path
         id="path1307-1-54-7-5-8-6-7-8-5-4-5-7"
         style="fill:#000078;fill-opacity:1;stroke:#ffffff;stroke-width:0.224256;stroke-dasharray:none"
         d="m 49.391258,189.78973 -11.22317,1.7158 0.0532,0.38738 11.33209,-1.0285 z" /><path
         id="path1307-1-54-7-5-8-6-7-9-2-5-8-9"
         style="fill:#000078;fill-opacity:1;stroke:#ffffff;stroke-width:0.224256;stroke-dasharray:none"
         d="m 49.959108,196.42818 -11.16645,2.08265 0.0651,0.38523 11.29565,-1.39927 z" /><path
         id="path1307-1-54-7-5-8-6-7-8-7-4-1-0-6"
         style="fill:#000078;fill-opacity:1;stroke:#ffffff;stroke-width:0.224256;stroke-dasharray:none"
         d="m 49.880798,203.34618 -11.00519,2.86117 0.0892,0.38023 11.17776,-2.18823 z" /><path
         style="fill:#005ce0;stroke:none;stroke-width:0.167518;stroke-dasharray:none"
         d="m 90.631778,97.890973 c -0.7811,-5.88595 -3.85626,-8.98091 -9.60867,-8.81883 -11.61745,2.51725 -20.18815,13.611817 -17.87392,28.398007 2.79018,10.13345 7.04698,13.89434 12.94947,10.50476 4.00789,-4.16539 5.10504,-7.19313 5.05445,-13.59744 0.21795,-2.37575 2.43192,-4.60032 2.91028,-5.1082 4.03057,-2.21771 5.99854,-6.35649 6.56839,-11.378297 z"
         id="path2315-2"
         sodipodi:nodetypes="ccccccc" /><path
         style="fill:#005ce0;stroke:none;stroke-width:0.167518;stroke-dasharray:none"
         d="m 91.120078,110.96513 c -3.90588,-2.85832 -8.38907,6.29004 -4.21075,9.28886 3.04525,2.18564 8.4671,-6.17409 4.21075,-9.28886 z"
         id="path2317-1"
         sodipodi:nodetypes="sss" /><path
         id="path1307-1-54-7-5-8-6-7-5-72-1"
         style="fill:#000078;fill-opacity:1;stroke:#ffffff;stroke-width:0.224256;stroke-dasharray:none"
         d="m 50.343508,210.31409 -10.83016,3.57865 0.11049,0.37329 11.03896,-2.9182 z" /><path
         id="path1307-1-54-7-5-8-6-7-8-5-8-14"
         style="fill:#000078;fill-opacity:1;stroke:#ffffff;stroke-width:0.224256;stroke-dasharray:none"
         d="m 52.216718,216.75823 -10.19662,5.2694 0.16168,0.35166 10.49731,-4.65 z" /><path
         id="path1307-1-54-7-5-8-6-7-9-2-0-3"
         style="fill:#000078;fill-opacity:1;stroke:#ffffff;stroke-width:0.224256;stroke-dasharray:none"
         d="m 54.426988,223.08048 -9.75977,6.12388 0.18906,0.33612 10.10731,-5.53262 z" /><path
         id="path1307-1-54-7-5-8-6-7-8-7-4-0-7"
         style="fill:#000078;fill-opacity:1;stroke:#ffffff;stroke-width:0.224256;stroke-dasharray:none"
         d="m 57.256068,227.97816 -9.49235,6.58408 0.20198,0.3275 9.8641,-6.00973 z" /><path
         id="path1307-1-54-7-5-8-6-7-8-7-1-8-4"
         style="fill:#000078;fill-opacity:1;stroke:#ffffff;stroke-width:0.224256;stroke-dasharray:none"
         d="m 60.256898,233.59548 -9.09448,7.18429 0.22074,0.3137 9.49901,-6.6353 z" /><path
         id="path1307-1-54-7-5-8-6-7-5-7-2-4"
         style="fill:#000078;fill-opacity:1;stroke:#ffffff;stroke-width:0.224256;stroke-dasharray:none"
         d="m 63.790708,238.68465 -8.5202,7.93833 0.24456,0.29306 8.9649,-7.42558 z" /><path
         id="path1307-1-54-7-5-8-6-7-8-5-4-5-3"
         style="fill:#000078;fill-opacity:1;stroke:#ffffff;stroke-width:0.224256;stroke-dasharray:none"
         d="m 67.683388,243.33161 -8.1453,8.36702 0.25742,0.28056 8.61325,-7.87784 z" /><path
         id="path1307-1-54-7-5-8-6-7-9-2-5-8-0"
         style="fill:#000078;fill-opacity:1;stroke:#ffffff;stroke-width:0.224256;stroke-dasharray:none"
         d="m 72.032858,247.28576 -6.77721,9.64033 0.29656,0.23277 7.31313,-9.23728 z" /><path
         id="path1307-1-54-7-5-8-6-7-8-7-4-1-0-7"
         style="fill:#000078;fill-opacity:1;stroke:#ffffff;stroke-width:0.224256;stroke-dasharray:none"
         d="m 77.241828,251.33469 -5.69666,10.38875 0.31998,0.19568 6.2732,-10.05339 z" /><path
         id="path1307-1-54-7-5-8-6-7-5-72-99"
         style="fill:#000078;fill-opacity:1;stroke:#ffffff;stroke-width:0.224256;stroke-dasharray:none"
         d="m 82.376598,254.10586 -3.60347,11.40819 0.35008,0.12338 4.23057,-11.20114 z" /><path
         id="path1307-1-54-7-5-8-6-7-8-5-8-9"
         style="fill:#000078;fill-opacity:1;stroke:#ffffff;stroke-width:0.224256;stroke-dasharray:none"
         d="m 88.965408,256.92354 -2.02048,11.83788 0.36316,0.0688 2.66925,-11.72897 z" /><path
         id="path1307-1-54-7-5-8-6-7-8-7-4-0-4"
         style="fill:#000078;fill-opacity:1;stroke:#ffffff;stroke-width:0.224256;stroke-dasharray:none"
         d="m 95.286008,258.63805 -1.21112,11.96088 0.36688,0.0411 1.86566,-11.90201 z" /><path
         id="path1307-1-54-7-5-8-6-7-8-7-1-8-1"
         style="fill:#000078;fill-opacity:1;stroke:#ffffff;stroke-width:0.224256;stroke-dasharray:none"
         d="m 101.03712,258.99236 0.35822,12.02134 0.36883,-0.0134 0.29775,-12.05956 z" /><path
         id="path1307-1-54-7-5-8-6-7-5-7-2-2"
         style="fill:#000078;fill-opacity:1;stroke:#ffffff;stroke-width:0.224256;stroke-dasharray:none"
         d="m 107.07869,258.75322 2.09651,11.821 0.36225,-0.0747 -1.45378,-11.96545 z" /><path
         id="path1307-1-54-7-5-8-6-7-8-5-4-5-9"
         style="fill:#000078;fill-opacity:1;stroke:#ffffff;stroke-width:0.224256;stroke-dasharray:none"
         d="m 113.04097,257.49982 3.78568,11.33665 0.34773,-0.13117 -3.17149,-11.58463 z" /><path
         id="path1307-1-54-7-5-8-6-7-9-2-5-8-4"
         style="fill:#000078;fill-opacity:1;stroke:#ffffff;stroke-width:0.224256;stroke-dasharray:none"
         d="m 118.72495,255.3856 4.90295,10.84263 0.33211,-0.17068 -4.31756,-11.15889 z" /><path
         id="path1307-1-54-7-5-8-6-7-8-7-4-1-0-73"
         style="fill:#000078;fill-opacity:1;stroke:#ffffff;stroke-width:0.224256;stroke-dasharray:none"
         d="m 123.70842,252.91859 5.9218,10.24616 0.31428,-0.2059 -5.37001,-10.62545 z" /><path
         id="path1307-1-54-7-5-8-6-7-5-72-0"
         style="fill:#000078;fill-opacity:1;stroke:#ffffff;stroke-width:0.224256;stroke-dasharray:none"
         d="m 128.79018,249.01637 7.28089,9.22596 0.28237,-0.25185 -6.78649,-9.6845 z" /><path
         id="path1307-1-54-7-5-8-6-7-8-5-8-90"
         style="fill:#000078;fill-opacity:1;stroke:#ffffff;stroke-width:0.224256;stroke-dasharray:none"
         d="m 149.70431,205.28405 11.00499,2.91323 0.0891,-0.37974 -10.86004,-3.59271 z" /><path
         id="path1307-1-54-7-5-8-6-7-9-2-0-31"
         style="fill:#000078;fill-opacity:1;stroke:#ffffff;stroke-width:0.224256;stroke-dasharray:none"
         d="m 132.95278,244.95626 8.96049,7.37112 0.22512,-0.3101 -8.5701,-7.93147 z" /><path
         id="path1307-1-54-7-5-8-6-7-8-7-4-0-1"
         style="fill:#000078;fill-opacity:1;stroke:#ffffff;stroke-width:0.224256;stroke-dasharray:none"
         d="m 137.22423,239.10918 9.55337,6.48403 0.19886,-0.32959 -9.21182,-7.07916 z" /><path
         id="path1307-1-54-7-5-8-6-7-8-7-1-8-5"
         style="fill:#000078;fill-opacity:1;stroke:#ffffff;stroke-width:0.224256;stroke-dasharray:none"
         d="m 140.20872,233.6101 10.60352,4.26318 0.13049,-0.36612 -10.38501,-4.92029 z" /><path
         id="path1307-1-54-7-5-8-6-7-5-7-2-3"
         style="fill:#000078;fill-opacity:1;stroke:#ffffff;stroke-width:0.224256;stroke-dasharray:none"
         d="m 142.57078,227.59097 10.67636,4.05632 0.12309,-0.36902 -10.46907,-4.71749 z" /><path
         id="path1307-1-54-7-5-8-6-7-8-5-4-5-96"
         style="fill:#000078;fill-opacity:1;stroke:#ffffff;stroke-width:0.224256;stroke-dasharray:none"
         d="m 144.88936,221.57576 10.71321,3.94063 0.12013,-0.3702 -10.51248,-4.60417 z" /><path
         id="path1307-1-54-7-5-8-6-7-9-2-5-8-3"
         style="fill:#000078;fill-opacity:1;stroke:#ffffff;stroke-width:0.224256;stroke-dasharray:none"
         d="m 146.71633,216.29363 10.92737,3.20605 0.0971,-0.3776 -10.76737,-3.8819 z" /><path
         id="path1307-1-54-7-5-8-6-7-8-7-4-1-0-1"
         style="fill:#000078;fill-opacity:1;stroke:#ffffff;stroke-width:0.224256;stroke-dasharray:none"
         d="m 148.33939,210.6293 11.02986,2.75225 0.0833,-0.38171 -10.89541,-3.4349 z" /><path
         id="path1307-1-54-7-5-8-6-7-5-72-8"
         style="fill:#000078;fill-opacity:1;stroke:#ffffff;stroke-width:0.224256;stroke-dasharray:none"
         d="m 150.58792,200.04696 11.2842,1.22918 0.037,-0.38934 -11.23121,-1.92352 z" /><path
         id="path1307-1-54-7-5-8-6-7-8-5-8-13"
         style="fill:#000078;fill-opacity:1;stroke:#ffffff;stroke-width:0.224256;stroke-dasharray:none"
         d="m 151.24489,194.58721 11.23289,1.66887 0.051,-0.38757 -11.15616,-2.36092 z" /><path
         id="path1307-1-54-7-5-8-6-7-9-2-0-0"
         style="fill:#000078;fill-opacity:1;stroke:#ffffff;stroke-width:0.224256;stroke-dasharray:none"
         d="m 152.08072,189.47656 11.30658,0.91924 0.0268,-0.39031 -11.27162,-1.61505 z" /><path
         id="path1307-1-54-7-5-8-6-7-8-7-4-0-8"
         style="fill:#000078;fill-opacity:1;stroke:#ffffff;stroke-width:0.224256;stroke-dasharray:none"
         d="m 152.42478,184.18145 11.34192,-0.0288 -8.9e-4,-0.3913 -11.35824,-0.66762 z" /><path
         id="path1307-1-54-7-5-8-6-7-8-7-1-8-7"
         style="fill:#000078;fill-opacity:1;stroke:#ffffff;stroke-width:0.224256;stroke-dasharray:none"
         d="m 152.22956,178.52983 11.317,-0.76207 -0.0238,-0.39064 -11.37386,0.068 z" /><path
         id="path1307-1-54-7-5-8-6-7-5-7-2-6"
         style="fill:#000078;fill-opacity:1;stroke:#ffffff;stroke-width:0.224256;stroke-dasharray:none"
         d="m 151.78727,172.80626 11.25744,-1.45486 -0.0462,-0.38837 -11.3518,0.76543 z" /><path
         id="path1307-1-54-7-5-8-6-7-8-5-4-5-2"
         style="fill:#000078;fill-opacity:1;stroke:#ffffff;stroke-width:0.224256;stroke-dasharray:none"
         d="m 151.26077,167.15429 11.09408,-2.48701 -0.0772,-0.38283 -11.24492,1.80871 z" /><path
         id="path1307-1-54-7-5-8-6-7-9-2-5-8-91"
         style="fill:#000078;fill-opacity:1;stroke:#ffffff;stroke-width:0.224256;stroke-dasharray:none"
         d="m 150.5977,160.86675 11.00835,-2.87767 -0.0896,-0.37967 -11.18075,2.20521 z" /><path
         id="path1307-1-54-7-5-8-6-7-8-7-4-1-0-4"
         style="fill:#000078;fill-opacity:1;stroke:#ffffff;stroke-width:0.224256;stroke-dasharray:none"
         d="m 149.48528,154.8131 11.02673,-2.76631 -0.0863,-0.38095 -11.19411,2.09188 z" /><path
         id="path1307-1-54-7-5-8-6-7-5-72-12"
         style="fill:#000078;fill-opacity:1;stroke:#ffffff;stroke-width:0.224256;stroke-dasharray:none"
         d="m 147.06421,143.24861 10.93072,-3.21632 -0.0994,-0.37679 -11.11991,2.54921 z" /><path
         id="path1307-1-54-7-5-8-6-7-5-72-12-8"
         style="fill:#000078;fill-opacity:1;stroke:#ffffff;stroke-width:0.224256;stroke-dasharray:none"
         d="m 148.17856,149.05002 10.93072,-3.21632 -0.0994,-0.37679 -11.11991,2.54921 z" /><path
         id="path1307-1-54-7-5-8-6-7-8-5-8-5"
         style="fill:#000078;fill-opacity:1;stroke:#ffffff;stroke-width:0.224256;stroke-dasharray:none"
         d="m 145.72898,137.53412 10.79993,-3.67649 -0.11295,-0.37251 -11.01445,3.01803 z" /><path
         id="path1307-1-54-7-5-8-6-7-9-2-0-04"
         style="fill:#000078;fill-opacity:1;stroke:#ffffff;stroke-width:0.224256;stroke-dasharray:none"
         d="m 144.58702,132.43613 10.47386,-4.60956 -0.14263,-0.36096 -10.73967,3.97243 z" /><path
         id="path1307-1-54-7-5-8-6-7-8-7-4-0-2"
         style="fill:#000078;fill-opacity:1;stroke:#ffffff;stroke-width:0.224256;stroke-dasharray:none"
         d="m 143.29903,127.12527 10.1021,-5.46898 -0.16774,-0.34851 -10.41377,4.8557 z" /><path
         id="path1307-1-54-7-5-8-6-7-8-7-1-8-6"
         style="fill:#000078;fill-opacity:1;stroke:#ffffff;stroke-width:0.224256;stroke-dasharray:none"
         d="m 141.20475,121.53687 9.88268,-5.89807 -0.18127,-0.34096 -10.21806,5.29893 z" /><path
         id="path1307-1-54-7-5-8-6-7-5-7-2-7"
         style="fill:#000078;fill-opacity:1;stroke:#ffffff;stroke-width:0.224256;stroke-dasharray:none"
         d="m 139.17938,116.05414 9.55328,-6.4817 -0.2001,-0.32892 -9.91985,5.90353 z" /><path
         id="path1307-1-54-7-5-8-6-7-8-5-4-5-6"
         style="fill:#000078;fill-opacity:1;stroke:#ffffff;stroke-width:0.224256;stroke-dasharray:none"
         d="m 125.54143,62.509323 8.05978,-8.45961 -0.26022,-0.27772 -8.53274,7.97582 z" /><path
         id="path1307-1-54-7-5-8-6-7-9-2-5-8-34"
         style="fill:#000078;fill-opacity:1;stroke:#ffffff;stroke-width:0.224256;stroke-dasharray:none"
         d="m 136.72537,110.1212 9.50786,-6.55069 -0.20216,-0.32744 -9.8788,5.97554 z" /><path
         id="path1307-1-54-7-5-8-6-7-8-7-4-1-0-19"
         style="fill:#000078;fill-opacity:1;stroke:#ffffff;stroke-width:0.224256;stroke-dasharray:none"
         d="m 134.23999,103.50845 10.39505,-4.782777 -0.1482,-0.35889 -10.6718,4.150127 z" /><path
         id="path1307-1-54-7-5-8-6-7-5-72-5"
         style="fill:#000078;fill-opacity:1;stroke:#ffffff;stroke-width:0.224256;stroke-dasharray:none"
         d="m 132.6055,96.850643 11.26162,-1.44357 -0.0451,-0.38832 -11.35446,0.7539 z" /><path
         id="path1307-1-54-7-5-8-6-7-8-5-8-98"
         style="fill:#000078;fill-opacity:1;stroke:#ffffff;stroke-width:0.224256;stroke-dasharray:none"
         d="m 132.19319,90.782373 11.32076,-0.74565 -0.0231,-0.39058 -11.37597,0.0513 z" /><path
         id="path1307-1-54-7-5-8-6-7-9-2-0-8"
         style="fill:#000078;fill-opacity:1;stroke:#ffffff;stroke-width:0.224256;stroke-dasharray:none"
         d="m 132.25278,85.612193 11.21135,-1.80482 -0.0567,-0.38671 -11.32501,1.11857 z" /><path
         id="path1307-1-54-7-5-8-6-7-8-7-4-0-87"
         style="fill:#000078;fill-opacity:1;stroke:#ffffff;stroke-width:0.224256;stroke-dasharray:none"
         d="m 132.08013,79.420443 10.83169,-3.56758 -0.1094,-0.37372 -11.04053,2.90707 z" /><path
         id="path1307-1-54-7-5-8-6-7-8-7-1-8-3"
         style="fill:#000078;fill-opacity:1;stroke:#ffffff;stroke-width:0.224256;stroke-dasharray:none"
         d="m 130.77709,73.667523 10.15369,-5.35528 -0.1646,-0.35031 -10.45979,4.73872 z" /><path
         id="path1307-1-54-7-5-8-6-7-5-7-2-8"
         style="fill:#000078;fill-opacity:1;stroke:#ffffff;stroke-width:0.224256;stroke-dasharray:none"
         d="m 128.55862,67.694833 9.1575,-7.09526 -0.21889,-0.31516 -9.55703,6.54223 z" /><path
         id="path1307-1-54-7-5-8-6-7-8-5-4-5-8"
         style="fill:#000078;fill-opacity:1;stroke:#ffffff;stroke-width:0.224256;stroke-dasharray:none"
         d="m 121.30203,57.331243 6.33296,-9.97619 -0.30665,-0.21799 -6.88641,9.60058 z" /><path
         id="path1307-1-54-7-5-8-6-7-9-2-5-8-96"
         style="fill:#000078;fill-opacity:1;stroke:#ffffff;stroke-width:0.224256;stroke-dasharray:none"
         d="m 116.0368,53.948433 4.35493,-11.10272 -0.34121,-0.14891 -4.96741,10.85048 z" /><path
         id="path1307-1-54-7-5-8-6-7-8-7-4-1-0-8"
         style="fill:#000078;fill-opacity:1;stroke:#ffffff;stroke-width:0.224256;stroke-dasharray:none"
         d="m 109.92678,51.207253 2.37849,-11.75026 -0.36148,-0.0809 -3.02465,11.62108 z" /><path
         id="path1307-1-54-7-5-8-6-7-5-72-12-3"
         style="fill:#000078;fill-opacity:1;stroke:#ffffff;stroke-width:0.224256;stroke-dasharray:none"
         d="m 103.40102,49.741323 0.73455,-12.00609 -0.36815,-0.0242 -1.39077,11.97599 z" /><path
         id="path1307-1-54-7-5-8-6-7-5-72-12-3-4"
         style="fill:#000078;fill-opacity:1;stroke:#ffffff;stroke-width:0.224256;stroke-dasharray:none"
         d="m 96.762458,49.116813 -0.60589,-12.01418 -0.36828,0.0215 -0.0492,12.06641 z" /><path
         id="path1307-1-54-7-5-8-6-7-5-72-12-3-7"
         style="fill:#000078;fill-opacity:1;stroke:#ffffff;stroke-width:0.224256;stroke-dasharray:none"
         d="m 90.990128,49.339753 -1.84848,-11.87052 -0.3638,0.0648 1.20291,11.99884 z" /><path
         style="fill:#7ce0fc;fill-opacity:1;stroke:none;stroke-width:0.491824;stroke-dasharray:none"
         d="m 117.50175,204.98271 c 1.05569,-7.34119 -7.00351,-7.68157 -6.65181,-0.88495 0.88246,5.05058 5.27365,6.62978 6.65181,0.88495 z"
         id="path3401-6-4-9-1-8-9"
         sodipodi:nodetypes="ccc" /><path
         style="fill:#7ce0fc;fill-opacity:1;stroke:none;stroke-width:0.224256;stroke-dasharray:none"
         d="m 110.21731,162.43061 c 0.53082,-3.03545 -3.52149,-3.17619 -3.34465,-0.3659 0.44372,2.08831 2.65168,2.74128 3.34465,0.3659 z"
         id="path3401-6-4-9-1-8-9-8"
         sodipodi:nodetypes="ccc" /><path
         style="fill:#7ce0fc;fill-opacity:1;stroke:none;stroke-width:0.491824;stroke-dasharray:none"
         d="m 108.64916,145.05548 c 1.05569,-7.34119 -7.00351,-7.68157 -6.65181,-0.88495 0.88246,5.05058 5.27365,6.62978 6.65181,0.88495 z"
         id="path3401-6-4-9-1-8-9-72"
         sodipodi:nodetypes="ccc" /></g></g></svg>
