<?xml version="1.0" encoding="UTF-8" standalone="no"?>
<!-- Created with Inkscape (http://www.inkscape.org/) -->

<svg
   width="96.293816mm"
   height="85.523399mm"
   viewBox="0 0 96.293816 85.523399"
   version="1.1"
   id="svg5"
   xml:space="preserve"
   inkscape:version="1.2 (dc2aeda, 2022-05-15)"
   sodipodi:docname="bacteria.svg"
   xmlns:inkscape="http://www.inkscape.org/namespaces/inkscape"
   xmlns:sodipodi="http://sodipodi.sourceforge.net/DTD/sodipodi-0.dtd"
   xmlns="http://www.w3.org/2000/svg"
   xmlns:svg="http://www.w3.org/2000/svg"><sodipodi:namedview
     id="namedview7"
     pagecolor="#ffffff"
     bordercolor="#000000"
     borderopacity="0.25"
     inkscape:showpageshadow="2"
     inkscape:pageopacity="0.0"
     inkscape:pagecheckerboard="0"
     inkscape:deskcolor="#d1d1d1"
     inkscape:document-units="mm"
     showgrid="false"
     inkscape:zoom="0.5"
     inkscape:cx="229"
     inkscape:cy="129"
     inkscape:window-width="1260"
     inkscape:window-height="1033"
     inkscape:window-x="788"
     inkscape:window-y="23"
     inkscape:window-maximized="0"
     inkscape:current-layer="layer1" /><defs
     id="defs2" /><g
     inkscape:label="Layer 1"
     inkscape:groupmode="layer"
     id="layer1"
     transform="translate(-48.389523,-79.265191)"><g
       id="g4456"><g
         id="g1914"><path
           style="fill:none;fill-rule:evenodd;stroke:#00004c;stroke-width:0.682;stroke-dasharray:none"
           d="m 56.412028,135.98405 c -10.453631,14.17293 11.899978,20.55094 18.266515,13.19249 2.21114,-2.03263 14.66999,-16.89121 16.236903,-25.87757 0.54908,-11.05451 -10.55334,-14.00512 -15.729501,-10.99373 -9.45664,6.56794 -7.964341,9.02328 -18.773917,23.67881 z"
           id="path368"
           sodipodi:nodetypes="scccs" /><path
           style="fill:none;fill-rule:evenodd;stroke:#003cd8;stroke-width:0.649063;stroke-dasharray:none"
           d="m 57.518117,135.39344 c -1.813235,2.53057 -2.948643,4.60631 -3.155612,6.57182 -0.341009,3.23844 1.227602,5.72915 3.661809,7.38345 4.995439,3.39493 13.636296,3.20757 16.899408,-1.20887 2.092451,-1.94547 13.882542,-16.16691 15.365347,-24.76795 0.519606,-10.58049 -9.986864,-13.40457 -14.885182,-10.52232 -9.204223,6.35436 -7.965222,8.69865 -17.88577,22.54387 z"
           id="path368-2"
           sodipodi:nodetypes="ssscccs" /><path
           style="fill:#ccf0fc;fill-rule:evenodd;stroke:#c8b470;stroke-width:0.633941;stroke-dasharray:none"
           d="m 58.094843,135.39764 c -1.768802,2.47466 -2.797126,4.51453 -3.078292,6.42662 -0.448626,3.05092 1.155041,5.58232 3.572088,7.22033 4.961455,3.36233 13.02386,2.81617 16.126547,-1.36156 7.267838,-8.583 14.112731,-18.65838 14.988863,-24.10115 0.506875,-10.34674 -9.383376,-13.04863 -14.161676,-10.23006 -8.978698,6.21398 -7.770056,8.50647 -17.44753,22.04582 z"
           id="path368-2-8"
           sodipodi:nodetypes="ssscccs" /><path
           style="fill:#4a4a4a;fill-opacity:1;fill-rule:evenodd;stroke:#4a4a4a;stroke-width:0.1;stroke-linecap:round;stroke-dasharray:none;stroke-opacity:1"
           d="m 79.354116,113.82101 c 0.328811,-0.20038 0.634012,0.27667 0.330729,0.42995 -0.307165,0.15111 -0.673977,-0.19522 -0.330729,-0.42995 z"
           id="path1624-34"
           sodipodi:nodetypes="ccc" /><path
           style="fill:#4a4a4a;fill-opacity:1;fill-rule:evenodd;stroke:#4a4a4a;stroke-width:0.1;stroke-linecap:round;stroke-dasharray:none;stroke-opacity:1"
           d="m 79.354116,116.81443 c 0.328811,-0.20038 0.634012,0.27667 0.330729,0.42995 -0.307165,0.15111 -0.673977,-0.19522 -0.330729,-0.42995 z"
           id="path1624-14"
           sodipodi:nodetypes="ccc" /><path
           style="fill:#4a4a4a;fill-opacity:1;fill-rule:evenodd;stroke:#4a4a4a;stroke-width:0.1;stroke-linecap:round;stroke-dasharray:none;stroke-opacity:1"
           d="m 73.741456,117.00152 c 0.328811,-0.20038 0.634012,0.27667 0.330729,0.42995 -0.307165,0.15111 -0.673977,-0.19522 -0.330729,-0.42995 z"
           id="path1624-4"
           sodipodi:nodetypes="ccc" /><path
           style="fill:#4a4a4a;fill-opacity:1;fill-rule:evenodd;stroke:#4a4a4a;stroke-width:0.1;stroke-linecap:round;stroke-dasharray:none;stroke-opacity:1"
           d="m 86.837663,123.64316 c 0.328811,-0.20038 0.634012,0.27667 0.330729,0.42995 -0.307165,0.15111 -0.673977,-0.19522 -0.330729,-0.42995 z"
           id="path1624-59"
           sodipodi:nodetypes="ccc" /><path
           style="fill:#4a4a4a;fill-opacity:1;fill-rule:evenodd;stroke:#4a4a4a;stroke-width:0.1;stroke-linecap:round;stroke-dasharray:none;stroke-opacity:1"
           d="m 85.153865,128.22684 c 0.328811,-0.20038 0.634012,0.27667 0.330729,0.42995 -0.307165,0.1511 -0.673977,-0.19523 -0.330729,-0.42995 z"
           id="path1624-93"
           sodipodi:nodetypes="ccc" /><path
           style="fill:#4a4a4a;fill-opacity:1;fill-rule:evenodd;stroke:#4a4a4a;stroke-width:0.1;stroke-linecap:round;stroke-dasharray:none;stroke-opacity:1"
           d="m 70.186771,140.01342 c 0.328811,-0.20038 0.634012,0.27667 0.330729,0.42995 -0.307165,0.15111 -0.673977,-0.19522 -0.330729,-0.42995 z"
           id="path1624-11"
           sodipodi:nodetypes="ccc" /><path
           style="fill:#4a4a4a;fill-opacity:1;fill-rule:evenodd;stroke:#4a4a4a;stroke-width:0.1;stroke-linecap:round;stroke-dasharray:none;stroke-opacity:1"
           d="m 82.628168,132.94894 c 0.328811,0.20038 0.634012,-0.27667 0.330729,-0.42995 -0.307165,-0.15111 -0.673977,0.19522 -0.330729,0.42995 z"
           id="path1624-75"
           sodipodi:nodetypes="ccc" /><path
           style="fill:#4a4a4a;fill-opacity:1;fill-rule:evenodd;stroke:#4a4a4a;stroke-width:0.1;stroke-linecap:round;stroke-dasharray:none;stroke-opacity:1"
           d="m 59.709806,138.09388 c 0.328811,0.20038 0.634012,-0.27667 0.330729,-0.42995 -0.307165,-0.15111 -0.673977,0.19522 -0.330729,0.42995 z"
           id="path1624-90"
           sodipodi:nodetypes="ccc" /><path
           style="fill:#4a4a4a;fill-opacity:1;fill-rule:evenodd;stroke:#4a4a4a;stroke-width:0.1;stroke-linecap:round;stroke-dasharray:none;stroke-opacity:1"
           d="m 84.686144,116.85932 c 0.328811,0.20038 0.634012,-0.27667 0.330729,-0.42995 -0.307165,-0.15111 -0.673977,0.19522 -0.330729,0.42995 z"
           id="path1624-12"
           sodipodi:nodetypes="ccc" /><path
           style="fill:#4a4a4a;fill-opacity:1;fill-rule:evenodd;stroke:#4a4a4a;stroke-width:0.1;stroke-linecap:round;stroke-dasharray:none;stroke-opacity:1"
           d="m 83.376522,120.46266 c 0.328811,-0.20038 0.634012,0.27667 0.330729,0.42995 -0.307165,0.15111 -0.673977,-0.19522 -0.330729,-0.42995 z"
           id="path1624-71"
           sodipodi:nodetypes="ccc" /><g
           id="g335"
           transform="matrix(-1,0,0,1,175.9449,16.276715)"><path
             style="fill:none;fill-rule:evenodd;stroke:#000030;stroke-width:0.582;stroke-dasharray:none"
             d="m 99.809321,108.22399 c 0.430789,-0.61301 0.589329,-0.98726 0.534979,-1.38604 -0.610173,-1.11916 -1.063227,-0.97205 -1.576781,-1.31254 l -1.061474,-0.1982 c -0.657616,-0.45902 -0.903915,-0.83538 -1.188181,-1.21937 -1.129907,-0.61573 -1.705254,-0.0509 -1.648287,0.77009 l 0.288336,1.94372 c -0.102713,1.41014 -0.693708,1.82401 -0.739291,2.77818 0.219178,1.91666 1.388623,1.84077 2.034174,2.3398 3.430077,1.71487 3.564674,0.93602 3.817414,0.68508 0.53519,-0.74398 0.67505,-0.97444 0.77813,-1.63235 0.19639,-1.20275 0.41832,-1.17837 0.89445,-1.14785 0.50236,0.0322 0.65978,0.40181 0.9683,0.58681 0.3957,0.23728 0.89085,1.05238 1.55848,2.30456 0.38505,1.16852 0.34819,1.84763 0.14872,2.33809 -0.16028,1.06082 -0.42498,1.70853 -0.88972,2.32554 -0.59774,1.05543 -0.99274,1.33958 -1.42875,1.77974 -0.44585,0.51956 -1.09477,0.61354 -1.88003,0.42179 -0.954725,-0.43067 -0.585692,-0.81103 -0.521063,-1.16075 0.130803,-0.15339 0.177933,-0.33642 0.661683,-0.36488 0.81749,0.0152 1.57442,0.8478 2.34824,1.45247 1.39869,0.34494 1.5546,-0.60365 1.57308,-0.99642 -0.24201,-2.08683 -0.45163,-1.8265 -1.28575,-2.38553 -1.35603,-0.57291 -2.3224,-0.15616 -3.236247,-1.01236 -1.175999,-1.59092 -0.781178,-2.68527 -0.907979,-3.13937 -0.03105,-0.7172 0.04871,-1.48725 0.721674,-2.54035 0.998882,-1.16384 1.498182,-1.09004 2.031482,-1.10042 1.04624,0.14922 1.96498,0.39388 2.21509,1.13907 0.53585,0.78308 1.10442,1.52416 1.8546,2.03217 1.28427,0.62044 2.33587,1.36973 2.68975,2.30558 0.0821,1.04653 -0.17238,1.66294 -0.53567,2.14022 -0.56635,0.50018 -1.16663,0.72682 -1.88544,-0.002 -1.0226,-1.17125 -1.42108,-1.27319 -1.99994,-1.6842 -1.04176,-0.37883 -1.50319,-1.14377 -2.11007,-1.81195 -0.47262,-0.83454 0.3685,-1.01626 0.73217,-1.31625 0.39496,-0.0808 0.41131,-0.4048 1.55477,-0.004 0.94765,0.4637 1.17918,1.01624 1.14142,1.60221 0.2064,1.48072 -0.0942,2.19963 -0.33341,3.01062 -0.0832,1.22173 0.64386,1.83699 1.34369,2.4726 l 2.45869,1.20311 c 0.79703,0.58639 0.56198,1.09631 0.10303,1.58966 -0.61746,0.11934 -1.03995,0.32069 -1.83868,-0.38456 -1.03891,-0.57219 -1.46567,0.008 -1.9671,0.47974 -0.69001,0.92012 -2.39701,1.10143 -2.88375,0.42443 -0.14359,-0.24426 -0.40887,-0.54906 -0.56807,-0.72928 -0.63789,-0.72214 -0.70642,-1.10106 -0.77991,-1.55232 -0.0174,-0.10753 0.1187,-0.46154 0.24844,-0.71018 0.30681,-0.5879 0.4789,-1.25099 -0.35808,-1.56569 -0.77436,-0.2398 -2.900392,-1.04457 -2.992348,-1.41396 -0.523794,-0.57943 -0.506167,-1.84458 -0.160234,-2.43092 0.784995,-1.19712 1.038027,-2.53576 1.20413,-3.58997 -0.06002,-1.60657 -0.651283,-1.7123 -1.047901,-2.36791 -0.549728,-0.44248 -1.182835,-0.5966 -1.995555,-0.12944 -0.584588,0.84006 -0.0094,1.26709 0.450936,1.73503 1.714987,0.83692 3.040751,-0.0832 3.463856,-0.5712 z"
             id="path2261"
             sodipodi:nodetypes="cccccccccccsscccccccccccccccccccccccccccccccsssccccccccc" /><path
             style="fill:none;fill-rule:evenodd;stroke:#00a8f0;stroke-width:0.382;stroke-linecap:round;stroke-dasharray:none"
             d="m 99.310687,108.67732 c 0.393889,-0.22762 0.739823,-0.70757 0.950753,-1.20108 0.22378,-0.65877 -0.0722,-0.96161 -0.316784,-1.21044 -0.261793,-0.28067 -0.607853,-0.53272 -1.119279,-0.69428 l -1.127891,-0.22664 c -0.416587,-0.37403 -0.684742,-0.6324 -0.905821,-0.85407 -0.515605,-0.75333 -0.912996,-0.55393 -1.349018,-0.66579 -0.809917,0.45354 -0.479371,0.89249 -0.567309,1.3368 0.279398,1.08751 0.269815,1.42656 0.297728,1.86268 -0.158405,0.96746 -0.297699,1.00763 -0.633442,1.87823 -0.271923,1.12263 0.05306,1.34437 0.19521,1.84206 0.461903,0.53597 1.021857,0.94611 1.713634,1.18708 1.224412,0.6628 1.734006,0.78597 2.184683,0.92465"
             id="path3097"
             sodipodi:nodetypes="ccccccccccccc" /><path
             style="fill:none;fill-rule:evenodd;stroke:#00a8f0;stroke-width:0.382;stroke-linecap:round;stroke-dasharray:none"
             d="m 99.626371,113.00393 c 0.406009,-0.0133 0.650669,-0.30615 0.755659,-0.52701 0.56668,-0.74687 0.55411,-0.99439 0.66577,-1.34902 0.0128,-0.52358 0.13247,-0.82335 0.26353,-1.09914 0.28356,-0.22156 0.6242,-0.2679 0.92822,-0.13462 0.87236,0.69953 0.65888,0.49005 0.9021,0.69934"
             id="path3153"
             sodipodi:nodetypes="cccccc" /><path
             style="fill:none;fill-rule:evenodd;stroke:#00a8f0;stroke-width:0.382;stroke-linecap:round;stroke-dasharray:none"
             d="m 103.73705,111.47169 c 0.89428,1.253 0.99325,1.82618 1.04957,2.66096"
             id="path3155"
             sodipodi:nodetypes="cc" /><path
             style="fill:none;fill-rule:evenodd;stroke:#00a8f0;stroke-width:0.382;stroke-linecap:round;stroke-dasharray:none"
             d="m 104.59381,115.15486 c -0.07,0.6655 -0.13503,0.94185 -0.29188,1.26407"
             id="path3157"
             sodipodi:nodetypes="cc" /><path
             style="fill:none;fill-rule:evenodd;stroke:#00a8f0;stroke-width:0.382;stroke-linecap:round;stroke-dasharray:none"
             d="m 103.7983,117.2678 c -0.34923,0.53141 -0.34749,0.74765 -1.06439,1.52369"
             id="path3159"
             sodipodi:nodetypes="cc" /><path
             style="fill:none;fill-rule:evenodd;stroke:#00a8f0;stroke-width:0.382;stroke-dasharray:none"
             d="M 102.24631,119.44413 Z"
             id="path3161" /><path
             style="fill:none;fill-rule:evenodd;stroke:#00a8f0;stroke-width:0.382;stroke-linecap:round;stroke-dasharray:none"
             d="m 102.03192,119.44044 c -0.24325,0.14466 -0.32113,0.12862 -0.44418,0.16961"
             id="path3163"
             sodipodi:nodetypes="cc" /><path
             style="fill:none;fill-rule:evenodd;stroke:#00a8f0;stroke-width:0.382;stroke-linecap:round;stroke-dasharray:none"
             d="m 100.56285,119.64796 c -0.3443,-0.1124 -0.46631,-0.22244 -0.617729,-0.35153 -0.277941,-0.46441 -0.04319,-0.74683 0.01306,-0.83479 0.189509,-0.42527 0.561859,-0.42021 1.001169,-0.25753 0.39838,0.0965 0.87294,0.3903 1.4022,0.82581 0.23703,0.34564 0.58597,0.61683 1.31212,0.63703 0.26135,-0.16244 0.51227,-0.18403 0.80472,-0.76639 0.0695,-0.75288 -0.0717,-1.08545 -0.12988,-1.58355 -0.30927,-0.77097 -0.59553,-0.7112 -0.93431,-1.08382 -0.45004,-0.19158 -0.79136,-0.22037 -1.86602,-0.53498 -0.77506,0.0206 -1.07336,-0.22165 -1.45179,-0.41974 -0.746567,-0.84951 -0.75055,-1.3269 -0.970483,-1.9125 -0.03306,-0.60101 -0.07365,-1.18075 -0.04336,-1.96088 0.143555,-1.24641 0.254868,-1.01515 0.61283,-1.77571 0.901483,-1.10838 0.878763,-0.78917 1.383533,-1.20478 0.70332,-0.0617 1.42578,0.031 2.16165,0.23167 0.60607,0.37562 1.04669,1.43872 1.47527,1.68324 0.77424,1.04335 1.29119,1.2695 2.07418,1.67557 0.97747,0.73946 0.96621,0.73344 1.33226,1.06778 0.43897,0.47687 0.58425,1.31139 0.34686,1.98987 -0.31262,0.94647 -0.62448,1.04182 -0.93648,1.31596 -0.30366,0.0595 -0.61018,0.0961 -0.93529,-0.0173 -0.30124,-0.27907 -0.55285,-0.53802 -0.86467,-0.90227"
             id="path3165"
             sodipodi:nodetypes="ccccccccccccccccccccccc" /><path
             style="fill:none;fill-rule:evenodd;stroke:#00a8f0;stroke-width:0.382;stroke-linecap:round;stroke-dasharray:none"
             d="m 104.94362,114.84734 c -0.3318,-0.21026 -0.13571,-0.263 -0.94098,-0.58679 -0.56474,-0.21983 -0.74301,-0.53549 -1.1167,-0.78482 l -0.98559,-1.14983 c -0.0853,-0.49397 0.21861,-0.65829 0.40241,-0.8969 0.54012,-0.28812 0.75051,-0.31828 1.01771,-0.39288 0.34155,-0.0567 0.68226,-0.10179 1.00082,0.15218 0.81677,0.35751 0.8283,0.65538 1.0534,0.96907 0.20787,1.1759 0.13295,1.44837 0.14997,2.01431 -0.11307,0.70028 -0.23265,1.34807 -0.39124,1.68154 -0.14803,0.68487 0.36098,1.3561 0.67041,1.68885 0.83675,0.96566 1.1635,0.88495 1.68168,1.152 1.18855,0.53052 1.19757,0.64355 1.68107,0.92451 0.39311,0.54299 0.37942,0.52191 0.17378,1.00752 -0.23509,0.45919 -0.73873,0.47315 -1.13027,0.57349 -0.43359,-0.0832 -1.13056,-0.70452 -1.70662,-0.75066 -0.75103,-0.0632 -0.96191,0.4649 -1.41396,0.82531 -0.38075,0.50566 -1.07547,0.59945 -1.41587,0.67557 -1.18062,0.12543 -1.32543,-0.35919 -1.61553,-0.79934 -1.51812,-1.62031 -0.99052,-2.08746 -0.86679,-2.38705"
             id="path3167"
             sodipodi:nodetypes="cccccccccccccccccccc" /><path
             style="fill:none;fill-rule:evenodd;stroke:#00a8f0;stroke-width:0.382;stroke-linecap:round;stroke-dasharray:none"
             d="m 101.49555,117.83648 c 7.7e-4,-0.64102 -0.3966,-0.73137 -0.70822,-0.85944 -0.38725,-0.22563 -1.403413,-0.45318 -2.39765,-1.0124 -0.875766,-0.38569 -0.931269,-1.18334 -0.909336,-1.63101 -0.04126,-0.60133 0.169559,-0.94384 0.307126,-1.22816"
             id="path3169"
             sodipodi:nodetypes="ccccc" /><path
             style="fill:none;fill-rule:evenodd;stroke:#00a8f0;stroke-width:0.382;stroke-linecap:round;stroke-dasharray:none"
             d="m 98.236234,112.20345 c 0.269638,-0.7276 0.370563,-1.0385 0.45819,-1.39517 0.07523,-0.3062 0.168655,-0.71433 0.222982,-1.03614 0.04649,-0.8862 -0.149087,-1.21778 -0.346578,-1.6537 -0.387787,-0.59297 -0.747834,-0.96245 -1.089592,-1.18446 -0.898689,-0.35814 -1.194874,-0.0487 -1.610004,0.12903 -0.530509,0.58487 -0.133861,1.17064 0.04522,1.31405 0.388177,0.53391 0.664157,0.56151 1.200213,0.74656 0.49406,0.0568 0.766044,0.0695 1.237097,-0.0592"
             id="path3171"
             sodipodi:nodetypes="csccccccc" /></g><path
           style="fill:#003cd8;fill-opacity:1;fill-rule:evenodd;stroke:#003cd8;stroke-width:0.082;stroke-linecap:round;stroke-dasharray:none;stroke-opacity:1"
           d="m 90.68692,122.31417 c 0.972273,0.0151 1.752192,-0.26879 2.339752,-0.85166 0.631899,-0.39003 1.151634,-1.34956 1.665367,-2.33964 0.406781,-0.66168 1.003605,-1.06841 1.790469,-1.22019 0.708149,0.0952 1.027215,0.21092 1.20982,0.33379 -0.391,-0.055 -0.733593,-0.16376 -1.199399,-0.13564 -0.718723,0.26122 -1.171903,0.70061 -1.526254,1.2063 -0.510533,1.34645 -0.776654,2.2735 -1.571517,2.86462 -0.715183,0.62921 -1.58106,1.10024 -2.854297,1.14367 z"
           id="path495-5"
           sodipodi:nodetypes="cccccccccc" /><path
           style="fill:#003cd8;fill-opacity:1;fill-rule:evenodd;stroke:#003cd8;stroke-width:0.082;stroke-linecap:round;stroke-dasharray:none;stroke-opacity:1"
           d="m 77.651411,111.78535 c -0.208243,-0.94983 -0.663337,-1.6439 -1.365388,-2.08219 -0.52451,-0.52564 -1.577638,-0.81156 -2.659122,-1.08462 -0.737321,-0.24426 -1.270038,-0.73194 -1.598176,-1.46305 -0.06965,-0.71111 -0.03019,-1.04821 0.04754,-1.25412 0.03607,0.39321 0.0088,0.7516 0.142946,1.19855 0.419033,0.6397 0.950612,0.98007 1.524076,1.20905 1.427634,0.18825 2.390999,0.23475 3.148604,0.87293 0.776408,0.55188 1.433407,1.28671 1.767576,2.51608 z"
           id="path495-6"
           sodipodi:nodetypes="cccccccccc" /><path
           style="fill:#003cd8;fill-opacity:1;fill-rule:evenodd;stroke:#003cd8;stroke-width:0.082;stroke-linecap:round;stroke-dasharray:none;stroke-opacity:1"
           d="m 60.738564,130.58912 c -0.916836,-0.32396 -1.746546,-0.30332 -2.48916,0.062 -0.723221,0.16844 -1.521517,0.91245 -2.323847,1.68732 -0.59636,0.49766 -1.29165,0.6931 -2.08588,0.58634 -0.64093,-0.31583 -0.90652,-0.52713 -1.04048,-0.70176 0.3531,0.17672 0.64322,0.3889 1.09372,0.51061 0.7645,-0.0187 1.33403,-0.29084 1.831,-0.65733 0.91281,-1.1137 1.460355,-1.9077 2.402101,-2.21485 0.878348,-0.36864 1.849162,-0.53934 3.069915,-0.17495 z"
           id="path495-59"
           sodipodi:nodetypes="cccccccccc" /><path
           style="fill:#003cd8;fill-opacity:1;fill-rule:evenodd;stroke:#003cd8;stroke-width:0.082;stroke-linecap:round;stroke-dasharray:none;stroke-opacity:1"
           d="m 55.519193,147.50884 c -0.916199,0.32577 -1.547692,0.86434 -1.894434,1.61583 -0.455692,0.58632 -0.607223,1.66699 -0.742452,2.77419 -0.149818,0.76214 -0.566813,1.35183 -1.250979,1.7691 -0.696763,0.15831 -1.036142,0.16145 -1.250178,0.11017 0.385574,-0.0851 0.744557,-0.10301 1.171146,-0.29219 0.58207,-0.49597 0.853067,-1.06605 1.00829,-1.66372 0.0077,-1.43997 -0.06707,-2.40155 0.471011,-3.23324 0.450116,-0.83951 1.096712,-1.58351 2.274441,-2.06927 z"
           id="path495-54"
           sodipodi:nodetypes="cccccccccc" /><path
           style="fill:#003cd8;fill-opacity:1;fill-rule:evenodd;stroke:#003cd8;stroke-width:0.082;stroke-linecap:round;stroke-dasharray:none;stroke-opacity:1"
           d="m 76.682234,146.4233 c 0.638073,0.73376 1.370184,1.12473 2.196411,1.17283 0.7123,0.20989 1.773596,-0.044 2.853622,-0.3228 0.764169,-0.13909 1.465469,0.0335 2.103915,0.51788 0.402015,0.5907 0.528972,0.90545 0.559458,1.12342 -0.22014,-0.32779 -0.367999,-0.6554 -0.699995,-0.98334 -0.674397,-0.36053 -1.304083,-0.40443 -1.91713,-0.33049 -1.343153,0.51915 -2.210907,0.94014 -3.181711,0.74324 -0.945943,-0.11216 -1.874785,-0.44211 -2.757375,-1.36083 z"
           id="path495-9"
           sodipodi:nodetypes="cccccccccc" /><path
           style="fill:#003cd8;fill-opacity:1;fill-rule:evenodd;stroke:#003cd8;stroke-width:0.082;stroke-linecap:round;stroke-dasharray:none;stroke-opacity:1"
           d="m 67.85296,119.30643 c -0.762792,-0.60307 -1.187566,-1.3161 -1.27425,-2.13917 -0.242959,-0.70171 -0.03895,-1.77372 0.189027,-2.86559 0.103207,-0.76984 -0.102025,-1.4623 -0.615682,-2.0774 -0.608851,-0.37396 -0.929197,-0.48606 -1.148357,-0.50632 0.33773,0.20457 0.671892,0.33695 1.014996,0.65325 0.391674,0.6568 0.464968,1.28374 0.419767,1.89958 -0.455778,1.36596 -0.835739,2.25244 -0.593662,3.21298 0.156263,0.93967 0.529285,1.85206 1.48827,2.69073 z"
           id="path495-1"
           sodipodi:nodetypes="cccccccccc" /><path
           style="fill:#003cd8;fill-opacity:1;fill-rule:evenodd;stroke:#003cd8;stroke-width:0.082;stroke-linecap:round;stroke-dasharray:none;stroke-opacity:1"
           d="m 87.270765,114.34242 c 0.587278,-0.77501 1.291436,-1.21433 2.112557,-1.31789 0.696573,-0.25731 1.772544,-0.0754 2.868875,0.13016 0.771792,0.0874 1.459893,-0.13202 2.064331,-0.65816 0.361381,-0.6164 0.46688,-0.93898 0.482639,-1.15851 -0.197593,0.34186 -0.32309,0.67867 -0.632286,1.02819 -0.648622,0.40508 -1.273924,0.49123 -1.890558,0.45868 -1.375023,-0.42765 -2.269127,-0.78933 -3.224489,-0.52759 -0.936259,0.17552 -1.840808,0.5672 -2.659619,1.5432 z"
           id="path495-7"
           sodipodi:nodetypes="cccccccccc" /><path
           style="fill:#003cd8;fill-opacity:1;fill-rule:evenodd;stroke:#003cd8;stroke-width:0.082;stroke-linecap:round;stroke-dasharray:none;stroke-opacity:1"
           d="m 87.608543,131.29286 c 0.92351,0.30442 1.567327,0.8282 1.93141,1.57144 0.469172,0.57559 0.645734,1.65246 0.806613,2.75622 0.167459,0.75846 0.598023,1.33832 1.291685,1.7396 0.700248,0.14211 1.039609,0.13738 1.252397,0.0811 -0.387445,-0.0761 -0.746746,-0.0857 -1.17761,-0.26494 -0.593419,-0.48233 -0.877569,-1.04598 -1.046616,-1.63988 -0.04106,-1.4394 0.01134,-2.40246 -0.545894,-3.22144 -0.469472,-0.82884 -1.133154,-1.55764 -2.321838,-2.01595 z"
           id="path495-55"
           sodipodi:nodetypes="cccccccccc" /><path
           style="fill:#003cd8;fill-opacity:1;fill-rule:evenodd;stroke:#003cd8;stroke-width:0.082;stroke-linecap:round;stroke-dasharray:none;stroke-opacity:1"
           d="m 68.399823,151.76026 c -0.08365,0.96878 0.144437,1.76679 0.684376,2.39403 0.344459,0.65786 1.264907,1.24403 2.216248,1.82637 0.631323,0.45247 0.994904,1.07652 1.090762,1.87213 -0.144983,0.69966 -0.282906,1.00977 -0.418397,1.18323 0.08254,-0.38612 0.215141,-0.7202 0.21996,-1.18684 -0.209822,-0.73536 -0.61613,-1.21843 -1.095552,-1.60759 -1.307049,-0.60431 -2.212995,-0.9352 -2.746535,-1.76981 -0.577149,-0.75782 -0.98589,-1.65478 -0.939331,-2.92791 z"
           id="path495-55-4"
           sodipodi:nodetypes="cccccccccc" /><path
           style="fill:#003cd8;fill-opacity:1;fill-rule:evenodd;stroke:#003cd8;stroke-width:0.082;stroke-linecap:round;stroke-dasharray:none;stroke-opacity:1"
           d="m 54.327764,141.66655 c -0.95129,-0.20148 -1.64858,-0.65162 -2.09184,-1.35054 -0.52937,-0.52076 -0.82276,-1.57183 -1.10352,-2.65134 -0.24949,-0.73557 -0.74095,-1.2648 -1.47437,-1.58773 -0.711597,-0.0646 -1.048407,-0.0227 -1.253757,0.0565 0.39346,0.0332 0.751647,0.003 1.199537,0.13442 0.64266,0.41447 0.98681,0.94362 1.21987,1.51544 0.19843,1.42625 0.25179,2.38926 0.89529,3.14231 0.5574,0.77246 1.29688,1.42422 2.52859,1.74964 z"
           id="path495-55-5"
           sodipodi:nodetypes="cccccccccc" /><path
           style="fill:#003cd8;fill-opacity:1;fill-rule:evenodd;stroke:#003cd8;stroke-width:0.0633047;stroke-linecap:round;stroke-dasharray:none;stroke-opacity:1"
           d="m 64.658668,124.00115 c -0.436606,-0.5867 -0.991797,-0.93999 -1.665649,-1.05984 -0.560693,-0.22277 -1.464242,-0.15276 -2.386195,-0.067 -0.645331,0.0194 -1.201448,-0.17582 -1.668363,-0.58564 -0.259626,-0.46071 -0.3262,-0.69716 -0.325019,-0.85496 0.141583,0.25538 0.223889,0.50309 0.457515,0.77017 0.511374,0.32573 1.024064,0.42218 1.537251,0.43333 1.167316,-0.2289 1.931771,-0.43752 2.706648,-0.19716 0.764636,0.1777 1.092125,0.47505 1.707604,1.21832 z"
           id="path495-55-2"
           sodipodi:nodetypes="cccccccccc" /><path
           style="fill:#003cd8;fill-opacity:1;fill-rule:evenodd;stroke:#003cd8;stroke-width:0.0633047;stroke-linecap:round;stroke-dasharray:none;stroke-opacity:1"
           d="m 83.337285,138.10357 c 0.731073,0.0193 1.339542,0.26995 1.825424,0.75198 0.504907,0.33026 0.967754,1.10941 1.428315,1.91268 0.355597,0.53887 0.835342,0.88124 1.439223,1.02715 0.526177,-0.0529 0.757848,-0.13455 0.886205,-0.22635 -0.290327,0.0312 -0.540261,0.10651 -0.893137,0.0692 -0.56071,-0.23067 -0.934691,-0.59438 -1.239206,-1.00761 -0.484747,-1.0863 -0.754185,-1.83149 -1.396762,-2.32677 -0.585445,-0.52298 -1.017101,-0.61961 -1.979168,-0.69507 z"
           id="path495-55-2-5"
           sodipodi:nodetypes="cccccccccc" /><path
           style="fill:#003cd8;fill-opacity:1;fill-rule:evenodd;stroke:#003cd8;stroke-width:0.0819999;stroke-linecap:round;stroke-dasharray:none;stroke-opacity:1"
           d="m 60.294067,150.75797 -1.396558,-0.94527 c -2.549955,4.09736 -0.962072,7.28656 1.15918,10.35872 4.387168,4.56683 7.88886,4.76643 11.296171,4.50049 3.717787,-0.54284 6.723934,-2.45363 9.290515,-5.20934 1.957608,-1.91928 3.256084,-4.23325 6.975012,-5.09787 2.385851,5e-5 6.003149,0.68543 7.785867,-0.3249 2.69358,-0.78397 4.001732,-3.80881 4.407547,-6.87279 0.03466,-1.23149 0.403459,-4.41919 0.857229,-5.86728 -1.023772,1.68851 -1.291328,3.82421 -1.809567,5.81166 -0.62376,4.43863 -3.454851,6.03132 -4.741741,6.30195 -2.313318,0.58705 -5.347931,-0.58146 -7.898571,0.25541 -2.493283,1.00822 -4.570009,2.48468 -6.217852,4.44322 -2.86577,3.13336 -6.017881,5.57521 -10.26917,5.36268 -4.229689,-0.39872 -7.14921,-2.29312 -9.040687,-5.36113 -1.210176,-2.169 -2.259082,-4.38033 -0.397371,-7.35555 z"
           id="path1402"
           sodipodi:nodetypes="cccccccccccccccc" /><path
           style="fill:none;fill-opacity:1;fill-rule:evenodd;stroke:#535353;stroke-width:0.481999;stroke-linecap:round;stroke-dasharray:none;stroke-opacity:1"
           d="m 67.54283,144.82292 c 0.16482,-0.56558 0.822696,-0.95351 1.403166,-2.15152 1.09702,-0.85394 1.150635,-0.44137 2.011205,-0.46772 1.61361,0.48988 2.475816,0.51022 1.730566,1.49671 -0.59475,0.80044 -1.578,-0.18055 -2.29184,0.14031 -0.82238,0.82011 0.8569,2.24589 0.0935,2.29184 -1.08589,0.5008 -1.022164,0.0633 -1.683804,-0.37418 -0.50543,-0.19613 -1.680063,0.18309 -1.262793,-0.93544 z"
           id="path1568"
           sodipodi:nodetypes="cccccccc" /><path
           style="fill:#4a4a4a;fill-opacity:1;fill-rule:evenodd;stroke:#4a4a4a;stroke-width:0.1;stroke-linecap:round;stroke-dasharray:none;stroke-opacity:1"
           d="m 58.503235,141.62957 c 0.328811,-0.20038 0.634012,0.27667 0.330729,0.42995 -0.307165,0.15111 -0.673977,-0.19522 -0.330729,-0.42995 z"
           id="path1624"
           sodipodi:nodetypes="ccc" /><path
           style="fill:#4a4a4a;fill-opacity:1;fill-rule:evenodd;stroke:#4a4a4a;stroke-width:0.1;stroke-linecap:round;stroke-dasharray:none;stroke-opacity:1"
           d="m 62.703224,146.28089 c 0.328811,-0.20038 0.634012,0.27667 0.330729,0.42995 -0.307165,0.15111 -0.673977,-0.19522 -0.330729,-0.42995 z"
           id="path1624-2"
           sodipodi:nodetypes="ccc" /><path
           style="fill:#4a4a4a;fill-opacity:1;fill-rule:evenodd;stroke:#4a4a4a;stroke-width:0.1;stroke-linecap:round;stroke-dasharray:none;stroke-opacity:1"
           d="m 63.358035,133.22958 c 0.328811,0.20038 0.634012,-0.27667 0.330729,-0.42995 -0.307165,-0.15111 -0.673977,0.19522 -0.330729,0.42995 z"
           id="path1624-1"
           sodipodi:nodetypes="ccc" /><path
           style="fill:#4a4a4a;fill-opacity:1;fill-rule:evenodd;stroke:#4a4a4a;stroke-width:0.1;stroke-linecap:round;stroke-dasharray:none;stroke-opacity:1"
           d="m 76.64133,140.3876 c 0.328811,-0.20038 0.634012,0.27667 0.330729,0.42995 -0.307165,0.15111 -0.673977,-0.19522 -0.330729,-0.42995 z"
           id="path1624-7"
           sodipodi:nodetypes="ccc" /><path
           style="fill:#4a4a4a;fill-opacity:1;fill-rule:evenodd;stroke:#4a4a4a;stroke-width:0.1;stroke-linecap:round;stroke-dasharray:none;stroke-opacity:1"
           d="m 65.228922,140.99376 c 0.328811,0.20038 0.634012,-0.27667 0.330729,-0.42995 -0.307165,-0.15111 -0.673977,0.19522 -0.330729,0.42995 z"
           id="path1624-15"
           sodipodi:nodetypes="ccc" /><path
           style="fill:#4a4a4a;fill-opacity:1;fill-rule:evenodd;stroke:#4a4a4a;stroke-width:0.1;stroke-linecap:round;stroke-dasharray:none;stroke-opacity:1"
           d="m 72.712468,121.30455 c 0.328811,-0.20038 0.634012,0.27667 0.330729,0.42995 -0.307165,0.15111 -0.673977,-0.19522 -0.330729,-0.42995 z"
           id="path1624-8"
           sodipodi:nodetypes="ccc" /><path
           style="fill:#4a4a4a;fill-opacity:1;fill-rule:evenodd;stroke:#4a4a4a;stroke-width:0.1;stroke-linecap:round;stroke-dasharray:none;stroke-opacity:1"
           d="m 67.661074,123.64316 c 0.328811,-0.20038 0.634012,0.27667 0.330729,0.42995 -0.307165,0.15111 -0.673977,-0.19522 -0.330729,-0.42995 z"
           id="path1624-5"
           sodipodi:nodetypes="ccc" /><path
           style="fill:#4a4a4a;fill-opacity:1;fill-rule:evenodd;stroke:#4a4a4a;stroke-width:0.1;stroke-linecap:round;stroke-dasharray:none;stroke-opacity:1"
           d="m 82.908801,127.61692 c 0.328811,0.20038 0.634012,-0.27667 0.330729,-0.42995 -0.307165,-0.15111 -0.673977,0.19522 -0.330729,0.42995 z"
           id="path1624-6"
           sodipodi:nodetypes="ccc" /><path
           style="fill:#4a4a4a;fill-opacity:1;fill-rule:evenodd;stroke:#4a4a4a;stroke-width:0.1;stroke-linecap:round;stroke-dasharray:none;stroke-opacity:1"
           d="m 78.231584,135.00692 c 0.328811,0.20038 0.634012,-0.27667 0.330729,-0.42995 -0.307165,-0.15111 -0.673977,0.19522 -0.330729,0.42995 z"
           id="path1624-9"
           sodipodi:nodetypes="ccc" /><path
           style="fill:#4a4a4a;fill-opacity:1;fill-rule:evenodd;stroke:#4a4a4a;stroke-width:0.1;stroke-linecap:round;stroke-dasharray:none;stroke-opacity:1"
           d="m 58.774362,145.48389 c 0.328811,0.20038 0.634012,-0.27667 0.330729,-0.42995 -0.307165,-0.15111 -0.673977,0.19522 -0.330729,0.42995 z"
           id="path1624-3"
           sodipodi:nodetypes="ccc" /><path
           style="fill:#4a4a4a;fill-opacity:1;fill-rule:evenodd;stroke:#4a4a4a;stroke-width:0.1;stroke-linecap:round;stroke-dasharray:none;stroke-opacity:1"
           d="m 67.193353,148.94503 c 0.328811,0.20038 0.634012,-0.27667 0.330729,-0.42995 -0.307165,-0.15111 -0.673977,0.19522 -0.330729,0.42995 z"
           id="path1624-68"
           sodipodi:nodetypes="ccc" /><path
           style="fill:#4a4a4a;fill-opacity:1;fill-rule:evenodd;stroke:#4a4a4a;stroke-width:0.1;stroke-linecap:round;stroke-dasharray:none;stroke-opacity:1"
           d="m 65.322466,128.13329 c 0.328811,-0.20038 0.634012,0.27667 0.330729,0.42995 -0.307165,0.15111 -0.673977,-0.19522 -0.330729,-0.42995 z"
           id="path1624-88"
           sodipodi:nodetypes="ccc" /><path
           style="fill:#4a4a4a;fill-opacity:1;fill-rule:evenodd;stroke:#4a4a4a;stroke-width:0.1;stroke-linecap:round;stroke-dasharray:none;stroke-opacity:1"
           d="m 76.734875,119.19793 c 0.328811,0.20038 0.634012,-0.27667 0.330729,-0.42995 -0.307165,-0.15111 -0.673977,0.19522 -0.330729,0.42995 z"
           id="path1624-49"
           sodipodi:nodetypes="ccc" /><path
           style="fill:#4a4a4a;fill-opacity:1;fill-rule:evenodd;stroke:#4a4a4a;stroke-width:0.1;stroke-linecap:round;stroke-dasharray:none;stroke-opacity:1"
           d="m 86.837663,119.62076 c 0.328811,-0.20038 0.634012,0.27667 0.330729,0.42995 -0.307165,0.15111 -0.673977,-0.19522 -0.330729,-0.42995 z"
           id="path1624-909"
           sodipodi:nodetypes="ccc" /><path
           style="fill:#4a4a4a;fill-opacity:1;fill-rule:evenodd;stroke:#4a4a4a;stroke-width:0.1;stroke-linecap:round;stroke-dasharray:none;stroke-opacity:1"
           d="m 80.008926,137.20709 c 0.328811,-0.20038 0.634012,0.27667 0.330729,0.42995 -0.307165,0.15111 -0.673977,-0.19522 -0.330729,-0.42995 z"
           id="path1624-0"
           sodipodi:nodetypes="ccc" /><path
           style="fill:#4a4a4a;fill-opacity:1;fill-rule:evenodd;stroke:#4a4a4a;stroke-width:0.1;stroke-linecap:round;stroke-dasharray:none;stroke-opacity:1"
           d="m 62.235503,142.16494 c 0.328811,-0.20038 0.634012,0.27667 0.330729,0.42995 -0.307165,0.15111 -0.673977,-0.19522 -0.330729,-0.42995 z"
           id="path1624-757"
           sodipodi:nodetypes="ccc" /><path
           style="fill:#4a4a4a;fill-opacity:1;fill-rule:evenodd;stroke:#4a4a4a;stroke-width:0.1;stroke-linecap:round;stroke-dasharray:none;stroke-opacity:1"
           d="m 73.086646,146.41933 c 0.328811,0.20038 0.634012,-0.27667 0.330729,-0.42995 -0.307165,-0.15111 -0.673977,0.19522 -0.330729,0.42995 z"
           id="path1624-06"
           sodipodi:nodetypes="ccc" /><path
           style="fill:#4a4a4a;fill-opacity:1;fill-rule:evenodd;stroke:#4a4a4a;stroke-width:0.1;stroke-linecap:round;stroke-dasharray:none;stroke-opacity:1"
           d="m 63.076848,137.63838 c 0.328811,-0.20038 0.634012,0.27667 0.330729,0.42995 -0.307165,0.15111 -0.673977,-0.19522 -0.330729,-0.42995 z"
           id="path1624-24"
           sodipodi:nodetypes="ccc" /></g><path
         style="fill:none;fill-rule:evenodd;stroke:#00004c;stroke-width:0.682;stroke-dasharray:none"
         d="m 136.69814,107.44023 c 11.96336,12.92394 -9.54338,21.74568 -16.68794,15.14002 -2.42326,-1.77442 -16.4556,-15.15701 -19.01108,-23.913684 -1.773702,-10.925091 8.93222,-15.090774 14.41088,-12.673033 10.12772,5.476761 8.91741,8.082683 21.28814,21.446697 z"
         id="path368-8"
         sodipodi:nodetypes="scccs" /><path
         style="fill:none;fill-rule:evenodd;stroke:#9c0000;stroke-width:0.649063;stroke-dasharray:none"
         d="m 135.53329,106.97614 c 2.08312,2.31349 3.44209,4.25025 3.86612,6.1806 0.69865,3.18051 -0.58357,5.83007 -2.81894,7.74454 -4.58738,3.92885 -13.19557,4.70254 -16.9291,0.67592 -2.29562,-1.70098 -15.59256,-14.52467 -18.02165,-22.907754 -1.691753,-10.457279 8.43597,-14.431008 13.62415,-12.110747 9.85315,5.292551 8.88223,7.75997 20.27942,20.417441 z"
         id="path368-2-5"
         sodipodi:nodetypes="ssscccs" /><path
         style="fill:#fcc0c0;fill-rule:evenodd;stroke:#c8b470;stroke-width:0.633941;stroke-dasharray:none"
         d="m 134.96059,107.04439 c 2.03276,2.26285 3.28132,4.17586 3.77315,6.04489 0.78478,2.98219 -0.52776,5.67607 -2.74789,7.57245 -4.55722,3.89267 -12.6304,4.24553 -16.17798,0.43832 -8.17632,-7.7225 -16.09809,-16.97514 -17.57343,-22.286905 -1.65313,-10.226392 7.87576,-14.010232 12.9376,-11.739915 9.61341,5.178093 8.66692,7.590651 19.78855,19.97116 z"
         id="path368-2-8-8"
         sodipodi:nodetypes="ssscccs" /><path
         style="fill:#4a4a4a;fill-opacity:1;fill-rule:evenodd;stroke:#4a4a4a;stroke-width:0.1;stroke-linecap:round;stroke-dasharray:none;stroke-opacity:1"
         d="m 111.43601,87.962946 c -0.34904,-0.162606 -0.59936,0.345387 -0.28092,0.464035 0.32205,0.116047 0.64812,-0.268889 0.28092,-0.464035 z"
         id="path1624-34-9"
         sodipodi:nodetypes="ccc" /><path
         style="fill:#4a4a4a;fill-opacity:1;fill-rule:evenodd;stroke:#4a4a4a;stroke-width:0.1;stroke-linecap:round;stroke-dasharray:none;stroke-opacity:1"
         d="m 111.76854,90.93784 c -0.34904,-0.162616 -0.59935,0.345387 -0.28092,0.464025 0.32205,0.116057 0.64812,-0.268879 0.28092,-0.464025 z"
         id="path1624-14-9"
         sodipodi:nodetypes="ccc" /><path
         style="fill:#4a4a4a;fill-opacity:1;fill-rule:evenodd;stroke:#4a4a4a;stroke-width:0.1;stroke-linecap:round;stroke-dasharray:none;stroke-opacity:1"
         d="m 117.36724,90.500271 c -0.34903,-0.162606 -0.59935,0.345388 -0.28091,0.464036 0.32205,0.116046 0.64811,-0.268889 0.28091,-0.464036 z"
         id="path1624-4-9"
         sodipodi:nodetypes="ccc" /><path
         style="fill:#4a4a4a;fill-opacity:1;fill-rule:evenodd;stroke:#4a4a4a;stroke-width:0.1;stroke-linecap:round;stroke-dasharray:none;stroke-opacity:1"
         d="m 105.0899,98.555634 c -0.34904,-0.162616 -0.59936,0.345387 -0.28092,0.464025 0.32205,0.116057 0.64812,-0.268879 0.28092,-0.464025 z"
         id="path1624-59-3"
         sodipodi:nodetypes="ccc" /><path
         style="fill:#4a4a4a;fill-opacity:1;fill-rule:evenodd;stroke:#4a4a4a;stroke-width:0.1;stroke-linecap:round;stroke-dasharray:none;stroke-opacity:1"
         d="m 107.27246,102.92389 c -0.34903,-0.16261 -0.59935,0.34539 -0.28092,0.46403 0.32205,0.11605 0.64812,-0.26889 0.28092,-0.46403 z"
         id="path1624-93-3"
         sodipodi:nodetypes="ccc" /><path
         style="fill:#4a4a4a;fill-opacity:1;fill-rule:evenodd;stroke:#4a4a4a;stroke-width:0.1;stroke-linecap:round;stroke-dasharray:none;stroke-opacity:1"
         d="m 123.45626,112.97487 c -0.34904,-0.16262 -0.59935,0.34538 -0.28092,0.46402 0.32205,0.11606 0.64812,-0.26888 0.28092,-0.46402 z"
         id="path1624-11-7"
         sodipodi:nodetypes="ccc" /><path
         style="fill:#4a4a4a;fill-opacity:1;fill-rule:evenodd;stroke:#4a4a4a;stroke-width:0.1;stroke-linecap:round;stroke-dasharray:none;stroke-opacity:1"
         d="m 110.30709,107.3362 c -0.30451,0.23566 -0.66082,-0.20454 -0.37644,-0.39055 0.28848,-0.18431 0.69149,0.11918 0.37644,0.39055 z"
         id="path1624-75-7"
         sodipodi:nodetypes="ccc" /><path
         style="fill:#4a4a4a;fill-opacity:1;fill-rule:evenodd;stroke:#4a4a4a;stroke-width:0.1;stroke-linecap:round;stroke-dasharray:none;stroke-opacity:1"
         d="m 133.65515,109.90334 c -0.30452,0.23567 -0.66083,-0.20452 -0.37645,-0.39055 0.28848,-0.18429 0.69149,0.11918 0.37645,0.39055 z"
         id="path1624-90-3"
         sodipodi:nodetypes="ccc" /><path
         style="fill:#4a4a4a;fill-opacity:1;fill-rule:evenodd;stroke:#4a4a4a;stroke-width:0.1;stroke-linecap:round;stroke-dasharray:none;stroke-opacity:1"
         d="m 106.4745,91.574775 c -0.30452,0.235658 -0.66082,-0.204532 -0.37645,-0.39055 0.28848,-0.184301 0.6915,0.119182 0.37645,0.39055 z"
         id="path1624-12-2"
         sodipodi:nodetypes="ccc" /><path
         style="fill:#4a4a4a;fill-opacity:1;fill-rule:evenodd;stroke:#4a4a4a;stroke-width:0.1;stroke-linecap:round;stroke-dasharray:none;stroke-opacity:1"
         d="m 108.1763,95.01033 c -0.34903,-0.162616 -0.59935,0.345387 -0.28092,0.464025 0.32205,0.116057 0.64812,-0.268879 0.28092,-0.464025 z"
         id="path1624-71-5"
         sodipodi:nodetypes="ccc" /><path
         style="fill:#9c0000;fill-opacity:1;fill-rule:evenodd;stroke:#9c0000;stroke-width:0.082;stroke-linecap:round;stroke-dasharray:none;stroke-opacity:1"
         d="m 101.11683,97.662466 c -0.96458,0.123021 -1.771208,-0.07244 -2.419879,-0.586467 -0.671316,-0.317422 -1.294426,-1.213274 -1.914965,-2.140158 -0.477768,-0.6124 -1.11608,-0.950309 -1.914935,-1.013738 -0.69319,0.173273 -0.997427,0.323723 -1.165252,0.46612 0.38247,-0.0981 0.71086,-0.244237 1.176907,-0.268035 0.743293,0.179762 1.242479,0.566087 1.650813,1.029284 0.656946,1.281405 1.024405,2.173152 1.880013,2.672311 0.780654,0.545871 1.693498,0.917797 2.963678,0.819517 z"
         id="path495-5-7"
         sodipodi:nodetypes="cccccccccc" /><path
         style="fill:#9c0000;fill-opacity:1;fill-rule:evenodd;stroke:#9c0000;stroke-width:0.082;stroke-linecap:round;stroke-dasharray:none;stroke-opacity:1"
         d="m 112.90204,85.750745 c 0.1014,-0.96709 0.47661,-1.707413 1.12563,-2.220986 0.46287,-0.580649 1.47772,-0.981788 2.52217,-1.373299 0.70563,-0.324654 1.18087,-0.868493 1.42577,-1.631537 -0.01,-0.714448 -0.0864,-1.045069 -0.18657,-1.241074 0.008,0.394786 0.0748,0.747928 -0.009,1.207018 -0.34537,0.682289 -0.83585,1.079603 -1.38033,1.370868 -1.39788,0.345674 -2.35013,0.498911 -3.03215,1.217294 -0.71029,0.634719 -1.28159,1.437987 -1.47713,2.696869 z"
         id="path495-6-6"
         sodipodi:nodetypes="cccccccccc" /><path
         style="fill:#9c0000;fill-opacity:1;fill-rule:evenodd;stroke:#9c0000;stroke-width:0.082;stroke-linecap:round;stroke-dasharray:none;stroke-opacity:1"
         d="m 131.79907,102.55932 c 0.87517,-0.42381 1.70204,-0.49547 2.48064,-0.2149 0.73745,0.0871 1.61346,0.73778 2.4969,1.41872 0.64796,0.42833 1.36065,0.54533 2.13811,0.351 0.60187,-0.38507 0.84235,-0.62457 0.95608,-0.813 -0.33128,0.21485 -0.59604,0.45794 -1.03023,0.62895 -0.76184,0.0663 -1.35808,-0.14089 -1.89268,-0.44987 -1.03088,-1.0054 -1.66324,-1.73366 -2.63329,-1.93429 -0.91385,-0.26879 -1.89762,-0.33058 -3.07034,0.16717 z"
         id="path495-59-8"
         sodipodi:nodetypes="cccccccccc" /><path
         style="fill:#9c0000;fill-opacity:1;fill-rule:evenodd;stroke:#9c0000;stroke-width:0.082;stroke-linecap:round;stroke-dasharray:none;stroke-opacity:1"
         d="m 138.86571,118.7945 c 0.94671,0.22198 1.63412,0.68707 2.0622,1.39539 0.51801,0.53207 0.78865,1.58922 1.04603,2.67454 0.23356,0.74078 0.71348,1.28049 1.43977,1.61918 0.71004,0.08 1.04766,0.0453 1.25468,-0.0294 -0.39264,-0.0417 -0.75138,-0.0199 -1.19635,-0.16028 -0.63357,-0.42824 -0.96623,-0.96468 -1.18687,-1.54141 -0.16762,-1.4302 -0.20013,-2.39414 -0.82728,-3.16091 -0.54058,-0.78431 -1.26583,-1.45188 -2.49023,-1.8038 z"
         id="path495-54-6"
         sodipodi:nodetypes="cccccccccc" /><path
         style="fill:#9c0000;fill-opacity:1;fill-rule:evenodd;stroke:#9c0000;stroke-width:0.082;stroke-linecap:round;stroke-dasharray:none;stroke-opacity:1"
         d="m 117.71306,120.06663 c -0.55261,0.80011 -1.23676,1.26998 -2.05253,1.40957 -0.68457,0.28772 -1.7675,0.15329 -2.87182,-0.004 -0.77489,-0.0533 -1.45268,0.19609 -2.03336,0.7484 -0.33391,0.6317 -0.42512,0.9586 -0.4312,1.1786 0.18236,-0.35021 0.29291,-0.69222 0.58642,-1.055 0.63018,-0.43323 1.25108,-0.5468 1.86855,-0.54143 1.39252,0.36673 2.30166,0.68873 3.24459,0.3852 0.92763,-0.21655 1.81407,-0.64764 2.58913,-1.65871 z"
         id="path495-9-7"
         sodipodi:nodetypes="cccccccccc" /><path
         style="fill:#9c0000;fill-opacity:1;fill-rule:evenodd;stroke:#9c0000;stroke-width:0.082;stroke-linecap:round;stroke-dasharray:none;stroke-opacity:1"
         d="m 123.47534,92.136783 c 0.69108,-0.684073 1.03402,-1.439884 1.02873,-2.267483 0.1635,-0.72436 -0.15833,-1.767068 -0.50619,-2.826858 -0.18809,-0.753607 -0.061,-1.464578 0.3811,-2.132932 0.56354,-0.439276 0.86945,-0.586269 1.085,-0.63075 -0.31291,0.240813 -0.6303,0.409497 -0.93615,0.761955 -0.31629,0.69625 -0.31948,1.327451 -0.20615,1.93445 0.6047,1.306878 1.08079,2.145656 0.94692,3.127139 -0.051,0.951214 -0.32027,1.8994 -1.18016,2.839409 z"
         id="path495-1-1"
         sodipodi:nodetypes="cccccccccc" /><path
         style="fill:#9c0000;fill-opacity:1;fill-rule:evenodd;stroke:#9c0000;stroke-width:0.082;stroke-linecap:round;stroke-dasharray:none;stroke-opacity:1"
         d="m 103.62628,89.360569 c -0.66974,-0.704972 -1.41834,-1.063348 -2.24588,-1.075049 -0.72085,-0.178337 -1.769953,0.12197 -2.836663,0.448049 -0.757306,0.172587 -1.465523,0.03095 -2.124667,-0.424765 -0.42762,-0.572436 -0.5683,-0.881308 -0.608349,-1.097724 0.234347,0.317791 0.396482,0.63858 0.742593,0.951582 0.689606,0.330516 1.320608,0.346676 1.92981,0.245819 1.319005,-0.577745 2.167396,-1.036511 3.145926,-0.882518 0.94996,0.07042 1.89242,0.359202 2.81458,1.238195 z"
         id="path495-7-8"
         sodipodi:nodetypes="cccccccccc" /><path
         style="fill:#9c0000;fill-opacity:1;fill-rule:evenodd;stroke:#9c0000;stroke-width:0.082;stroke-linecap:round;stroke-dasharray:none;stroke-opacity:1"
         d="m 105.17357,106.24362 c -0.88397,0.40513 -1.46562,0.99719 -1.74488,1.77627 -0.40233,0.62415 -0.45818,1.71397 -0.49544,2.82876 -0.0822,0.77238 -0.44565,1.39647 -1.09045,1.87233 -0.68012,0.21902 -1.01791,0.25201 -1.23563,0.21972 0.37659,-0.11867 0.7326,-0.16813 1.14089,-0.39412 0.53616,-0.54526 0.75594,-1.13699 0.85797,-1.746 -0.1191,-1.43505 -0.27816,-2.38632 0.18464,-3.26214 0.3745,-0.87586 0.95311,-1.67387 2.08353,-2.26139 z"
         id="path495-55-49"
         sodipodi:nodetypes="cccccccccc" /><path
         style="fill:#9c0000;fill-opacity:1;fill-rule:evenodd;stroke:#9c0000;stroke-width:0.082;stroke-linecap:round;stroke-dasharray:none;stroke-opacity:1"
         d="m 126.53707,124.45049 c 0.19076,0.9535 0.0527,1.7719 -0.41419,2.45524 -0.26924,0.69205 -1.11888,1.37685 -1.99964,2.06127 -0.57715,0.5198 -0.86915,1.18037 -0.87604,1.9817 0.22181,0.67923 0.39333,0.9721 0.54725,1.12943 -0.12493,-0.37455 -0.29382,-0.69184 -0.35045,-1.15506 0.12684,-0.75411 0.47697,-1.27932 0.91019,-1.71934 1.23183,-0.74576 2.09541,-1.17524 2.53293,-2.06396 0.48939,-0.81724 0.79597,-1.75405 0.60827,-3.01414 z"
         id="path495-55-4-7"
         sodipodi:nodetypes="cccccccccc" /><path
         style="fill:#9c0000;fill-opacity:1;fill-rule:evenodd;stroke:#9c0000;stroke-width:0.082;stroke-linecap:round;stroke-dasharray:none;stroke-opacity:1"
         d="m 139.40075,112.85602 c 0.92303,-0.30591 1.56599,-0.83072 1.92887,-1.57455 0.46824,-0.57635 0.64305,-1.65351 0.80216,-2.75752 0.16623,-0.75874 0.59586,-1.33928 1.28886,-1.74168 0.70003,-0.14325 1.0394,-0.13903 1.25228,-0.0831 -0.38734,0.0767 -0.74666,0.0865 -1.17718,0.26685 -0.59265,0.48329 -0.87588,1.04739 -1.04398,1.64157 -0.0387,1.43947 0.0152,2.40244 -0.54067,3.22231 -0.46814,0.8296 -1.13065,1.55948 -2.31858,2.01971 z"
         id="path495-55-5-3"
         sodipodi:nodetypes="cccccccccc" /><path
         style="fill:#9c0000;fill-opacity:1;fill-rule:evenodd;stroke:#9c0000;stroke-width:0.0633047;stroke-linecap:round;stroke-dasharray:none;stroke-opacity:1"
         d="m 127.17139,96.447598 c 0.36872,-0.631577 0.88123,-1.044349 1.5376,-1.238314 0.53248,-0.28368 1.43821,-0.31447 2.36398,-0.33166 0.64349,-0.0524 1.17448,-0.308197 1.59299,-0.76735 0.20683,-0.486702 0.24672,-0.729083 0.22803,-0.885779 -0.11234,0.269535 -0.16662,0.524847 -0.36914,0.816225 -0.47202,0.380526 -0.97082,0.53333 -1.47959,0.601427 -1.18552,-0.09784 -1.96842,-0.220225 -2.7118,0.104728 -0.74016,0.261545 -1.03259,0.593436 -1.56169,1.400475 z"
         id="path495-55-2-1"
         sodipodi:nodetypes="cccccccccc" /><path
         style="fill:#9c0000;fill-opacity:1;fill-rule:evenodd;stroke:#9c0000;stroke-width:0.0633047;stroke-linecap:round;stroke-dasharray:none;stroke-opacity:1"
         d="m 110.17498,112.53769 c -0.7244,0.10039 -1.30126,0.41709 -1.73059,0.9501 -0.46509,0.38431 -0.83852,1.21006 -1.207,2.05952 -0.29353,0.57503 -0.73228,0.96858 -1.31621,1.18067 -0.5288,0.006 -0.7681,-0.0496 -0.90587,-0.12649 0.292,-0.001 0.54875,0.0458 0.8953,-0.0304 0.53161,-0.29153 0.86288,-0.69454 1.1196,-1.13904 0.36107,-1.13343 0.54606,-1.90393 1.12964,-2.46753 0.52373,-0.58478 0.94198,-0.72877 1.88971,-0.91063 z"
         id="path495-55-2-5-0"
         sodipodi:nodetypes="cccccccccc" /><path
         style="fill:#9c0000;fill-opacity:1;fill-rule:evenodd;stroke:#9c0000;stroke-width:0.0819999;stroke-linecap:round;stroke-dasharray:none;stroke-opacity:1"
         d="m 135.69367,121.8568 0.838,-0.79194 c 2.34909,1.46489 1.50291,0.81826 3.05772,1.8842 4.72386,4.21763 5.05109,7.7097 4.90962,11.12445 -0.40687,3.7351 -2.2067,6.80899 -4.86692,9.4744 -1.84658,2.02633 -4.11164,3.40835 -4.84002,7.15634 0.0871,2.38427 0.904,5.97415 -0.0406,7.79254 -0.68517,2.72039 -3.66028,4.13802 -6.7074,4.65534 -1.22941,0.0796 -4.40153,0.56443 -5.83211,1.07072 1.65003,-1.08468 3.77456,-1.42997 5.74178,-2.02038 4.41292,-0.78527 5.90126,-3.6726 6.12475,-4.96849 0.50225,-2.33322 -0.77617,-5.32316 -0.0329,-7.90264 0.91659,-2.52841 2.31629,-4.65761 4.21341,-6.37582 3.02673,-2.97818 5.35196,-6.21728 4.98447,-10.45798 -0.55277,-4.21232 -2.2676,-7.22887 -5.40257,-9.00717 -0.61461,-0.29919 -1.52238,-0.99147 -2.14718,-1.63357 z"
         id="path1402-2"
         sodipodi:nodetypes="cccccccccccccccc" /><path
         style="fill:none;fill-opacity:1;fill-rule:evenodd;stroke:#535353;stroke-width:0.481999;stroke-linecap:round;stroke-dasharray:none;stroke-opacity:1"
         d="m 126.61811,117.46088 c -0.22663,-0.54376 -0.92353,-0.85621 -1.63349,-1.98232 -1.18508,-0.72679 -1.19254,-0.31082 -2.05071,-0.24141 -1.5492,0.6661 -2.40381,0.7821 -1.55359,1.67969 0.67999,0.72942 1.54817,-0.35472 2.29324,-0.11515 0.9084,0.72368 -0.6021,2.32718 0.16168,2.28804 1.1348,0.37707 1.02286,-0.0506 1.63181,-0.55891 0.48052,-0.25107 1.69001,-0.005 1.15106,-1.06994 z"
         id="path1568-3"
         sodipodi:nodetypes="cccccccc" /><path
         style="fill:#4a4a4a;fill-opacity:1;fill-rule:evenodd;stroke:#4a4a4a;stroke-width:0.1;stroke-linecap:round;stroke-dasharray:none;stroke-opacity:1"
         d="m 135.24702,113.28311 c -0.34904,-0.1626 -0.59936,0.34539 -0.28093,0.46404 0.32205,0.11604 0.64813,-0.26889 0.28093,-0.46404 z"
         id="path1624-718"
         sodipodi:nodetypes="ccc" /><path
         style="fill:#4a4a4a;fill-opacity:1;fill-rule:evenodd;stroke:#4a4a4a;stroke-width:0.1;stroke-linecap:round;stroke-dasharray:none;stroke-opacity:1"
         d="m 131.58972,118.37221 c -0.34903,-0.16261 -0.59934,0.34539 -0.28091,0.46403 0.32205,0.11606 0.64812,-0.26888 0.28091,-0.46403 z"
         id="path1624-2-9"
         sodipodi:nodetypes="ccc" /><path
         style="fill:#4a4a4a;fill-opacity:1;fill-rule:evenodd;stroke:#4a4a4a;stroke-width:0.1;stroke-linecap:round;stroke-dasharray:none;stroke-opacity:1"
         d="m 129.48913,105.47443 c -0.30451,0.23566 -0.66082,-0.20454 -0.37644,-0.39055 0.28848,-0.1843 0.69149,0.11918 0.37644,0.39055 z"
         id="path1624-1-3"
         sodipodi:nodetypes="ccc" /><path
         style="fill:#4a4a4a;fill-opacity:1;fill-rule:evenodd;stroke:#4a4a4a;stroke-width:0.1;stroke-linecap:round;stroke-dasharray:none;stroke-opacity:1"
         d="m 117.08322,114.06375 c -0.34903,-0.16261 -0.59936,0.34539 -0.28092,0.46403 0.32205,0.11605 0.64811,-0.26888 0.28092,-0.46403 z"
         id="path1624-7-7"
         sodipodi:nodetypes="ccc" /><path
         style="fill:#4a4a4a;fill-opacity:1;fill-rule:evenodd;stroke:#4a4a4a;stroke-width:0.1;stroke-linecap:round;stroke-dasharray:none;stroke-opacity:1"
         d="m 128.49232,113.39838 c -0.30451,0.23566 -0.66082,-0.20453 -0.37644,-0.39055 0.28848,-0.1843 0.69149,0.11919 0.37644,0.39055 z"
         id="path1624-15-4"
         sodipodi:nodetypes="ccc" /><path
         style="fill:#4a4a4a;fill-opacity:1;fill-rule:evenodd;stroke:#4a4a4a;stroke-width:0.1;stroke-linecap:round;stroke-dasharray:none;stroke-opacity:1"
         d="m 118.86787,94.662358 c -0.34903,-0.162606 -0.59934,0.345398 -0.28091,0.464036 0.32205,0.116046 0.64812,-0.268889 0.28091,-0.464036 z"
         id="path1624-8-8"
         sodipodi:nodetypes="ccc" /><path
         style="fill:#4a4a4a;fill-opacity:1;fill-rule:evenodd;stroke:#4a4a4a;stroke-width:0.1;stroke-linecap:round;stroke-dasharray:none;stroke-opacity:1"
         d="m 124.1478,96.425354 c -0.34904,-0.162617 -0.59936,0.345387 -0.28093,0.464025 0.32205,0.116056 0.64812,-0.268879 0.28093,-0.464025 z"
         id="path1624-5-0"
         sodipodi:nodetypes="ccc" /><path
         style="fill:#4a4a4a;fill-opacity:1;fill-rule:evenodd;stroke:#4a4a4a;stroke-width:0.1;stroke-linecap:round;stroke-dasharray:none;stroke-opacity:1"
         d="m 109.43588,102.06835 c -0.30452,0.23567 -0.66083,-0.20453 -0.37645,-0.39055 0.28848,-0.1843 0.69149,0.11918 0.37645,0.39055 z"
         id="path1624-6-4"
         sodipodi:nodetypes="ccc" /><path
         style="fill:#4a4a4a;fill-opacity:1;fill-rule:evenodd;stroke:#4a4a4a;stroke-width:0.1;stroke-linecap:round;stroke-dasharray:none;stroke-opacity:1"
         d="m 114.90508,108.89303 c -0.30452,0.23567 -0.66083,-0.20452 -0.37644,-0.39055 0.28847,-0.18429 0.69149,0.11918 0.37644,0.39055 z"
         id="path1624-9-0"
         sodipodi:nodetypes="ccc" /><path
         style="fill:#4a4a4a;fill-opacity:1;fill-rule:evenodd;stroke:#4a4a4a;stroke-width:0.1;stroke-linecap:round;stroke-dasharray:none;stroke-opacity:1"
         d="m 135.40573,117.1437 c -0.30451,0.23566 -0.66081,-0.20453 -0.37644,-0.39055 0.28847,-0.1843 0.69149,0.11918 0.37644,0.39055 z"
         id="path1624-3-5"
         sodipodi:nodetypes="ccc" /><path
         style="fill:#4a4a4a;fill-opacity:1;fill-rule:evenodd;stroke:#4a4a4a;stroke-width:0.1;stroke-linecap:round;stroke-dasharray:none;stroke-opacity:1"
         d="m 127.42334,121.51866 c -0.30452,0.23567 -0.66082,-0.20452 -0.37644,-0.39055 0.28847,-0.18429 0.69149,0.11918 0.37644,0.39055 z"
         id="path1624-68-7"
         sodipodi:nodetypes="ccc" /><path
         style="fill:#4a4a4a;fill-opacity:1;fill-rule:evenodd;stroke:#4a4a4a;stroke-width:0.1;stroke-linecap:round;stroke-dasharray:none;stroke-opacity:1"
         d="m 126.97072,100.6279 c -0.34903,-0.16261 -0.59935,0.34539 -0.28092,0.46403 0.32205,0.11606 0.64813,-0.26888 0.28092,-0.46403 z"
         id="path1624-88-0"
         sodipodi:nodetypes="ccc" /><path
         style="fill:#4a4a4a;fill-opacity:1;fill-rule:evenodd;stroke:#4a4a4a;stroke-width:0.1;stroke-linecap:round;stroke-dasharray:none;stroke-opacity:1"
         d="m 114.63634,93.015621 c -0.30451,0.235668 -0.66081,-0.204532 -0.37644,-0.39055 0.28848,-0.184301 0.6915,0.119182 0.37644,0.39055 z"
         id="path1624-49-0"
         sodipodi:nodetypes="ccc" /><path
         style="fill:#4a4a4a;fill-opacity:1;fill-rule:evenodd;stroke:#4a4a4a;stroke-width:0.1;stroke-linecap:round;stroke-dasharray:none;stroke-opacity:1"
         d="m 104.64306,94.55813 c -0.34904,-0.162616 -0.59936,0.345387 -0.28092,0.464025 0.32205,0.116057 0.64812,-0.268879 0.28092,-0.464025 z"
         id="path1624-909-5"
         sodipodi:nodetypes="ccc" /><path
         style="fill:#4a4a4a;fill-opacity:1;fill-rule:evenodd;stroke:#4a4a4a;stroke-width:0.1;stroke-linecap:round;stroke-dasharray:none;stroke-opacity:1"
         d="m 113.38315,111.27702 c -0.34903,-0.16262 -0.59935,0.34539 -0.28091,0.46403 0.32204,0.11605 0.64811,-0.26888 0.28091,-0.46403 z"
         id="path1624-0-6"
         sodipodi:nodetypes="ccc" /><path
         style="fill:#4a4a4a;fill-opacity:1;fill-rule:evenodd;stroke:#4a4a4a;stroke-width:0.1;stroke-linecap:round;stroke-dasharray:none;stroke-opacity:1"
         d="m 131.59732,114.22978 c -0.34903,-0.16262 -0.59935,0.34539 -0.28091,0.46403 0.32205,0.11605 0.64811,-0.26888 0.28091,-0.46403 z"
         id="path1624-757-7"
         sodipodi:nodetypes="ccc" /><path
         style="fill:#4a4a4a;fill-opacity:1;fill-rule:evenodd;stroke:#4a4a4a;stroke-width:0.1;stroke-linecap:round;stroke-dasharray:none;stroke-opacity:1"
         d="m 121.28595,119.66327 c -0.30452,0.23566 -0.66082,-0.20454 -0.37645,-0.39055 0.28848,-0.1843 0.69149,0.11918 0.37645,0.39055 z"
         id="path1624-06-8"
         sodipodi:nodetypes="ccc" /><path
         style="fill:#4a4a4a;fill-opacity:1;fill-rule:evenodd;stroke:#4a4a4a;stroke-width:0.1;stroke-linecap:round;stroke-dasharray:none;stroke-opacity:1"
         d="m 130.25834,109.8247 c -0.34904,-0.16261 -0.59935,0.34538 -0.28092,0.46403 0.32206,0.11605 0.64812,-0.26889 0.28092,-0.46403 z"
         id="path1624-24-0"
         sodipodi:nodetypes="ccc" /><g
         id="g2413"
         transform="matrix(-0.03314006,0.99945072,0.99945072,0.03314006,-109.38777,-13.805007)"><path
           style="fill:none;fill-rule:evenodd;stroke:#000030;stroke-width:0.582;stroke-dasharray:none"
           d="m 105.51457,229.53854 c -0.66864,0.33805 -1.06181,0.44106 -1.44861,0.32987 -1.01966,-0.76494 -0.80886,-1.19209 -1.07188,-1.74931 l -0.0433,-1.07895 c -0.35957,-0.71685 -0.69655,-1.01477 -1.03562,-1.35135 -0.44665,-1.20678 0.19513,-1.69482 0.99936,-1.52026 l 1.88197,0.56516 c 1.41023,0.10136 1.90487,-0.4239 2.85567,-0.33164 1.86514,0.49282 1.62168,1.63916 2.02258,2.34982 1.20321,3.64123 0.41309,3.6623 0.12838,3.87628 -0.81327,0.42251 -1.06147,0.52773 -1.72736,0.53503 -1.2185,0.0212 -1.22632,0.24432 -1.26466,0.71988 -0.0405,0.50177 0.30264,0.71076 0.4413,1.0427 0.17784,0.42573 0.91317,1.03307 2.05619,1.87401 1.10092,0.54926 1.77826,0.61055 2.29232,0.48376 1.07285,-0.006 1.75192,-0.17459 2.42941,-0.54566 1.13048,-0.43957 1.46854,-0.78955 1.96688,-1.15765 0.57833,-0.36641 0.76475,-0.99504 0.68805,-1.79973 -0.28874,-1.00678 -0.71827,-0.69635 -1.07365,-0.68274 -0.17062,0.10736 -0.35853,0.12765 -0.45633,0.60227 -0.10265,0.81116 0.61231,1.68007 1.09928,2.53287 0.13999,1.43378 -0.82116,1.45151 -1.2125,1.41325 -2.03025,-0.53991 -1.74246,-0.70987 -2.17558,-1.61578 -0.37173,-1.42438 0.1798,-2.32069 -0.53592,-3.34828 -1.40505,-1.39278 -2.54484,-1.15961 -2.97596,-1.35046 -0.70526,-0.13398 -1.47877,-0.16591 -2.61778,0.34844 -1.29552,0.82093 -1.29437,1.32565 -1.38141,1.8519 -0.003,1.05683 0.10689,2.00122 0.80832,2.356 0.69778,0.643 1.34928,1.31234 1.74401,2.12784 0.42909,1.36021 1.01918,2.50872 1.89434,2.99364 1.02381,0.23191 1.67043,0.0688 2.19504,-0.22198 0.5765,-0.48844 0.8872,-1.04984 0.26945,-1.86609 -1.01183,-1.18056 -1.05534,-1.58956 -1.37874,-2.22156 -0.22491,-1.08545 -0.91545,-1.65219 -1.48931,-2.34894 -0.7578,-0.58784 -1.05872,0.21835 -1.40794,0.53505 -0.13682,0.37921 -0.4598,0.34875 -0.22778,1.538 0.32244,1.00453 0.83589,1.31319 1.4212,1.36018 1.43558,0.41742 2.19027,0.22345 3.02725,0.10348 1.22098,0.0936 1.72517,0.90161 2.25341,1.68565 l 0.83662,2.60628 c 0.46554,0.87315 1.00398,0.71396 1.55827,0.33081 0.20698,-0.59385 0.46706,-0.98295 -0.11586,-1.87489 -0.41667,-1.11046 0.21892,-1.44925 0.75793,-1.87754 1.00987,-0.55037 1.43503,-2.21348 0.83516,-2.79261 -0.22105,-0.17726 -0.48448,-0.48366 -0.6399,-0.66714 -0.62279,-0.73521 -0.9879,-0.85758 -1.42388,-0.99526 -0.1039,-0.0327 -0.47382,0.051 -0.73855,0.14361 -0.62594,0.21898 -1.3069,0.29382 -1.49783,-0.57975 -0.12582,-0.80082 -0.61614,-3.02056 -0.96845,-3.16473 -0.49798,-0.60176 -1.75249,-0.76645 -2.38253,-0.50853 -1.29765,0.60448 -2.65878,0.66217 -3.72592,0.67477 -1.58119,-0.29068 -1.6007,-0.891 -2.19239,-1.37787 -0.35873,-0.6077 -0.4201,-1.2564 0.1592,-1.9934 0.91546,-0.45757 1.25524,0.17311 1.65204,0.69601 0.58131,1.81761 -0.52009,2.9971 -1.06392,3.34555 z"
           id="path2261-3"
           sodipodi:nodetypes="cccccccccccsscccccccccccccccccccccccccccccccsssccccccccc" /><path
           style="fill:none;fill-rule:evenodd;stroke:#fc5050;stroke-width:0.382;stroke-linecap:round;stroke-dasharray:none"
           d="m 106.03497,229.11036 c -0.28196,0.35702 -0.80671,0.63025 -1.32544,0.76794 -0.68413,0.12661 -0.9412,-0.20988 -1.15223,-0.48774 -0.24006,-0.29947 -0.43966,-0.67821 -0.52592,-1.20757 l -0.0619,-1.14877 c -0.31016,-0.46609 -0.52724,-0.76865 -0.71477,-1.01934 -0.67126,-0.61868 -0.41673,-0.98323 -0.46465,-1.43081 0.56541,-0.73619 0.9522,-0.3459 1.40455,-0.36895 1.03595,0.43304 1.37285,0.47237 1.80041,0.56278 0.98019,-0.0175 1.03999,-0.14954 1.94986,-0.35646 1.15008,-0.10747 1.32272,0.24605 1.79477,0.45837 0.46389,0.53425 0.78914,1.14741 0.92801,1.86667 0.47963,1.30708 0.52816,1.8291 0.60051,2.29504"
           id="path3097-4"
           sodipodi:nodetypes="ccccccccccccc" /><path
           style="fill:none;fill-rule:evenodd;stroke:#fc5050;stroke-width:0.382;stroke-linecap:round;stroke-dasharray:none"
           d="m 110.27106,230.04562 c -0.0716,0.39986 -0.39663,0.59982 -0.6303,0.67192 -0.82068,0.45325 -1.06381,0.40518 -1.43082,0.46463 -0.51997,-0.0627 -0.83384,0.0126 -1.12563,0.10255 -0.26007,0.24871 -0.35497,0.57913 -0.26684,0.89917 0.56665,0.96398 0.39009,0.72256 0.56219,0.99338"
           id="path3153-0"
           sodipodi:nodetypes="cccccc" /><path
           style="fill:none;fill-rule:evenodd;stroke:#fc5050;stroke-width:0.382;stroke-linecap:round;stroke-dasharray:none"
           d="m 108.163,233.8929 c 1.11121,1.06534 1.66417,1.2458 2.48215,1.42171"
           id="path3155-6"
           sodipodi:nodetypes="cc" /><path
           style="fill:none;fill-rule:evenodd;stroke:#fc5050;stroke-width:0.382;stroke-linecap:round;stroke-dasharray:none"
           d="m 111.68447,235.27096 c 0.66864,0.0265 0.95147,0.002 1.29292,-0.10686"
           id="path3157-0"
           sodipodi:nodetypes="cc" /><path
           style="fill:none;fill-rule:evenodd;stroke:#fc5050;stroke-width:0.382;stroke-linecap:round;stroke-dasharray:none"
           d="m 113.88992,234.78792 c 0.57615,-0.26909 0.78989,-0.23623 1.66105,-0.83395"
           id="path3159-4"
           sodipodi:nodetypes="cc" /><path
           style="fill:none;fill-rule:evenodd;stroke:#00a8f0;stroke-width:0.382;stroke-dasharray:none"
           d="M 116.26701,233.56541 Z"
           id="path3161-0" /><path
           style="fill:none;fill-rule:evenodd;stroke:#fc5050;stroke-width:0.382;stroke-linecap:round;stroke-dasharray:none"
           d="m 116.29422,233.35272 c 0.17817,-0.21989 0.17351,-0.29927 0.23179,-0.41514"
           id="path3163-5"
           sodipodi:nodetypes="cc" /><path
           style="fill:none;fill-rule:evenodd;stroke:#fc5050;stroke-width:0.382;stroke-linecap:round;stroke-dasharray:none"
           d="m 116.71107,231.92883 c -0.0617,-0.3569 -0.153,-0.49348 -0.25894,-0.6619 -0.41956,-0.34191 -0.73284,-0.15026 -0.82798,-0.10726 -0.44812,0.12631 -0.49672,0.49551 -0.39898,0.95367 0.0381,0.40812 0.26057,0.92003 0.61535,1.50648 0.30792,0.28432 0.52605,0.66866 0.4415,1.39016 -0.19837,0.23524 -0.25586,0.48044 -0.87426,0.686 -0.75504,-0.0396 -1.06382,-0.22721 -1.54835,-0.35649 -0.71842,-0.41704 -0.61806,-0.69172 -0.93803,-1.08061 -0.12479,-0.47293 -0.10415,-0.81484 -0.26077,-1.9236 0.13196,-0.76402 -0.0648,-1.09409 -0.20637,-1.49709 -0.73318,-0.86109 -1.20502,-0.93376 -1.75286,-1.2357 -0.58999,-0.11924 -1.15785,-0.24287 -1.93421,-0.3252 -1.2541,-0.0374 -1.04127,0.10607 -1.84544,0.35081 -1.22661,0.73253 -0.90746,0.756 -1.39141,1.19568 -0.16231,0.68711 -0.17458,1.41539 -0.0819,2.17248 0.28445,0.65384 1.27305,1.24291 1.45332,1.70223 0.92102,0.91638 1.07039,1.4605 1.35951,2.29379 0.59104,1.07374 0.58671,1.06173 0.86487,1.4721 0.40871,0.50305 1.21362,0.76696 1.9192,0.62971 0.98162,-0.17311 1.12087,-0.46799 1.43707,-0.73727 0.1026,-0.29194 0.18295,-0.58999 0.11753,-0.92804 -0.2328,-0.33828 -0.45283,-0.62455 -0.76839,-0.98556"
           id="path3165-6"
           sodipodi:nodetypes="ccccccccccccccccccccccc" /><path
           style="fill:none;fill-rule:evenodd;stroke:#fc5050;stroke-width:0.382;stroke-linecap:round;stroke-dasharray:none"
           d="m 111.32979,235.57286 c -0.1603,-0.35861 -0.24072,-0.17216 -0.44521,-1.01565 -0.13624,-0.59051 -0.42295,-0.81236 -0.61589,-1.21805 l -0.99596,-1.14086 c -0.47655,-0.15552 -0.68291,0.12157 -0.94549,0.2691 -0.36288,0.49302 -0.42301,0.69687 -0.5353,0.95055 -0.10528,0.32983 -0.19895,0.6605 0.007,1.0123 0.2362,0.85973 0.52931,0.91402 0.80732,1.18194 1.13373,0.37499 1.41415,0.34007 1.97174,0.43839 0.70926,-0.0111 1.36752,-0.0362 1.72035,-0.14509 0.69904,-0.0479 1.29001,0.55245 1.57474,0.90656 0.83514,0.96705 0.70824,1.27878 0.89791,1.83 0.35388,1.25255 0.46444,1.27774 0.67287,1.79666 0.48074,0.46718 0.46185,0.4506 0.972,0.31701 0.48825,-0.16654 0.57457,-0.66292 0.73024,-1.03594 -0.0199,-0.44105 -0.53443,-1.2202 -0.49716,-1.79691 0.0456,-0.7523 0.59854,-0.88496 1.02027,-1.28041 0.55521,-0.30399 0.74803,-0.97797 0.87236,-1.30387 0.29409,-1.15026 -0.16463,-1.36333 -0.55844,-1.71378 -1.38488,-1.73556 -1.92311,-1.28071 -2.2374,-1.2014"
           id="path3167-8"
           sodipodi:nodetypes="cccccccccccccccccccc" /><path
           style="fill:none;fill-rule:evenodd;stroke:#fc5050;stroke-width:0.382;stroke-linecap:round;stroke-dasharray:none"
           d="m 114.78418,232.59103 c -0.63445,-0.0915 -0.66665,-0.49776 -0.74853,-0.82457 -0.16753,-0.4157 -0.24642,-1.45404 -0.65668,-2.51842 -0.2556,-0.92217 -1.03695,-1.09193 -1.48311,-1.13467 -0.58913,-0.1274 -0.95842,0.0319 -1.25959,0.12712"
           id="path3169-5"
           sodipodi:nodetypes="ccccc" /><path
           style="fill:none;fill-rule:evenodd;stroke:#fc5050;stroke-width:0.382;stroke-linecap:round;stroke-dasharray:none"
           d="m 109.67905,228.55472 c -0.75884,0.16209 -1.08103,0.2172 -1.4466,0.25257 -0.31384,0.0304 -0.73117,0.0641 -1.05745,0.0715 -0.88366,-0.0816 -1.18363,-0.32285 -1.58658,-0.58104 -0.53097,-0.46911 -0.84477,-0.8786 -1.01526,-1.24876 -0.22504,-0.94089 0.12382,-1.18944 0.35946,-1.57466 0.65515,-0.44078 1.17772,0.0361 1.29385,0.23392 0.47247,0.461 0.46005,0.73808 0.566,1.29519 -0.0149,0.49709 -0.0415,0.76807 -0.23668,1.21569"
           id="path3171-3"
           sodipodi:nodetypes="csccccccc" /></g></g></g></svg>
