<svg width="626.617" height="588.167" viewBox="0 0 165.792 155.619" xml:space="preserve" xmlns="http://www.w3.org/2000/svg"><path style="fill:#fff;fill-rule:evenodd;stroke:#000;stroke-width:.40503;stroke-dasharray:none;fill-opacity:1" d="M41.832 183.772c13.427-3.562 30.801-1.019 39.12 17.938 5.136 2.468 3.403 7.863-.161 9.19-12.617 25.599-34.65 19.63-40.889 16.91-24.267-11.6-23.98-33.707 1.93-44.038z" transform="matrix(1.46878 0 0 1.53105 -32.374 -228.705)"/><path style="fill:#fff;fill-opacity:1;fill-rule:evenodd;stroke:#000;stroke-width:.382;stroke-dasharray:none;stroke-opacity:1" d="M42.328 185.23c12.784-3.324 29.328-.944 37.253 16.767 4.891 2.307 3.242 7.346-.151 8.585-12.007 23.912-32.988 18.331-38.93 15.788-23.108-10.84-22.84-31.494 1.828-41.14z" transform="matrix(1.46878 0 0 1.53105 -32.374 -228.705)"/><path style="fill:#fff;fill-opacity:1;stroke:#000;stroke-width:.159466;stroke-dasharray:none" d="M60.426 225.151c.01-.406 1.174-.752 1.323.026-.012.786-1.431.332-1.323-.026zM73.615 197.65c.011-.407 1.175-.753 1.324.025-.012.785-1.432.332-1.324-.026zM67.816 210.465c.01-.406 1.174-.753 1.323.025-.012.786-1.431.332-1.323-.025zM62.67 216.545c.011-.406 1.175-.752 1.324.026-.012.785-1.431.332-1.323-.026zM72.586 200.362c.011-.406 1.175-.753 1.324.025-.012.786-1.432.332-1.324-.025zM63.326 197.93c.01-.406 1.174-.753 1.323.025-.012.786-1.432.332-1.323-.025zM55.094 185.489c.01-.406 1.174-.753 1.323.025-.012.786-1.431.332-1.323-.025zM67.629 191.475c.01-.405 1.174-.752 1.323.026-.012.786-1.432.332-1.323-.026z" transform="matrix(1.46878 0 0 1.53105 -32.374 -228.705)"/><g style="fill:#fff;stroke:#000"><path style="fill:#fff;fill-opacity:1;stroke:#000;stroke-width:.2;stroke-dasharray:none" d="M80.058 165.892c-1.605.3-1.261 2.427-1.176 2.914.16 1.644 1.3 2.008 1.891 2.25.704.188 1.933-.69 1.125-1.38-.47-.21-.665-.443-.971-1.381-.152-.836.84-2.213-.87-2.403z" transform="matrix(-1.32067 .67744 -.69374 -1.46956 291.472 266.489)"/><path style="fill:#fff;stroke:#000;stroke-width:.2;stroke-dasharray:none" d="m75.316 110.357-.676.414M73.464 110.639l.567.314M75.374 111.471l-1.112-.237M75.31 111.938l-.724-.1M73.185 112.293l1.189-.077M75.347 112.483l-1.111.361M73.481 113.734l1.1-.46M75.634 113.181l-.668.393M73.295 113.076l.558-.104M74.287 114.697l.537-.677M75.911 113.527l-.678.774M75.463 114.608l.02.526M76.518 114.095l-.484.196M73.188 111.745l.562.038" transform="matrix(-1.32067 .67744 -.69374 -1.46956 245.249 188.092)"/></g><g style="fill:#fff;stroke:#000"><path style="fill:#fff;fill-opacity:1;stroke:#000;stroke-width:.2;stroke-dasharray:none" d="M80.058 165.892c-1.605.3-1.261 2.427-1.176 2.914.16 1.644 1.3 2.008 1.891 2.25.704.188 1.933-.69 1.125-1.38-.47-.21-.665-.443-.971-1.381-.152-.836.84-2.213-.87-2.403z" transform="matrix(.34282 1.49212 -1.52803 .38147 268.786 -113.896)"/><path style="fill:#fff;stroke:#000;stroke-width:.2;stroke-dasharray:none" d="m75.316 110.357-.676.414M73.464 110.639l.567.314M75.374 111.471l-1.112-.237M75.31 111.938l-.724-.1M73.185 112.293l1.189-.077M75.347 112.483l-1.111.361M73.481 113.734l1.1-.46M75.634 113.181l-.668.393M73.295 113.076l.558-.104M74.287 114.697l.537-.677M75.911 113.527l-.678.774M75.463 114.608l.02.526M76.518 114.095l-.484.196M73.188 111.745l.562.038" transform="matrix(.34282 1.49212 -1.52803 .38147 185.24 -84.176)"/></g><g style="stroke:#000"><path style="fill:#fff;fill-opacity:1;stroke:#000;stroke-width:.199946;stroke-dasharray:none" d="M126.51 226.395c5.186.877 6.309-1.39 7.97-3.24 1.89-4.945.66-7.934-2.77-9.542-2.556-.726-5.053-1.79-8.53 2.852-1.426 2.678-1.245 5.202.338 7.594 1.37 1.917 2.132 1.976 2.992 2.336z" transform="matrix(-1.04819 -.8626 .77098 -1.018 19.13 422.579)"/><path style="fill:#fff;fill-opacity:1;stroke:#000;stroke-width:.172212;stroke-dasharray:none" d="M127.328 220.185c-1.806-.992-1.783-2.608.058-4.16.522-.484 2.073-.944 2.933.683.338 1.18 1.154 2.626-.703 3.477-.603.144-.649.334-2.288 0z" transform="matrix(-1.04819 -.8626 .77098 -1.018 19.13 422.579)"/><path style="fill:none;fill-opacity:1;stroke:#000;stroke-width:.513801;stroke-dasharray:none" d="M126.403 227.165c-3.267-1.017-4.465-3.793-4.817-6.668-.406-4.513 2.053-6.218 4.056-7.416M126.495 212.667c1.25-.518 2.173-.43 3.047-.253M130.264 212.547c.861.01 1.655.367 2.364.719M133.859 214.355c3.913 3.217 1.657 8.108.69 9.876M123.615 227.495c-2.09-1.46-2.84-3.2-3.122-5.039M123.699 229.016c-1.712-1.052-2.452-2.084-3.057-3.114M120.093 220.387c-.626-3.726 1.134-5.818 3.064-7.794M124.327 212.013c1.326-.897 2.54-.888 3.53-.83M128.77 211.124c.693-.07 1.674.113 2.59.548M132.56 212.398c3.14.968 3.522 2.587 4.215 3.679M137.085 218.026c.411 2.713-.278 3.862-.645 5.044M121.127 226.522l.707-.52M120.666 223.498l1.422-.53M120.053 218.684l1.626.162M136.034 220.86l.98.21M134.656 215.382l1.333-.763M127.172 212.383l-.221-1.115" transform="matrix(-1.04819 -.8626 .77098 -1.018 19.13 422.579)"/><path style="fill:none;fill-opacity:1;stroke:#000;stroke-width:.513801;stroke-dasharray:none" d="M120.137 214.38c2.141-4.4 5.895-4.675 9.796-4.576M121.412 210.177c1.203-1.097 3.398-1.621 5.49-1.723M122.115 213.675l-1.053-.825M125.277 211.446l-.22-1.297M123.014 211.026l-.76-1.424M133.894 224.946c-2.497 3.217-6.011 2.365-6.667 2.333M133.83 226.935c-3.109 2.226-4.39 1.611-5.318 1.575M130.816 227.168l.267 1.212M138.865 218.439c.44 1.567-.08 3.764-.929 5.677M137.387 219.487l1.613-.038" transform="matrix(-1.04819 -.8626 .77098 -1.018 19.13 422.579)"/></g><path style="fill:none;fill-rule:evenodd;stroke:#000;stroke-width:.582;stroke-dasharray:none" d="M125.453 149.54c2.944 4.394 5.824 9.062 7.851 17.43.532 4.437 2.727 8.551-11.577 15.863-4.122 2.183-8.813 3.686-11.995 6.993-4.413 3.694-6.807 7.964-13.238 11.08-5.977 1.909-18.614 1.952-17.933 5.727-.023 2.711 11.775 2.797 17.676 4.192 12.439 3.084 15.999 6.63 17.6 10.276 1.052 2.489 1.1 9.691 1.248 16.422-.363 6.32 2.003 11.173 5.536 12.109 5.757 2.362 9.66.201 14.289.047" transform="matrix(1.46878 0 0 1.53105 -32.374 -228.705)"/><g style="stroke:#000"><path style="fill:#fff;fill-opacity:1;stroke:#000;stroke-width:.2;stroke-dasharray:none" d="M80.058 165.892c-1.605.3-1.261 2.427-1.176 2.914.16 1.644 1.3 2.008 1.891 2.25.704.188 1.933-.69 1.125-1.38-.47-.21-.665-.443-.971-1.381-.152-.836.84-2.213-.87-2.403z" transform="matrix(-1.11107 -1.00635 1.03057 -1.23634 -10.015 378.782)"/><path style="fill:#848484;stroke:#000;stroke-width:.2;stroke-dasharray:none" d="m75.316 110.357-.676.414M73.464 110.639l.567.314M75.374 111.471l-1.112-.237M75.31 111.938l-.724-.1M73.185 112.293l1.189-.077M75.347 112.483l-1.111.361M73.481 113.734l1.1-.46M75.634 113.181l-.668.393M73.295 113.076l.558-.104M74.287 114.697l.537-.677M75.911 113.527l-.678.774M75.463 114.608l.02.526M76.518 114.095l-.484.196M73.188 111.745l.562.038" transform="matrix(-1.11107 -1.00635 1.03057 -1.23634 41.39 303.973)"/></g><g style="fill:#fff;stroke:#000"><path style="fill:#fff;fill-opacity:1;stroke:#000;stroke-width:.2;stroke-dasharray:none" d="M80.058 165.892c-1.605.3-1.261 2.427-1.176 2.914.16 1.644 1.3 2.008 1.891 2.25.704.188 1.933-.69 1.125-1.38-.47-.21-.665-.443-.971-1.381-.152-.836.84-2.213-.87-2.403z" transform="matrix(.55518 -1.42099 1.45519 .61777 -224.998 117.88)"/><path style="fill:#fff;stroke:#000;stroke-width:.2;stroke-dasharray:none" d="m75.316 110.357-.676.414M73.464 110.639l.567.314M75.374 111.471l-1.112-.237M75.31 111.938l-.724-.1M73.185 112.293l1.189-.077M75.347 112.483l-1.111.361M73.481 113.734l1.1-.46M75.634 113.181l-.668.393M73.295 113.076l.558-.104M74.287 114.697l.537-.677M75.911 113.527l-.678.774M75.463 114.608l.02.526M76.518 114.095l-.484.196M73.188 111.745l.562.038" transform="matrix(.55518 -1.42099 1.45519 .61777 -140.482 144.454)"/></g><path style="fill:#fff;stroke:#000;stroke-width:.0863963;stroke-dasharray:none" d="M50.158 217.33c-1.851 1.276-5.19-2.351-3.194-3.694 1.455-.979 5.212 2.304 3.194 3.694zM54.308 195.502c.351-4.016 5.624-2.94 5.081.12-.306 1.727-5.295 2.32-5.081-.12z" transform="matrix(1.46878 0 0 1.53105 -32.374 -228.705)"/><path style="fill:#fff;fill-rule:evenodd;stroke:#000;stroke-width:.535039;stroke-dasharray:none;fill-opacity:1" d="M26.999 205.016c-.694 5.014.519 8.973 3.174 12.133 4.321 4.132 8.095 6.23 10.064 6.707 1.947.498 2.048 1.11 8.202 1.79 4.942.547 5.417.938 8.61-.525 4.156-1.843 4.357-3.82 3.741-4.61-1.437-1.721-3.819-2.328-6.485-.887-6.258 3.802-5.821-1.304-8.648-2.135-3.829-1.05-4.617-4.122-5.094-6.256-.143-2.132 1.953-5.892 2.08-6.731.582-3.439-.718-5.425-.573-7.299 1.306-5.02 10.174-5.123 11.547-5.367 5.762-.622 6.02-.012 7.725 1.28 1.153 1.137 2.24 1.703 3.12 1.496.332-.078.555-.02 1.09-.516.544-.605.866-3.166-.69-5.038-.637-.762-4.03-2.148-5.516-2.062-2.417-.09-4.345.133-7.656-.697-6.428-1.613-10.792 1.438-12.673 2.33-5.123 2.428-8.34 6.601-10.27 9.652-1.045 2.04-1.391 5.103-1.748 6.735z" transform="matrix(1.46878 0 0 1.53105 -32.374 -228.705)"/><g style="fill:#fff;fill-opacity:1;stroke:#000"><path style="fill:#fff;fill-opacity:1;fill-rule:evenodd;stroke:#000;stroke-width:.562107;stroke-dasharray:none" d="M35.6 96.285c8.803 3.498 3.67 11.765.127 9.77-7.3-4.188-7.475-11.29-.128-9.77z" transform="matrix(1.00107 1.1248 -1.15188 1.11394 99.868 -68.201)"/></g><path style="fill:#fff;fill-opacity:1;stroke:#000;stroke-width:.159466;stroke-dasharray:none" d="M48.818 198.428c.011-.406 1.175-.753 1.324.025-.012.786-1.432.332-1.324-.025zM45.643 206.63c.011-.406 1.175-.753 1.324.025-.012.786-1.432.332-1.324-.025zM75.806 201.073c.01-.405 1.174-.752 1.323.026-.012.786-1.431.332-1.323-.026zM71.308 194.723c.01-.405 1.174-.752 1.323.026-.011.786-1.431.332-1.323-.026zM69.191 203.739c.01.406 1.175.753 1.324-.025-.012-.786-1.432-.332-1.324.025zM72.895 213.773c.011-.405 1.175-.752 1.324.026-.012.786-1.432.332-1.324-.026zM76.07 207.443c.011.406 1.175.753 1.324-.025-.012-.786-1.432-.332-1.324.025zM65.752 214.303c.01-.406 1.174-.753 1.323.025-.012.786-1.432.332-1.323-.025zM63.37 222.77c.011-.407 1.175-.753 1.324.025-.012.785-1.432.332-1.324-.026zM51.993 216.684c.011-.406 1.175-.753 1.324.025-.012.786-1.432.332-1.324-.025zM25.535 202.132c.01-.406 1.174-.753 1.323.025-.011.786-1.431.332-1.323-.025zM24.741 206.65c.01.405 1.175.752 1.324-.026-.012-.786-1.432-.332-1.324.025zM47.76 210.598c.01-.405 1.174-.752 1.323.026-.011.786-1.431.332-1.323-.026zM53.497 227.214c.01.406 1.174.753 1.323-.025-.011-.786-1.431-.332-1.323.025zM28.714 195.591c.01-.406 1.175-.752 1.324.026-.012.786-1.432.332-1.324-.026zM43.494 209.923c.01.406 1.175.753 1.324-.025-.012-.786-1.432-.332-1.324.025zM42.933 213.084c.01-.406 1.174-.753 1.323.025-.011.786-1.431.332-1.323-.025zM71.464 217.107c.01-.406 1.174-.753 1.323.025-.011.786-1.431.332-1.323-.025zM79.696 206.63c.01-.406 1.174-.753 1.323.025-.012.786-1.431.332-1.323-.025zM76.515 210.652c.011-.406 1.175-.753 1.324.025-.012.786-1.432.332-1.324-.025z" transform="matrix(1.46878 0 0 1.53105 -32.374 -228.705)"/><g style="fill:#fff;stroke:#000"><path style="fill:#fff;fill-opacity:1;stroke:#000;stroke-width:.2;stroke-dasharray:none" d="M80.058 165.892c-1.605.3-1.261 2.427-1.176 2.914.16 1.644 1.3 2.008 1.891 2.25.704.188 1.933-.69 1.125-1.38-.47-.21-.665-.443-.971-1.381-.152-.836.84-2.213-.87-2.403z" transform="matrix(1.05087 -1.07432 1.10017 1.16935 -234.035 -29.944)"/><path style="fill:#fff;stroke:#000;stroke-width:.2;stroke-dasharray:none" d="m75.316 110.357-.676.414M73.464 110.639l.567.314M75.374 111.471l-1.112-.237M75.31 111.938l-.724-.1M73.185 112.293l1.189-.077M75.347 112.483l-1.111.361M73.481 113.734l1.1-.46M75.634 113.181l-.668.393M73.295 113.076l.558-.104M74.287 114.697l.537-.677M75.911 113.527l-.678.774M75.463 114.608l.02.526M76.518 114.095l-.484.196M73.188 111.745l.562.038" transform="matrix(1.05087 -1.07432 1.10017 1.16935 -166.592 29.43)"/></g><path style="fill:#fff;fill-rule:evenodd;stroke:#000;stroke-width:.582001;stroke-dasharray:none" d="M39.026 197.644c2.751 3.492 3.576 7.627 0 13.229 1.216-4.41 2.245-8.82 0-13.23zM30.589 198.22c1.976-3.45 4.627-6.163 8.325-8.138-3.165 2.42-6.148 4.977-8.325 8.138zm4.537-2.666c2.601-2.647 5.72-4.758 8.325-8.138-2.171 4.124-5.403 6.254-8.325 8.138z" transform="matrix(1.46878 0 0 1.53105 -32.374 -228.705)"/><path style="fill:#006400;fill-rule:evenodd;stroke:#000;stroke-width:.582001;stroke-dasharray:none" d="M40.785 193.076c6.217-10.41 12.572-3.346 21.235-4.865-7.277.726-15.743-3.895-21.235 4.865z" transform="matrix(1.46878 0 0 1.53105 -32.374 -228.705)"/><path style="fill:#006400;fill-rule:evenodd;stroke:#000;stroke-width:.582001;stroke-dasharray:none" d="M44.434 190.737c7.57-2.622 13.18-.935 19.644-1.123-6.575.187-13.512-2.16-19.644 1.123zM63.89 193.263c.184-2.444-3.49-2.082-5.799-2.713 2.04.83 6.652-.12 5.8 2.713zM55.94 190.55c-5.67.594-11.679.928-14.22 3.929 1.6-1.659 5.89-3.018 14.22-3.93zM39.85 194.572l-3.368 2.432zM41.347 195.508l-.655 2.9z" transform="matrix(1.46878 0 0 1.53105 -32.374 -228.705)"/><path style="fill:#fff;fill-rule:evenodd;stroke:#000;stroke-width:.582001;stroke-dasharray:none" d="M30.683 200.091c-1.778 6.514-.8 8.52.093 10.664-.656-1.806-.685-5.365-.093-10.664z" transform="matrix(1.46878 0 0 1.53105 -32.374 -228.705)"/><path style="fill:#006400;fill-rule:evenodd;stroke:#000;stroke-width:.582001;stroke-dasharray:none" d="M29.373 200.56c-1.288 4.322-.893 7.804-.748 11.411-.147-3.628-1.18-6.862.748-11.412zM36.856 211.13c2.78 2.703 3.98 5.564 8.98 8.044-4.361-2.877-6.19-5.392-8.98-8.044z" transform="matrix(1.46878 0 0 1.53105 -32.374 -228.705)"/><path style="fill:#fff;fill-rule:evenodd;stroke:#000;stroke-width:.582001;stroke-dasharray:none" d="M34.518 211.69c2.968 3.77 9.155 9.577 13.19 9.449-6.634-2.867-9.055-5.987-13.19-9.448z" transform="matrix(1.46878 0 0 1.53105 -32.374 -228.705)"/><path style="fill:#006400;fill-rule:evenodd;stroke:#000;stroke-width:.582001;stroke-dasharray:none" d="M57.81 220.39c-1.623 1.14-1.53 2.607-14.405 1.59 5.532-.186 12.784.437 14.405-1.59zM58.84 221.7c1.558 1.006-1.191 1.87-3.462 2.62 1.715-.874 4.099-1.747 3.461-2.62zM53.694 223.103c-.207 1.235-6.633.527-10.383.655 3.492-.151 9.206.381 9.822-.655zM54.443 224.974c-1.35.666-2.798.736-4.397-.093 1.581.377 3.065.463 4.397.093zM40.692 222.542c-4.247-3.15-9.064-6.299-10.945-9.448 4.462 4.451 7.7 6.944 10.945 9.448zM33.021 213.842l4.677 2.807zM39.102 217.771c-.054 1.892 1.148 3.47 3.086 4.865-1.754-1.622-2.572-3.243-3.086-4.865zM31.15 216.836c1.902 2.22 3.804 3.309 5.706 4.303zM31.992 210.849v2.058z" transform="matrix(1.46878 0 0 1.53105 -32.374 -228.705)"/></svg>