<?xml version="1.0" encoding="UTF-8" standalone="no"?>
<!-- Created with Inkscape (http://www.inkscape.org/) -->

<svg
   width="77.555977mm"
   height="76.81517mm"
   viewBox="0 0 77.555977 76.81517"
   version="1.1"
   id="svg5"
   xml:space="preserve"
   inkscape:version="1.2 (dc2aeda, 2022-05-15)"
   sodipodi:docname="copepod_dark.svg"
   xmlns:inkscape="http://www.inkscape.org/namespaces/inkscape"
   xmlns:sodipodi="http://sodipodi.sourceforge.net/DTD/sodipodi-0.dtd"
   xmlns:xlink="http://www.w3.org/1999/xlink"
   xmlns="http://www.w3.org/2000/svg"
   xmlns:svg="http://www.w3.org/2000/svg"><sodipodi:namedview
     id="namedview7"
     pagecolor="#ffffff"
     bordercolor="#000000"
     borderopacity="0.25"
     inkscape:showpageshadow="2"
     inkscape:pageopacity="0.0"
     inkscape:pagecheckerboard="0"
     inkscape:deskcolor="#d1d1d1"
     inkscape:document-units="mm"
     showgrid="false"
     inkscape:zoom="3.2842761"
     inkscape:cx="142.64939"
     inkscape:cy="131.23135"
     inkscape:window-width="1244"
     inkscape:window-height="1036"
     inkscape:window-x="129"
     inkscape:window-y="25"
     inkscape:window-maximized="0"
     inkscape:current-layer="g7262" /><defs
     id="defs2"><linearGradient
       inkscape:collect="always"
       id="linearGradient27892"><stop
         style="stop-color:#005400;stop-opacity:0;"
         offset="0"
         id="stop27890" /><stop
         style="stop-color:#005400;stop-opacity:0.70980392;"
         offset="0.36043361"
         id="stop1481" /><stop
         style="stop-color:#005400;stop-opacity:1;"
         offset="1"
         id="stop27888" /></linearGradient><linearGradient
       inkscape:collect="always"
       id="linearGradient27884"><stop
         style="stop-color:#005400;stop-opacity:1;"
         offset="0"
         id="stop27880" /><stop
         style="stop-color:#005400;stop-opacity:0.5254902;"
         offset="0.61517614"
         id="stop1483" /><stop
         style="stop-color:#005400;stop-opacity:0;"
         offset="1"
         id="stop27882" /></linearGradient><linearGradient
       inkscape:collect="always"
       id="linearGradient27872"><stop
         style="stop-color:#00a400;stop-opacity:0;"
         offset="0"
         id="stop27870" /><stop
         style="stop-color:#00a400;stop-opacity:0.41960784;"
         offset="0.38211384"
         id="stop1428" /><stop
         style="stop-color:#00a400;stop-opacity:1;"
         offset="1"
         id="stop27868" /></linearGradient><linearGradient
       inkscape:collect="always"
       id="linearGradient27862"><stop
         style="stop-color:#00a400;stop-opacity:0;"
         offset="0"
         id="stop27860" /><stop
         style="stop-color:#00a400;stop-opacity:0.63137255;"
         offset="0.31978318"
         id="stop1424" /><stop
         style="stop-color:#00a400;stop-opacity:1;"
         offset="1"
         id="stop27858" /></linearGradient><linearGradient
       inkscape:collect="always"
       id="linearGradient27846"><stop
         style="stop-color:#00a400;stop-opacity:0;"
         offset="0"
         id="stop27844" /><stop
         style="stop-color:#00a400;stop-opacity:0.49019608;"
         offset="0.37669376"
         id="stop1426" /><stop
         style="stop-color:#00a400;stop-opacity:1;"
         offset="1"
         id="stop27842" /></linearGradient><linearGradient
       inkscape:collect="always"
       id="linearGradient27832"><stop
         style="stop-color:#00a400;stop-opacity:1;"
         offset="0"
         id="stop27828" /><stop
         style="stop-color:#00a400;stop-opacity:0.4745098;"
         offset="0.36856368"
         id="stop1479" /><stop
         style="stop-color:#00a400;stop-opacity:0;"
         offset="1"
         id="stop27830" /></linearGradient><linearGradient
       inkscape:collect="always"
       id="linearGradient27824"><stop
         style="stop-color:#009c00;stop-opacity:1;"
         offset="0"
         id="stop27820" /><stop
         style="stop-color:#009c00;stop-opacity:0.57254902;"
         offset="0.52574527"
         id="stop1422" /><stop
         style="stop-color:#009c00;stop-opacity:0;"
         offset="1"
         id="stop27822" /></linearGradient><linearGradient
       inkscape:collect="always"
       id="linearGradient27816"><stop
         style="stop-color:#00a800;stop-opacity:1;"
         offset="0"
         id="stop27812" /><stop
         style="stop-color:#00a800;stop-opacity:0.5254902;"
         offset="0.64498645"
         id="stop1420" /><stop
         style="stop-color:#00a800;stop-opacity:0;"
         offset="1"
         id="stop27814" /></linearGradient><linearGradient
       inkscape:collect="always"
       id="linearGradient27808"><stop
         style="stop-color:#00a800;stop-opacity:1;"
         offset="0"
         id="stop27804" /><stop
         style="stop-color:#00a800;stop-opacity:0.51372549;"
         offset="0.60162604"
         id="stop1418" /><stop
         style="stop-color:#00a800;stop-opacity:0;"
         offset="1"
         id="stop27806" /></linearGradient><linearGradient
       inkscape:collect="always"
       id="linearGradient27798"><stop
         style="stop-color:#00a800;stop-opacity:1;"
         offset="0"
         id="stop27794" /><stop
         style="stop-color:#00a800;stop-opacity:0.47058824;"
         offset="0.67208672"
         id="stop1416" /><stop
         style="stop-color:#00a800;stop-opacity:0;"
         offset="1"
         id="stop27796" /></linearGradient><linearGradient
       inkscape:collect="always"
       id="linearGradient27760"><stop
         style="stop-color:#006e00;stop-opacity:1;"
         offset="0.08943089"
         id="stop27756" /><stop
         style="stop-color:#009800;stop-opacity:0;"
         offset="0.44173443"
         id="stop27758" /></linearGradient><linearGradient
       inkscape:collect="always"
       id="linearGradient27754"><stop
         style="stop-color:#009800;stop-opacity:1;"
         offset="0.08130081"
         id="stop27750" /><stop
         style="stop-color:#005700;stop-opacity:0;"
         offset="0.77506775"
         id="stop27752" /></linearGradient><linearGradient
       inkscape:collect="always"
       id="linearGradient27746"><stop
         style="stop-color:#007f00;stop-opacity:1;"
         offset="0.0921409"
         id="stop27742" /><stop
         style="stop-color:#009800;stop-opacity:0.4745098;"
         offset="0.73712736"
         id="stop1408" /><stop
         style="stop-color:#009800;stop-opacity:0;"
         offset="1"
         id="stop27744" /></linearGradient><linearGradient
       inkscape:collect="always"
       id="linearGradient27732"><stop
         style="stop-color:#009800;stop-opacity:1;"
         offset="0"
         id="stop27728" /><stop
         style="stop-color:#009800;stop-opacity:0.71764706;"
         offset="0.47967482"
         id="stop1414" /><stop
         style="stop-color:#009800;stop-opacity:0.38823529;"
         offset="0.77506775"
         id="stop1412" /><stop
         style="stop-color:#009800;stop-opacity:0;"
         offset="1"
         id="stop27730" /></linearGradient><linearGradient
       inkscape:collect="always"
       xlink:href="#linearGradient27732"
       id="linearGradient27734"
       x1="81.674973"
       y1="112.68995"
       x2="93.438544"
       y2="112.68995"
       gradientUnits="userSpaceOnUse" /><linearGradient
       inkscape:collect="always"
       xlink:href="#linearGradient27754"
       id="linearGradient27736"
       x1="90.976341"
       y1="91.61006"
       x2="107.96693"
       y2="91.61006"
       gradientUnits="userSpaceOnUse" /><linearGradient
       inkscape:collect="always"
       xlink:href="#linearGradient27746"
       id="linearGradient27740"
       x1="87.074299"
       y1="91.902246"
       x2="111.31087"
       y2="91.902246"
       gradientUnits="userSpaceOnUse" /><linearGradient
       inkscape:collect="always"
       xlink:href="#linearGradient27760"
       id="linearGradient27748"
       gradientUnits="userSpaceOnUse"
       x1="87.894139"
       y1="100.05112"
       x2="101.88296"
       y2="100.05112" /><linearGradient
       inkscape:collect="always"
       xlink:href="#linearGradient27798"
       id="linearGradient27802"
       x1="109.54037"
       y1="90.523674"
       x2="116.63834"
       y2="90.523674"
       gradientUnits="userSpaceOnUse" /><linearGradient
       inkscape:collect="always"
       xlink:href="#linearGradient27808"
       id="linearGradient27810"
       x1="111.85865"
       y1="84.26373"
       x2="117.02686"
       y2="84.26373"
       gradientUnits="userSpaceOnUse" /><linearGradient
       inkscape:collect="always"
       xlink:href="#linearGradient27816"
       id="linearGradient27818"
       x1="110.28017"
       y1="82.50276"
       x2="113.09011"
       y2="82.50276"
       gradientUnits="userSpaceOnUse" /><linearGradient
       inkscape:collect="always"
       xlink:href="#linearGradient27824"
       id="linearGradient27826"
       x1="107.39304"
       y1="92.291726"
       x2="109.69908"
       y2="92.291726"
       gradientUnits="userSpaceOnUse" /><linearGradient
       inkscape:collect="always"
       xlink:href="#linearGradient27862"
       id="linearGradient27834"
       x1="89.372727"
       y1="78.05158"
       x2="99.846898"
       y2="78.05158"
       gradientUnits="userSpaceOnUse" /><linearGradient
       inkscape:collect="always"
       xlink:href="#linearGradient27832"
       id="linearGradient27836"
       x1="99.170269"
       y1="76.776429"
       x2="103.38463"
       y2="76.776429"
       gradientUnits="userSpaceOnUse" /><linearGradient
       inkscape:collect="always"
       xlink:href="#linearGradient27872"
       id="linearGradient27838"
       x1="96.673013"
       y1="74.978627"
       x2="99.876528"
       y2="74.978627"
       gradientUnits="userSpaceOnUse" /><linearGradient
       inkscape:collect="always"
       xlink:href="#linearGradient27846"
       id="linearGradient27840"
       x1="91.747383"
       y1="84.126663"
       x2="96.351585"
       y2="84.126663"
       gradientUnits="userSpaceOnUse"
       spreadMethod="reflect" /><linearGradient
       inkscape:collect="always"
       xlink:href="#linearGradient27884"
       id="linearGradient27886"
       x1="109.98709"
       y1="86.017036"
       x2="144.19325"
       y2="86.017036"
       gradientUnits="userSpaceOnUse" /><linearGradient
       inkscape:collect="always"
       xlink:href="#linearGradient27892"
       id="linearGradient27894"
       x1="73.155144"
       y1="65.717788"
       x2="106.95143"
       y2="65.717788"
       gradientUnits="userSpaceOnUse" /></defs><g
     inkscape:label="Layer 1"
     inkscape:groupmode="layer"
     id="layer1"
     transform="translate(-66.574217,-45.694723)"><g
       id="g2264"
       transform="rotate(15.398756,109.44388,92.17573)"><g
         id="g7262"
         style="fill:#ffffff"><path
           style="fill:#ffffff;stroke:#000000;stroke-width:0.183;stroke-linecap:round;stroke-opacity:1"
           d="m 78.092089,57.543386 c 0.4053,-0.281974 0.58941,-1.699998 0.63119,-2.454624"
           id="path493-36"
           sodipodi:nodetypes="cc" /><path
           style="fill:#ffffff;stroke:#000000;stroke-width:0.183;stroke-linecap:round;stroke-opacity:1"
           d="m 76.689447,56.842064 c 0.4053,-0.281974 0.58941,-1.699998 0.63119,-2.454624"
           id="path493-55"
           sodipodi:nodetypes="cc" /><path
           style="fill:#ffffff;stroke:#000000;stroke-width:0.183;stroke-linecap:round;stroke-opacity:1"
           d="m 75.286805,56.421271 c 0.4053,-0.281974 0.58941,-1.699998 0.63119,-2.454624"
           id="path493-8"
           sodipodi:nodetypes="cc" /><path
           style="fill:#ffffff;stroke:#000000;stroke-width:0.183;stroke-linecap:round;stroke-opacity:1"
           d="m 73.603634,56.210876 c 0.4053,-0.281974 0.58941,-1.699998 0.63119,-2.454624"
           id="path493-14"
           sodipodi:nodetypes="cc" /><path
           style="fill:url(#linearGradient27740);fill-rule:evenodd;stroke:#000000;stroke-width:0.383;stroke-linecap:round;stroke-opacity:1;fill-opacity:1.0"
           d="m 108.68916,75.202385 c -1.99633,-0.540398 -4.05786,-0.624454 -6.4002,1.257184 -1.58717,1.252888 -3.047822,2.463605 -4.114416,3.542969 -1.349839,1.765607 -2.906222,3.69645 -3.42868,4.800153 -1.618406,3.330898 -2.352951,3.3661 -3.657258,5.600178 -0.03151,0.22554 0.131501,0.401495 0.114289,0.685737 -1.917672,2.451022 -1.899398,3.313446 -1.828631,3.42868 l 0.04514,0.611304 c -0.02318,0.313968 -1.288023,2.287974 -1.292562,2.961759 l 0.06995,0.939126 c -0.787501,1.706885 -0.780243,2.450165 -0.815074,3.771555 0.07059,0.68638 -0.377223,1.6365 0.148863,2.86699 1.083308,-0.37004 2.19565,-1.28514 3.409157,-0.76017 1.014722,0.29984 1.467072,0.74499 1.967727,1.37148 0.594656,0.94905 0.150625,2.05016 0.461638,2.65346 1.34596,0.0187 1.904955,-0.87131 2.519648,-1.27223 1.000378,-0.63406 2.437536,-2.18728 2.656478,-2.31006 l 0.543626,-0.09 c 0.189497,-0.0133 1.936085,-2.29435 2.400075,-3.2001 0.15776,-0.0735 0.3277,-0.2274 0.59927,-0.24399 0.45458,-0.43652 0.44485,-0.51404 1.70814,-3.113633 0.0253,-0.08622 0.38478,-0.04159 0.57465,-0.206962 0.15254,-0.583659 5.76004,-11.699883 5.80393,-12.093053 0.25149,-1.27945 1.11405,-5.331431 0.91432,-7.543096 -0.30841,-1.575988 -0.51571,-2.709261 -2.40008,-3.657261 z"
           id="path415"
           sodipodi:nodetypes="cccccccccccccccccccccccccc" /><path
           style="fill:url(#linearGradient27736);fill-rule:evenodd;stroke:#000000;stroke-width:0.383;stroke-linecap:round;stroke-opacity:1;fill-opacity:1.0"
           d="m 91.171725,90.750931 c 5.173519,1.663174 9.831825,3.927425 13.184835,7.71453 1.71172,-3.493571 2.40342,-4.947108 3.36634,-6.943076 -3.19965,-2.188276 -3.74185,-4.123462 -12.834174,-6.872946 -0.626515,1.727606 -3.832844,5.272077 -3.717001,6.101492 z"
           id="path1345"
           sodipodi:nodetypes="ccccc" /><path
           style="fill:url(#linearGradient27748);fill-rule:evenodd;stroke:#000000;stroke-width:0.383;stroke-linecap:round;stroke-opacity:1;fill-opacity:1"
           d="m 89.418421,95.02899 c 3.182416,3.217551 7.897926,5.0155 12.202989,6.73268 -0.62757,1.30375 -1.3706,2.53053 -2.594892,3.43647 -4.991081,-1.51682 -8.558163,-3.58134 -10.940605,-6.101489 0.0054,-1.502155 0.763317,-2.753448 1.332508,-4.067661 z"
           id="path1347"
           sodipodi:nodetypes="ccccc" /><path
           style="fill:#001000;fill-rule:evenodd;stroke:#000000;stroke-width:0.383;stroke-linecap:round;stroke-opacity:1"
           d="m 107.5125,76.303721 c 0.36259,-0.144582 0.70308,0.126636 0.86093,0.418372 0.0426,0.332337 -0.34504,0.917341 -0.65053,1.110023 -0.29907,0.05951 -0.59814,0.02906 -0.8972,-0.333732 -0.1303,-0.668781 0.40632,-0.936657 0.6868,-1.194663 z"
           id="path1351"
           sodipodi:nodetypes="ccccc" /><path
           style="fill:url(#linearGradient27886);fill-rule:evenodd;stroke:#000000;stroke-width:0.383;stroke-linecap:round;stroke-opacity:1;fill-opacity:1"
           d="m 110.24765,76.443985 c 3.01064,-0.181979 5.475,0.182328 7.57427,0.911717 4.56572,2.149174 5.37226,3.264572 7.08334,4.628718 2.21389,1.309132 4.52699,2.618264 6.38202,3.927396 l 5.61057,3.506605 c 1.94768,1.113452 3.12417,1.460135 7.01321,5.680699 -0.0314,0.224686 0.43661,0.67985 -0.49092,0.490927 -4.68813,-4.173833 -4.48845,-3.459851 -6.73268,-5.189776 L 129.9679,86.57378 c -1.52148,-0.629088 -3.40363,-1.750513 -6.88607,-3.888039 l -5.25991,-3.366342 c -0.92989,-0.516905 -2.25027,-0.83856 -3.78713,-1.05198 -2.06757,-0.128134 -2.41655,0.316597 -2.94555,0.70132 z"
           id="path1353"
           sodipodi:nodetypes="cccccccccccccc" /><path
           style="fill:url(#linearGradient27894);fill-rule:evenodd;stroke:#000000;stroke-width:0.383;stroke-linecap:round;stroke-opacity:1;fill-opacity:1"
           d="m 106.74618,74.771077 c -0.10133,-1.420275 -0.63971,-2.184972 -1.12725,-3.025944 -0.6664,-1.720456 -2.43744,-2.557202 -4.06766,-3.506605 -2.133741,-1.11154 -4.168449,-2.476598 -6.101487,-3.186733 l -7.574267,-3.33555 -6.382022,-2.945548 -6.662547,-2.454625 c -1.120478,-0.27971 -1.143813,-0.01085 -1.402644,0.140264 -0.222737,0.301147 0.04085,0.480713 0.420794,0.63119 l 3.576735,1.051981 4.086478,1.74304 5.451489,2.675282 6.101493,3.296208 4.278056,2.103964 3.997532,2.314358 c 1.63547,1.341987 1.75148,1.815715 2.03383,2.384491 0.46298,0.841586 0.77933,1.683171 0.84158,2.524757 0.75355,-0.22659 1.57609,-0.38419 2.52989,-0.41053 z"
           id="path1355"
           sodipodi:nodetypes="cccccccccccccccccc" /><path
           style="fill:url(#linearGradient27734);fill-rule:evenodd;stroke:#000000;stroke-width:0.383;stroke-linecap:round;stroke-opacity:1;fill-opacity:1.0"
           d="m 88.787233,105.26827 c -0.344418,0.2883 -0.867325,1.02283 -1.613037,2.31437 l -0.420793,1.82343 -0.771454,1.61304 -0.35066,0.98185 c -0.781211,0.97163 -1.592992,1.96619 -1.823434,2.52475 -1.491233,1.70163 -1.387894,1.80869 -1.683171,2.31436 -0.347002,0.72713 -0.26084,1.30896 -0.210397,1.33251 0.350501,0.28053 0.559043,0.56106 0.771454,0.84159 1.148275,-0.0277 0.774398,-1.15242 2.174094,-2.94555 0.385807,-0.74855 0.587389,-0.39176 0.841587,-0.35066 0.49775,0.66698 0.344153,0.94316 0.145394,1.19224 -0.338611,0.56724 -0.885716,1.35408 -1.618168,2.45463 l 0.210394,0.98184 1.192247,0.28053 0.420792,-0.56106 0.631188,-0.49092 c 1.81047,-3.86198 1.91408,-4.65161 2.384492,-6.10149 l 1.051983,-1.40264 0.810795,-1.16659 0.867242,-0.81763 c 0.636884,-1.15061 1.192377,-1.76519 1.4283,-2.31436 0.07491,-0.56885 -0.0013,-1.17547 -0.721846,-1.94318 -0.221847,-0.47152 -0.935409,-0.77914 -1.753304,-1.05198 -0.861319,-0.14649 -1.50371,0.0354 -1.963698,0.49092 z"
           id="path1357"
           sodipodi:nodetypes="ccccccccccccccccccccccccc" /><path
           style="fill:#008000;fill-rule:evenodd;stroke:#000000;stroke-width:0.383;stroke-linecap:round;stroke-opacity:1"
           d="m 81.774024,116.9102 -6.872947,3.50661 7.01321,-2.87542 z"
           id="path2085" /><path
           style="fill:#008000;fill-rule:evenodd;stroke:#000000;stroke-width:0.383;stroke-linecap:round;stroke-opacity:1"
           d="m 86.613139,119.78562 1.262377,7.6444 -1.823434,-7.22361 z"
           id="path2087" /><path
           style="fill:#008000;fill-rule:evenodd;stroke:#000000;stroke-width:0.383;stroke-linecap:round;stroke-opacity:1"
           d="m 81.844154,117.75179 -7.854794,4.55859 7.924927,-4.06767 z"
           id="path2089" /><path
           style="fill:#008000;fill-rule:evenodd;stroke:#000000;stroke-width:0.383;stroke-linecap:round;stroke-opacity:1"
           d="m 85.911816,120.41681 0.490926,8.69638 -1.051983,-8.62625 z"
           id="path2091" /><path
           style="fill:#008000;fill-rule:evenodd;stroke:#000000;stroke-width:0.383;stroke-linecap:round;stroke-opacity:1"
           d="m 82.054551,118.73364 -7.854794,6.59241 7.644397,-7.08334 z"
           id="path2093" /><path
           style="fill:#008000;fill-rule:evenodd;stroke:#000000;stroke-width:0.383;stroke-linecap:round;stroke-opacity:1"
           d="m 85.280629,120.69734 -1.613038,9.95875 1.051981,-10.09902 z"
           id="path2095" /><path
           style="fill:#008000;fill-rule:evenodd;stroke:#000000;stroke-width:0.383;stroke-linecap:round;stroke-opacity:1"
           d="m 82.475344,119.0843 -6.171623,8.27558 5.75083,-8.62624 z"
           id="path2097" /><path
           style="fill:#008000;fill-rule:evenodd;stroke:#000000;stroke-width:0.383;stroke-linecap:round;stroke-opacity:1"
           d="m 84.929968,120.55707 -3.717001,8.97691 3.085811,-9.18731 z"
           id="path2099" /><path
           style="fill:#008000;fill-rule:evenodd;stroke:#000000;stroke-width:0.383;stroke-linecap:round;stroke-opacity:1"
           d="m 82.755874,119.15443 -3.857268,7.50413 3.506605,-7.78466 z"
           id="path2101" /><path
           style="fill:#008000;fill-rule:evenodd;stroke:#000000;stroke-width:0.383;stroke-linecap:round;stroke-opacity:1"
           d="m 84.509175,120.27654 -4.628719,7.22361 4.207926,-7.8548 z"
           id="path2103" /><path
           style="fill:url(#linearGradient27834);fill-rule:evenodd;stroke:#000000;stroke-width:0.383;stroke-linecap:round;stroke-opacity:1;fill-opacity:1"
           d="m 99.531452,78.614407 c -0.730126,-0.229942 -1.395663,-0.469111 -3.088423,-0.561534 -1.202653,0.08659 -2.645889,-0.185361 -3.02047,-0.512808 -0.437328,-0.446337 -0.501539,-0.456129 -1.612165,-1.171786 -0.822576,-0.189516 -2.150613,0.179418 -2.246124,0.982681 0.0049,1.285109 0.543993,2.095335 1.824976,2.246125 0.786945,0.191456 1.8744,0.232657 3.228806,0.140383 1.543786,-0.186751 2.80348,-0.08941 4.071104,0 z"
           id="path2831"
           sodipodi:nodetypes="ccccccccc" /><path
           style="fill:url(#linearGradient27802);fill-rule:evenodd;stroke:#000000;stroke-width:0.383;stroke-linecap:round;stroke-opacity:1;fill-opacity:1"
           d="m 110.48132,85.914314 c 0.7214,0.39288 1.10914,0.869174 1.26344,1.403828 l 1.26345,1.82498 2.80766,2.52689 c 1.13159,1.693498 0.49314,2.813297 0,3.228805 -1.70571,0.800567 -2.35545,-0.114819 -2.94805,-1.123061 -0.81526,-1.403829 -1.43555,-2.807657 -1.68459,-4.211486 -0.17585,-1.379697 -0.81902,-1.824732 -1.40383,-2.38651 z"
           id="path2833"
           sodipodi:nodetypes="ccccccccc" /><path
           style="fill:url(#linearGradient27826);fill-rule:evenodd;stroke:#000000;stroke-width:0.383;stroke-linecap:round;stroke-opacity:1;fill-opacity:1"
           d="m 108.64159,89.811059 c 1.09909,1.63468 0.82946,2.585 0.85705,3.683929 -0.36168,1.31801 -0.9112,1.13335 -1.40383,1.403829 -0.46646,-0.424611 -0.45644,-1.890072 -0.50833,-3.282009 z"
           id="path2835"
           sodipodi:nodetypes="ccccc" /><path
           style="fill:url(#linearGradient27840);fill-rule:evenodd;stroke:#000000;stroke-width:0.383;stroke-linecap:round;stroke-opacity:1;fill-opacity:1"
           d="m 96.021881,82.825891 c -2.400233,-0.319277 -3.02018,0.494355 -3.930721,1.123063 -0.298567,1.063756 -0.128294,1.471136 0.280767,1.544212 0.572859,-0.104916 1.525498,-0.589612 2.807658,-1.403829 z"
           id="path2837"
           sodipodi:nodetypes="ccccc" /><path
           style="fill:url(#linearGradient27836);fill-rule:evenodd;stroke:#000000;stroke-width:0.383;stroke-linecap:round;stroke-opacity:1;fill-opacity:1"
           d="m 99.671834,78.474024 c -0.194554,-0.600949 -0.518265,-1.072741 -0.140382,-2.246127 1.267058,-1.274298 2.061878,-1.131845 2.948038,-1.263447 l 0.56154,0.701916 c -0.71982,0.152511 -1.32911,0.08399 -2.42709,0.992823 l 0.0101,1.06809 z"
           id="path2839"
           sodipodi:nodetypes="ccccccc" /><path
           style="fill:#ffffff;fill-rule:evenodd;stroke:#000000;stroke-width:0.383;stroke-linecap:round;stroke-opacity:1"
           d="M 110.90247,83.106658 Z"
           id="path2841" /><path
           style="fill:url(#linearGradient27818);fill-rule:evenodd;stroke:#000000;stroke-width:0.383;stroke-linecap:round;stroke-opacity:1;fill-opacity:1"
           d="m 110.52615,85.147282 c 0.69147,-0.408449 1.27209,-0.595187 2.34167,-1.759858 0.0867,-0.615238 -0.0323,-1.436111 -0.14038,-2.246128 -0.21102,-0.532175 -0.41038,-1.067261 -1.40383,-1.403828 l -0.2055,0.767034 0.76703,0.636794 c 0.13344,0.619705 0.19872,1.171256 -0.0651,1.393685 -0.20902,0.469762 -0.68278,0.900588 -1.08837,1.173787 z"
           id="path2843"
           sodipodi:nodetypes="ccccccccc" /><path
           style="fill:url(#linearGradient27810);fill-rule:evenodd;stroke:#000000;stroke-width:0.383;stroke-linecap:round;stroke-opacity:1;fill-opacity:1"
           d="m 112.84818,83.088352 c 1.57186,0.659073 3.30492,-0.01525 3.95553,0.457155 0.18749,1.623707 -0.48498,1.472594 -1.55824,1.823055 -1.80146,0.468087 -2.30357,-0.513712 -3.12763,-1.023029 z"
           id="path2845"
           sodipodi:nodetypes="ccccc" /><path
           style="fill:#ffffff;stroke:#000000;stroke-width:0.182138;stroke-linecap:round;stroke-opacity:1"
           d="m 97.458416,77.241161 c 1.666543,-0.381294 0.815554,0.418712 1.733562,0.369345"
           id="path493-39-9-3-54-8-5"
           sodipodi:nodetypes="cc" /><path
           style="fill:#ffffff;stroke:#000000;stroke-width:0.182138;stroke-linecap:round;stroke-opacity:1"
           d="m 90.419742,86.102802 c 1.165651,-0.262491 0.751745,0.01611 1.643666,-0.663336"
           id="path493-39-9-3-54-8-5-18"
           sodipodi:nodetypes="cc" /><path
           style="fill:#ffffff;stroke:#000000;stroke-width:0.182138;stroke-linecap:round;stroke-opacity:1"
           d="m 90.27976,85.331768 c 1.283349,-0.212021 0.891757,-0.0244 1.643666,-0.663336"
           id="path493-39-9-3-54-8-5-18-49"
           sodipodi:nodetypes="cc" /><path
           style="fill:#ffffff;stroke:#000000;stroke-width:0.182138;stroke-linecap:round;stroke-opacity:1"
           d="m 90.560289,84.70058 c 1.104152,-0.857942 0.880146,-0.08539 1.643666,-0.663336"
           id="path493-39-9-3-54-8-5-18-4"
           sodipodi:nodetypes="cc" /><path
           style="fill:url(#linearGradient27838);fill-rule:evenodd;stroke:#000000;stroke-width:0.383;stroke-linecap:round;stroke-opacity:1;fill-opacity:1"
           d="m 99.660304,76.1167 c -0.660217,-1.117987 -0.616662,-3.291632 -2.012606,-3.306027 -0.290261,0.590755 -1.356258,0.738233 -0.381893,2.051632 l 1.981942,2.138048 z"
           id="path2847"
           sodipodi:nodetypes="ccccc" /><path
           style="fill:#ffffff;stroke:#000000;stroke-width:0.183;stroke-linecap:round;stroke-opacity:1"
           d="m 104.77735,70.342492 c 0.4053,-0.281974 0.58941,-1.699998 0.63119,-2.454624"
           id="path493"
           sodipodi:nodetypes="cc" /><path
           style="fill:#ffffff;stroke:#000000;stroke-width:0.183;stroke-linecap:round;stroke-opacity:1"
           d="m 103.40978,69.115181 c 0.4053,-0.281974 0.58941,-1.699998 0.63119,-2.454624"
           id="path493-3"
           sodipodi:nodetypes="cc" /><path
           style="fill:#ffffff;stroke:#000000;stroke-width:0.183;stroke-linecap:round;stroke-opacity:1"
           d="m 102.00713,68.41386 c 0.4053,-0.281974 0.58941,-1.699998 0.63119,-2.454624"
           id="path493-7"
           sodipodi:nodetypes="cc" /><path
           style="fill:#ffffff;stroke:#000000;stroke-width:0.183;stroke-linecap:round;stroke-opacity:1"
           d="m 100.46422,67.502143 c 0.4053,-0.281974 0.58941,-1.699998 0.63119,-2.454624"
           id="path493-9"
           sodipodi:nodetypes="cc" /><path
           style="fill:#ffffff;stroke:#000000;stroke-width:0.183;stroke-linecap:round;stroke-opacity:1"
           d="m 99.061585,66.590426 c 0.4053,-0.281974 0.58941,-1.699998 0.63119,-2.454624"
           id="path493-0"
           sodipodi:nodetypes="cc" /><path
           style="fill:#ffffff;stroke:#000000;stroke-width:0.183;stroke-linecap:round;stroke-opacity:1"
           d="m 97.378415,65.74884 c 0.4053,-0.281974 0.58941,-1.699998 0.63119,-2.454624"
           id="path493-2"
           sodipodi:nodetypes="cc" /><path
           style="fill:#ffffff;stroke:#000000;stroke-width:0.183;stroke-linecap:round;stroke-opacity:1"
           d="m 95.695244,64.907255 c 0.4053,-0.281974 0.58941,-1.699998 0.63119,-2.454624"
           id="path493-39"
           sodipodi:nodetypes="cc" /><path
           style="fill:#ffffff;stroke:#000000;stroke-width:0.183;stroke-linecap:round;stroke-opacity:1"
           d="m 94.012074,64.205934 c 0.4053,-0.281974 0.58941,-1.699998 0.63119,-2.454624"
           id="path493-97"
           sodipodi:nodetypes="cc" /><path
           style="fill:#ffffff;stroke:#000000;stroke-width:0.183;stroke-linecap:round;stroke-opacity:1"
           d="m 92.399036,63.574745 c 0.4053,-0.281974 0.58941,-1.699998 0.63119,-2.454624"
           id="path493-03"
           sodipodi:nodetypes="cc" /><path
           style="fill:#ffffff;stroke:#000000;stroke-width:0.183;stroke-linecap:round;stroke-opacity:1"
           d="m 89.593752,62.312368 c 0.4053,-0.281974 0.58941,-1.699998 0.63119,-2.454624"
           id="path493-98"
           sodipodi:nodetypes="cc" /><path
           style="fill:#ffffff;stroke:#000000;stroke-width:0.183;stroke-linecap:round;stroke-opacity:1"
           d="m 90.996395,62.873425 c 0.4053,-0.281974 0.58941,-1.699998 0.63119,-2.454624"
           id="path493-6"
           sodipodi:nodetypes="cc" /><path
           style="fill:#ffffff;stroke:#000000;stroke-width:0.183;stroke-linecap:round;stroke-opacity:1"
           d="m 87.980714,61.540915 c 0.4053,-0.281974 0.58941,-1.699998 0.63119,-2.454624"
           id="path493-5"
           sodipodi:nodetypes="cc" /><path
           style="fill:#ffffff;stroke:#000000;stroke-width:0.183;stroke-linecap:round;stroke-opacity:1"
           d="m 86.297544,60.839593 c 0.4053,-0.281974 0.58941,-1.699998 0.63119,-2.454624"
           id="path493-76"
           sodipodi:nodetypes="cc" /><path
           style="fill:#ffffff;stroke:#000000;stroke-width:0.183;stroke-linecap:round;stroke-opacity:1"
           d="m 84.614373,60.06814 c 0.4053,-0.281974 0.58941,-1.699998 0.63119,-2.454624"
           id="path493-27"
           sodipodi:nodetypes="cc" /><path
           style="fill:#ffffff;stroke:#000000;stroke-width:0.183;stroke-linecap:round;stroke-opacity:1"
           d="m 83.071467,59.436952 c 0.4053,-0.281974 0.58941,-1.699998 0.63119,-2.454624"
           id="path493-039"
           sodipodi:nodetypes="cc" /><path
           style="fill:#ffffff;stroke:#000000;stroke-width:0.183;stroke-linecap:round;stroke-opacity:1"
           d="m 81.388297,58.665499 c 0.4053,-0.281974 0.58941,-1.699998 0.63119,-2.454624"
           id="path493-99"
           sodipodi:nodetypes="cc" /><path
           style="fill:#ffffff;stroke:#000000;stroke-width:0.183;stroke-linecap:round;stroke-opacity:1"
           d="m 79.705127,57.964178 c 0.4053,-0.281974 0.58941,-1.699998 0.63119,-2.454624"
           id="path493-1"
           sodipodi:nodetypes="cc" /><path
           style="fill:#ffffff;stroke:#000000;stroke-width:0.182138;stroke-linecap:round;stroke-opacity:1"
           d="m 140.64194,91.901988 c -0.008,-0.493745 1.02723,-1.414694 1.61044,-1.857455"
           id="path493-36-3"
           sodipodi:nodetypes="cc" /><path
           style="fill:#ffffff;stroke:#000000;stroke-width:0.182138;stroke-linecap:round;stroke-opacity:1"
           d="m 141.9479,92.775041 c -0.008,-0.493753 1.02724,-1.414701 1.61045,-1.857446"
           id="path493-55-8"
           sodipodi:nodetypes="cc" /><path
           style="fill:#ffffff;stroke:#000000;stroke-width:0.182138;stroke-linecap:round;stroke-opacity:1"
           d="m 142.95794,93.939846 c -0.008,-0.49373 1.02724,-1.414686 1.61044,-1.857448"
           id="path493-8-4"
           sodipodi:nodetypes="cc" /><path
           style="fill:#ffffff;stroke:#000000;stroke-width:0.182138;stroke-linecap:round;stroke-opacity:1"
           d="m 144.0311,95.17411 c -0.008,-0.493729 1.02724,-1.414678 1.61044,-1.857439"
           id="path493-14-8"
           sodipodi:nodetypes="cc" /><path
           style="fill:#ffffff;stroke:#000000;stroke-width:0.182138;stroke-linecap:round;stroke-opacity:1"
           d="m 114.89913,76.332916 c -0.008,-0.493731 1.02725,-1.414691 1.61045,-1.857445"
           id="path493-04"
           sodipodi:nodetypes="cc" /><path
           style="fill:#ffffff;stroke:#000000;stroke-width:0.182138;stroke-linecap:round;stroke-opacity:1"
           d="m 116.6783,76.822212 c -0.008,-0.493732 1.02724,-1.41469 1.61044,-1.857445"
           id="path493-3-6"
           sodipodi:nodetypes="cc" /><path
           style="fill:#ffffff;stroke:#000000;stroke-width:0.182138;stroke-linecap:round;stroke-opacity:1"
           d="m 118.12453,77.625137 c -0.008,-0.493741 1.02724,-1.41469 1.61045,-1.857446"
           id="path493-7-0"
           sodipodi:nodetypes="cc" /><path
           style="fill:#ffffff;stroke:#000000;stroke-width:0.182138;stroke-linecap:round;stroke-opacity:1"
           d="m 119.61088,78.362465 c -0.008,-0.493731 1.02724,-1.414691 1.61044,-1.857445"
           id="path493-9-3"
           sodipodi:nodetypes="cc" /><path
           style="fill:#ffffff;stroke:#000000;stroke-width:0.182138;stroke-linecap:round;stroke-opacity:1"
           d="m 121.22645,79.121884 c -0.008,-0.493741 1.02724,-1.414691 1.61045,-1.857449"
           id="path493-0-2"
           sodipodi:nodetypes="cc" /><path
           style="fill:#ffffff;stroke:#000000;stroke-width:0.182138;stroke-linecap:round;stroke-opacity:1"
           d="m 122.87777,80.085385 c -0.008,-0.49374 1.02724,-1.414692 1.61044,-1.857447"
           id="path493-2-6"
           sodipodi:nodetypes="cc" /><path
           style="fill:#ffffff;stroke:#000000;stroke-width:0.182138;stroke-linecap:round;stroke-opacity:1"
           d="m 124.31868,81.329415 c -0.008,-0.493741 1.02724,-1.414691 1.61046,-1.857446"
           id="path493-39-9"
           sodipodi:nodetypes="cc" /><path
           style="fill:#ffffff;stroke:#000000;stroke-width:0.182138;stroke-linecap:round;stroke-opacity:1"
           d="m 115.98827,94.85189 c 0.0653,-0.07158 1.27104,0.269402 1.97851,1.621363"
           id="path493-39-9-3"
           sodipodi:nodetypes="cc" /><path
           style="fill:#ffffff;stroke:#000000;stroke-width:0.182138;stroke-linecap:round;stroke-opacity:1"
           d="m 115.14949,95.131689 c 0.0653,-0.0716 0.61288,1.153425 1.94434,1.840251"
           id="path493-39-9-3-5"
           sodipodi:nodetypes="cc" /><path
           style="fill:#ffffff;stroke:#000000;stroke-width:0.182138;stroke-linecap:round;stroke-opacity:1"
           d="m 114.30791,95.201819 c 0.0653,-0.07158 0.22203,1.036864 1.55772,1.901891"
           id="path493-39-9-3-4"
           sodipodi:nodetypes="cc" /><path
           style="fill:#ffffff;stroke:#000000;stroke-width:0.182138;stroke-linecap:round;stroke-opacity:1"
           d="m 113.25592,94.640763 c 0.0653,-0.07158 0.15765,1.308915 1.13693,2.182419"
           id="path493-39-9-3-3"
           sodipodi:nodetypes="cc" /><path
           style="fill:#ffffff;stroke:#000000;stroke-width:0.182138;stroke-linecap:round;stroke-opacity:1"
           d="m 116.34174,93.869309 c 0.0445,-0.04881 0.3772,0.265509 1.06587,0.643268 0.32119,0.176182 1.05096,0.02541 1.36242,0.303225"
           id="path493-39-9-3-6"
           sodipodi:nodetypes="csc" /><path
           style="fill:#ffffff;stroke:#000000;stroke-width:0.182138;stroke-linecap:round;stroke-opacity:1"
           d="m 116.62227,93.167988 c 0.0653,-0.07158 0.93136,-0.08476 1.91064,0.788743"
           id="path493-39-9-3-59"
           sodipodi:nodetypes="cc" /><path
           style="fill:#ffffff;stroke:#000000;stroke-width:0.182138;stroke-linecap:round;stroke-opacity:1"
           d="m 116.13135,91.905611 c -0.21523,-0.07158 1.09709,-0.361314 2.07637,0.51219"
           id="path493-39-9-3-54"
           sodipodi:nodetypes="cc" /><path
           style="fill:#ffffff;stroke:#000000;stroke-width:0.182138;stroke-linecap:round;stroke-opacity:1"
           d="m 100.04741,73.777188 c 1.28907,1.404911 0.12808,0.941173 0.71613,1.621363"
           id="path493-39-9-3-54-8"
           sodipodi:nodetypes="cc" /><path
           style="fill:#ffffff;stroke:#000000;stroke-width:0.182138;stroke-linecap:round;stroke-opacity:1"
           d="m 100.84255,73.318944 c 0.98203,1.441255 0.14449,0.902897 0.71613,1.621363"
           id="path493-39-9-3-54-8-8"
           sodipodi:nodetypes="cc" /><path
           style="fill:#ffffff;stroke:#000000;stroke-width:0.182138;stroke-linecap:round;stroke-opacity:1"
           d="m 102.24519,73.389077 c 0.51104,0.820737 -0.75957,0.804009 -0.12545,1.621363"
           id="path493-39-9-3-54-8-3"
           sodipodi:nodetypes="cc" /><path
           style="fill:#ffffff;stroke:#000000;stroke-width:0.189842;stroke-linecap:round;stroke-opacity:1"
           d="m 112.3083,86.324616 c 0.20153,-1.054583 -0.62328,-0.710624 -0.8175,-1.636371"
           id="path493-39-9-3-54-8-5-2"
           sodipodi:nodetypes="cc" /><path
           style="fill:#ffffff;stroke:#000000;stroke-width:0.189842;stroke-linecap:round;stroke-opacity:1"
           d="m 109.04337,96.758893 c -0.81065,-1.020801 -0.63776,-0.739366 -0.8175,-1.636371"
           id="path493-39-9-3-54-8-5-2-7"
           sodipodi:nodetypes="cc" /><path
           style="fill:#ffffff;stroke:#000000;stroke-width:0.189842;stroke-linecap:round;stroke-opacity:1"
           d="m 109.81482,96.197837 c -0.1358,-1.060414 -0.62319,-0.717574 -0.8175,-1.636371"
           id="path493-39-9-3-54-8-5-2-8"
           sodipodi:nodetypes="cc" /><path
           style="fill:#ffffff;stroke:#000000;stroke-width:0.189842;stroke-linecap:round;stroke-opacity:1"
           d="m 110.30575,94.584798 c -0.0834,-0.336418 -0.16089,-0.559317 -0.23305,-0.712813 -0.24915,-0.529949 0.22452,-0.279783 -0.45093,-0.601584"
           id="path493-39-9-3-54-8-5-2-4"
           sodipodi:nodetypes="csc" /><path
           style="fill:#ffffff;stroke:#000000;stroke-width:0.189842;stroke-linecap:round;stroke-opacity:1"
           d="m 115.24788,82.394458 c -1.60471,-0.752393 -1.31115,0.329253 -2.25165,-0.138289"
           id="path493-39-9-3-54-8-2"
           sodipodi:nodetypes="cc" /><path
           style="fill:#ffffff;stroke:#000000;stroke-width:0.189842;stroke-linecap:round;stroke-opacity:1"
           d="m 115.05892,81.249753 c -1.6047,-0.752383 -1.28819,0.412627 -2.22868,-0.05491"
           id="path493-39-9-3-54-8-8-6"
           sodipodi:nodetypes="cc" /><path
           style="fill:#ffffff;stroke:#000000;stroke-width:0.189842;stroke-linecap:round;stroke-opacity:1"
           d="m 114.01916,79.790241 c -1.60469,-0.752383 -0.81717,0.745959 -1.75767,0.278434"
           id="path493-39-9-3-54-8-3-6"
           sodipodi:nodetypes="cc" /><path
           style="fill:#ffffff;stroke:#000000;stroke-width:0.196007;stroke-linecap:round;stroke-opacity:1"
           d="m 90.14205,76.474278 c -0.09642,-0.05193 -0.789238,-1.372693 -2.25377,-1.648348"
           id="path493-39-9-3-9"
           sodipodi:nodetypes="cc" /><path
           style="fill:#ffffff;stroke:#000000;stroke-width:0.196007;stroke-linecap:round;stroke-opacity:1"
           d="m 90.887133,76.259955 c 0.0013,0.08287 0.331255,-0.388077 -1.158567,-0.983699 -0.318664,-0.1274 -0.175666,-0.658345 -0.615873,-0.949845"
           id="path493-39-9-3-5-1"
           sodipodi:nodetypes="csc" /><path
           style="fill:#ffffff;stroke:#000000;stroke-width:0.196007;stroke-linecap:round;stroke-opacity:1"
           d="m 91.844042,76.323432 c -0.245344,0.150244 -0.513111,-0.562649 -0.839474,-1.379245 -0.0877,-0.219431 -0.749509,-0.404576 -0.863083,-0.618941"
           id="path493-39-9-3-4-7"
           sodipodi:nodetypes="csc" /><path
           style="fill:#ffffff;stroke:#000000;stroke-width:0.196007;stroke-linecap:round;stroke-opacity:1"
           d="m 92.833747,76.899315 c -0.0743,0.07277 -0.17959,-1.3307 -1.29511,-2.218742"
           id="path493-39-9-3-3-5"
           sodipodi:nodetypes="cc" /><path
           style="fill:#ffffff;stroke:#000000;stroke-width:0.196007;stroke-linecap:round;stroke-opacity:1"
           d="m 89.458871,77.192685 c -0.09114,0.07172 -0.647098,-0.36355 -1.93421,-1.577049"
           id="path493-39-9-3-6-5"
           sodipodi:nodetypes="cc" /><path
           style="fill:#ffffff;stroke:#000000;stroke-width:0.196007;stroke-linecap:round;stroke-opacity:1"
           d="m 89.560104,78.326471 c 0.095,-0.06426 -1.196618,-0.407232 -2.01409,-1.434449"
           id="path493-39-9-3-59-4"
           sodipodi:nodetypes="cc" /><path
           style="fill:#ffffff;stroke:#000000;stroke-width:0.196007;stroke-linecap:round;stroke-opacity:1"
           d="m 90.049202,79.189065 c 0.24517,0.07277 -1.56881,-0.05782 -2.68433,-0.945859"
           id="path493-39-9-3-54-1"
           sodipodi:nodetypes="cc" /><path
           style="fill:#ffffff;stroke:#000000;stroke-width:0.182138;stroke-linecap:round;stroke-opacity:1"
           d="m 125.78698,82.36867 c -0.008,-0.493741 1.02724,-1.414691 1.61045,-1.857446"
           id="path493-97-4"
           sodipodi:nodetypes="cc" /><path
           style="fill:#ffffff;stroke:#000000;stroke-width:0.182138;stroke-linecap:round;stroke-opacity:1"
           d="m 127.43877,83.246457 c -0.008,-0.493743 1.02724,-1.414694 1.61045,-1.857448"
           id="path493-03-1"
           sodipodi:nodetypes="cc" /><path
           style="fill:#ffffff;stroke:#000000;stroke-width:0.182138;stroke-linecap:round;stroke-opacity:1"
           d="m 130.07807,84.857911 c -0.008,-0.49374 1.02724,-1.414693 1.61046,-1.857446"
           id="path493-98-3"
           sodipodi:nodetypes="cc" /><path
           style="fill:#ffffff;stroke:#000000;stroke-width:0.182138;stroke-linecap:round;stroke-opacity:1"
           d="m 128.81487,84.119504 c -0.008,-0.49374 1.02724,-1.414691 1.61045,-1.857444"
           id="path493-6-7"
           sodipodi:nodetypes="cc" /><path
           style="fill:#ffffff;stroke:#000000;stroke-width:0.182138;stroke-linecap:round;stroke-opacity:1"
           d="m 131.63237,85.940471 c -0.008,-0.493741 1.02724,-1.414691 1.61044,-1.857445"
           id="path493-5-8"
           sodipodi:nodetypes="cc" /><path
           style="fill:#ffffff;stroke:#000000;stroke-width:0.182138;stroke-linecap:round;stroke-opacity:1"
           d="m 133.10065,86.909593 c -0.008,-0.49374 1.02725,-1.414691 1.61046,-1.857447"
           id="path493-76-8"
           sodipodi:nodetypes="cc" /><path
           style="fill:#ffffff;stroke:#000000;stroke-width:0.182138;stroke-linecap:round;stroke-opacity:1"
           d="m 134.76566,87.910973 c -0.008,-0.493741 1.02724,-1.414691 1.61045,-1.857445"
           id="path493-27-3"
           sodipodi:nodetypes="cc" /><path
           style="fill:#ffffff;stroke:#000000;stroke-width:0.182138;stroke-linecap:round;stroke-opacity:1"
           d="m 136.16647,88.799805 c -0.008,-0.493739 1.02724,-1.414693 1.61045,-1.857446"
           id="path493-039-8"
           sodipodi:nodetypes="cc" /><path
           style="fill:#ffffff;stroke:#000000;stroke-width:0.182138;stroke-linecap:round;stroke-opacity:1"
           d="m 137.83147,89.731052 c -0.008,-0.493742 1.02723,-1.414693 1.61045,-1.857446"
           id="path493-99-1"
           sodipodi:nodetypes="cc" /><path
           style="fill:#ffffff;stroke:#000000;stroke-width:0.182138;stroke-linecap:round;stroke-opacity:1"
           d="m 139.36989,90.770307 c -0.008,-0.493738 1.02724,-1.414687 1.61045,-1.857447"
           id="path493-1-5"
           sodipodi:nodetypes="cc" /></g></g></g></svg>
