<?xml version="1.0" encoding="UTF-8" standalone="no"?>
<!-- Created with Inkscape (http://www.inkscape.org/) -->

<svg
   width="222.71716mm"
   height="105.94136mm"
   viewBox="0 0 222.71716 105.94136"
   version="1.1"
   id="svg5"
   xml:space="preserve"
   inkscape:version="1.2 (dc2aeda, 2022-05-15)"
   sodipodi:docname="paramecium_caudatum.svg"
   xmlns:inkscape="http://www.inkscape.org/namespaces/inkscape"
   xmlns:sodipodi="http://sodipodi.sourceforge.net/DTD/sodipodi-0.dtd"
   xmlns="http://www.w3.org/2000/svg"
   xmlns:svg="http://www.w3.org/2000/svg"><sodipodi:namedview
     id="namedview7"
     pagecolor="#ffffff"
     bordercolor="#000000"
     borderopacity="0.25"
     inkscape:showpageshadow="2"
     inkscape:pageopacity="0.0"
     inkscape:pagecheckerboard="0"
     inkscape:deskcolor="#d1d1d1"
     inkscape:document-units="mm"
     showgrid="false"
     inkscape:zoom="1.01"
     inkscape:cx="558.91089"
     inkscape:cy="160.89109"
     inkscape:window-width="1820"
     inkscape:window-height="1033"
     inkscape:window-x="0"
     inkscape:window-y="25"
     inkscape:window-maximized="0"
     inkscape:current-layer="layer1" /><defs
     id="defs2" /><g
     inkscape:label="Layer 1"
     inkscape:groupmode="layer"
     id="layer1"
     transform="translate(9.0951495,-85.114072)"><g
       id="g2148"
       transform="rotate(-135.51633,107.41883,142.1988)"><g
         id="g2521"
         transform="matrix(1.6978853,0,0,1.8249339,-127.30155,-185.38605)"><path
           id="path417"
           style="fill:#669900;stroke:#ffffff;stroke-width:0.765;stroke-dasharray:none"
           d="m 183.05658,140.80934 c 0.76178,7.19201 -1.80257,19.95639 -4.0423,27.82113 -4.22435,14.83369 -22.56721,29.09971 -24.04884,31.07301 -1.83781,2.44768 -21.90129,16.93269 -29.79107,19.23017 -12.26789,4.84602 -18.54174,2.5697 -24.1679,-0.47622 -5.627262,-4.28795 -7.389382,-8.88541 -7.500392,-14.76266 0.24389,-4.52943 1.48029,-8.79995 5.35742,-12.38158 2.363692,-2.0074 5.345302,-3.22069 8.512342,-3.89901 2.77567,-0.2335 5.42764,-0.41111 8.03612,-2.05367 1.2843,-1.36906 2.4706,-2.02417 4.28594,-7.26228 1.73239,-5.27156 3.87749,-10.43994 7.50038,-15.23887 6.69945,-8.67343 10.53514,-12.54812 13.09591,-14.28645 5.21348,-3.74766 11.40849,-6.98638 19.64386,-9.16713 5.97092,-1.67205 10.27317,-2.18047 18.02241,-2.27483 0.28,-0.003 1.75959,0.10751 2.04057,0.1416 2.08179,0.25256 2.98213,2.84358 3.05555,3.53679 z" /><path
           id="path570"
           style="fill:#99cc33;stroke:none;stroke-width:0.264583"
           d="m 112.01119,187.29855 c 1.67307,-0.78777 2.7869,-0.50036 5.35743,-3.39303 2.79806,-4.8957 3.5897,-10.0624 5.59924,-13.24319 5.11085,-3.44598 7.02957,-2.5588 9.51955,-0.95944 2.2142,1.42222 3.15109,2.79286 2.70897,5.5244 -0.0753,0.90206 -1.411,4.12143 -1.91243,5.1142 -2.54585,5.04042 -2.41511,4.11447 -4.4513,5.97698 -1.9171,0.96012 -6.07882,2.76746 -8.84486,3.03375 -2.91716,0.0583 -5.84129,-0.3919 -7.9766,-2.05367 z" /><path
           id="path1307"
           style="fill:#007400;stroke:none;stroke-width:0.1;stroke-dasharray:none"
           d="m 118.94982,177.50968 -4.88258,-1.76218 0.0581,-0.1598 4.99083,1.47955 z" /><path
           id="path1307-5"
           style="fill:#007400;stroke:none;stroke-width:0.1;stroke-dasharray:none"
           d="m 119.86774,174.72943 -4.88258,-1.76218 0.0581,-0.1598 4.99083,1.47955 z" /><path
           id="path1307-38"
           style="fill:#007400;stroke:none;stroke-width:0.1;stroke-dasharray:none"
           d="m 116.03016,183.40745 -4.18717,-3.06797 0.10086,-0.13692 4.37076,2.82735 z" /><path
           id="path1307-5-7"
           style="fill:#007400;stroke:none;stroke-width:0.1;stroke-dasharray:none"
           d="m 117.77178,180.51092 -4.76641,-2.05577 0.0677,-0.15597 4.89164,1.78024 z" /><path
           id="path1307-3"
           style="fill:#007400;stroke:none;stroke-width:0.1;stroke-dasharray:none"
           d="m 120.99013,171.96664 -4.88258,-1.76218 0.0581,-0.1598 4.99083,1.47955 z" /><path
           id="path1307-1"
           style="fill:#007400;stroke:none;stroke-width:0.1;stroke-dasharray:none"
           d="m 122.08847,169.44095 -4.75816,-2.0748 0.0683,-0.1557 4.88449,1.79978 z" /><path
           id="path1307-0"
           style="fill:#007400;stroke:none;stroke-width:0.1;stroke-dasharray:none"
           d="m 123.44607,167.00985 -4.56145,-2.4775 0.0815,-0.14923 4.71103,2.21441 z" /><path
           id="path1307-5-1"
           style="fill:#007400;stroke:none;stroke-width:0.1;stroke-dasharray:none"
           d="m 124.87221,164.48194 -4.29502,-2.91507 0.0958,-0.14047 4.46981,2.668 z" /><path
           id="path1307-3-9"
           style="fill:#007400;stroke:none;stroke-width:0.1;stroke-dasharray:none"
           d="m 126.76005,161.97278 -4.10584,-3.176 0.10435,-0.13425 4.29563,2.94025 z" /><path
           id="path1307-1-5"
           style="fill:#007400;stroke:none;stroke-width:0.1;stroke-dasharray:none"
           d="m 128.80584,159.44873 -4.13853,-3.13328 0.10296,-0.13532 4.32586,2.89557 z" /><path
           id="path1307-7"
           style="fill:#007400;stroke:none;stroke-width:0.1;stroke-dasharray:none"
           d="m 130.57753,157.22373 -3.91243,-3.41141 0.11204,-0.12789 4.11573,3.1872 z" /><path
           id="path1307-5-6"
           style="fill:#007400;stroke:none;stroke-width:0.1;stroke-dasharray:none"
           d="m 132.40892,154.95414 -3.92596,-3.39584 0.11154,-0.12833 4.12836,3.17081 z" /><path
           id="path1307-3-8"
           style="fill:#007400;stroke:none;stroke-width:0.1;stroke-dasharray:none"
           d="m 134.7376,152.53928 -3.92123,-3.40129 0.11172,-0.12819 4.12394,3.17656 z" /><path
           id="path1307-1-54"
           style="fill:#007400;stroke:none;stroke-width:0.1;stroke-dasharray:none"
           d="m 136.88882,150.25193 -3.56918,-3.76906 0.12374,-0.11662 3.79293,3.56526 z" /><path
           id="path1307-7-8"
           style="fill:#007400;stroke:none;stroke-width:0.1;stroke-dasharray:none"
           d="m 139.41163,148.10527 -3.43241,-3.89403 0.12781,-0.11213 3.6633,3.69835 z" /><path
           id="path1307-5-6-9"
           style="fill:#007400;stroke:none;stroke-width:0.1;stroke-dasharray:none"
           d="m 142.18504,146.03747 -3.00634,-4.23164 0.13884,-0.0981 3.25643,4.06117 z" /><path
           id="path1307-3-8-4"
           style="fill:#007400;stroke:none;stroke-width:0.1;stroke-dasharray:none"
           d="m 145.4413,144.01141 -2.52903,-4.53308 0.14868,-0.0825 2.79615,4.39078 z" /><path
           id="path1307-1-54-7"
           style="fill:#007400;stroke:none;stroke-width:0.1;stroke-dasharray:none"
           d="m 148.8423,142.30698 -1.99734,-4.79118 0.15709,-0.0651 2.27891,4.68018 z" /><path
           id="path1307-1-54-0"
           style="fill:#007400;stroke:none;stroke-width:0.1;stroke-dasharray:none"
           d="m 152.22952,140.90022 -1.57067,-4.94751 0.16218,-0.0511 1.86086,4.86153 z" /><path
           id="path1307-7-8-4"
           style="fill:#007400;stroke:none;stroke-width:0.1;stroke-dasharray:none"
           d="m 155.78358,139.66035 -1.49471,-4.97099 0.16294,-0.0486 1.78618,4.88948 z" /><path
           id="path1307-5-6-9-0"
           style="fill:#007400;stroke:none;stroke-width:0.1;stroke-dasharray:none"
           d="m 158.97298,138.7308 -1.02783,-5.08806 0.16671,-0.0333 1.32561,5.03391 z" /><path
           id="path1307-3-8-4-6"
           style="fill:#007400;stroke:none;stroke-width:0.1;stroke-dasharray:none"
           d="m 162.26008,137.79214 -0.70237,-5.1431 0.16853,-0.0226 1.00297,5.10798 z" /><path
           id="path1307-1-54-7-5"
           style="fill:#007400;stroke:none;stroke-width:0.1;stroke-dasharray:none"
           d="m 165.44185,137.19124 -0.67142,-5.14723 0.16866,-0.0216 0.97224,5.11394 z" /><path
           id="path1307-1-54-0-9"
           style="fill:#007400;stroke:none;stroke-width:0.1;stroke-dasharray:none"
           d="m 168.6244,136.73394 -0.38322,-5.17668 0.16961,-0.0122 0.68542,5.16018 z" /><path
           id="path1307-7-8-4-0"
           style="fill:#007400;stroke:none;stroke-width:0.1;stroke-dasharray:none"
           d="m 171.50488,136.36563 -0.11703,-5.18953 0.17,-0.003 0.41968,5.18857 z" /><path
           id="path1307-5-6-9-0-7"
           style="fill:#007400;stroke:none;stroke-width:0.1;stroke-dasharray:none"
           d="m 174.39383,136.30421 0.095,-5.18996 0.16997,0.004 0.20752,5.20139 z" /><path
           id="path1307-3-8-4-6-6"
           style="fill:#007400;stroke:none;stroke-width:0.1;stroke-dasharray:none"
           d="m 177.2271,136.26013 0.23037,-5.18573 0.16986,0.008 0.0717,5.20502 z" /><path
           id="path1307-1-54-7-5-8"
           style="fill:#007400;stroke:none;stroke-width:0.1;stroke-dasharray:none"
           d="m 180.10834,136.28945 0.68616,-5.14528 0.16849,0.0229 -0.387,5.19113 z" /><path
           id="path1307-3-8-4-6-6-9"
           style="fill:#007400;stroke:none;stroke-width:0.1;stroke-dasharray:none"
           d="m 182.03365,136.96832 2.9269,-4.28697 0.14018,0.0963 -2.68028,4.46245 z" /><path
           id="path1307-1-54-7-5-8-6"
           style="fill:#007400;stroke:none;stroke-width:0.1;stroke-dasharray:none"
           d="m 183.22101,138.45686 4.60748,-2.39079 0.0779,0.15114 -4.47335,2.6621 z" /><path
           id="path1307-1-54-7-5-8-6-7"
           style="fill:#007400;stroke:none;stroke-width:0.1;stroke-dasharray:none"
           d="m 184.00139,141.01092 5.18632,-0.2163 0.007,0.16989 -5.17962,0.5189 z" /><path
           id="path1307-1-54-7-5-8-6-7-8"
           style="fill:#007400;stroke:none;stroke-width:0.1;stroke-dasharray:none"
           d="m 184.0448,143.42352 5.18982,0.10256 -0.003,0.17 -5.20171,0.19988 z" /><path
           id="path1307-1-54-7-5-8-6-7-9"
           style="fill:#007400;stroke:none;stroke-width:0.1;stroke-dasharray:none"
           d="m 183.97939,145.73355 5.17992,0.33635 -0.0111,0.16967 -5.20544,-0.0348 z" /><path
           id="path1307-1-54-7-5-8-6-7-8-7"
           style="fill:#007400;stroke:none;stroke-width:0.1;stroke-dasharray:none"
           d="m 183.87075,148.29901 5.16946,0.47058 -0.015,0.16936 -5.20278,-0.16975 z" /><path
           id="path1307-1-54-7-5-8-6-7-5"
           style="fill:#007400;stroke:none;stroke-width:0.1;stroke-dasharray:none"
           d="m 183.58137,150.80027 5.14737,0.67031 -0.022,0.1686 -5.19231,-0.37099 z" /><path
           id="path1307-1-54-7-5-8-6-7-8-5"
           style="fill:#007400;stroke:none;stroke-width:0.1;stroke-dasharray:none"
           d="m 183.26305,153.60515 5.11624,0.87682 -0.0284,0.16764 -5.17318,-0.57955 z" /><path
           id="path1307-1-54-7-5-8-6-7-9-2"
           style="fill:#007400;stroke:none;stroke-width:0.1;stroke-dasharray:none"
           d="m 182.89026,156.09719 5.02553,1.29952 -0.0426,0.16459 -5.10702,-1.00806 z" /><path
           id="path1307-1-54-7-5-8-6-7-8-7-4"
           style="fill:#007400;stroke:none;stroke-width:0.1;stroke-dasharray:none"
           d="m 182.42833,158.82443 5.09673,0.98389 -0.0318,0.16702 -5.1599,-0.68789 z" /><path
           id="path1307-1-54-7-5-8-6-7-8-7-1"
           style="fill:#007400;stroke:none;stroke-width:0.1;stroke-dasharray:none"
           d="m 181.81432,161.61061 5.02674,1.29486 -0.042,0.16476 -5.10795,-1.0033 z" /><path
           id="path1307-1-54-7-5-8-6-7-5-7"
           style="fill:#007400;stroke:none;stroke-width:0.1;stroke-dasharray:none"
           d="m 181.24869,164.45216 5.05691,1.17145 -0.0385,0.16564 -5.13096,-0.878 z" /><path
           id="path1307-1-54-7-5-8-6-7-8-5-4"
           style="fill:#007400;stroke:none;stroke-width:0.1;stroke-dasharray:none"
           d="m 180.54359,166.9904 5.00684,1.36978 -0.0446,0.16409 -5.09239,-1.07945 z" /><path
           id="path1307-1-54-7-5-8-6-7-9-2-5"
           style="fill:#007400;stroke:none;stroke-width:0.1;stroke-dasharray:none"
           d="m 179.80749,169.73543 4.96181,1.52484 -0.0499,0.16251 -5.05636,-1.23737 z" /><path
           id="path1307-1-54-7-5-8-6-7-8-7-4-1"
           style="fill:#007400;stroke:none;stroke-width:0.1;stroke-dasharray:none"
           d="m 178.89868,172.20044 4.73557,2.12582 -0.0693,0.15528 -4.86489,-1.85217 z" /><path
           id="path1307-1-54-7-5-8-6-7-8-7-46"
           style="fill:#007400;stroke:none;stroke-width:0.1;stroke-dasharray:none"
           d="m 177.67345,174.71707 4.66958,2.2671 -0.0739,0.15313 -4.80706,-1.99746 z" /><path
           id="path1307-1-54-7-5-8-6-7-5-0"
           style="fill:#007400;stroke:none;stroke-width:0.1;stroke-dasharray:none"
           d="m 176.3632,177.08025 4.43615,2.69543 -0.0883,0.14528 -4.59834,-2.43987 z" /><path
           id="path1307-1-54-7-5-8-6-7-8-5-3"
           style="fill:#007400;stroke:none;stroke-width:0.1;stroke-dasharray:none"
           d="m 174.81175,179.44375 4.1884,3.06626 -0.10017,0.13739 -4.37193,-2.82558 z" /><path
           id="path1307-1-54-7-5-8-6-7-9-2-2"
           style="fill:#007400;stroke:none;stroke-width:0.1;stroke-dasharray:none"
           d="m 173.19444,181.72995 3.89574,3.43045 -0.11239,0.12757 -4.10015,-3.20728 z" /><path
           id="path1307-1-54-7-5-8-6-7-8-7-4-2"
           style="fill:#007400;stroke:none;stroke-width:0.1;stroke-dasharray:none"
           d="m 171.39197,183.98885 3.78782,3.54925 -0.11594,0.12436 -3.99904,-3.33248 z" /><path
           id="path1307-1-54-7-5-8-6-7-8-7-14"
           style="fill:#007400;stroke:none;stroke-width:0.1;stroke-dasharray:none"
           d="m 169.26354,186.43793 3.81975,3.51487 -0.11482,0.12538 -4.029,-3.29617 z" /><path
           id="path1307-1-54-7-5-8-6-7-5-77"
           style="fill:#007400;stroke:none;stroke-width:0.1;stroke-dasharray:none"
           d="m 167.25872,188.67241 3.80369,3.53224 -0.11573,0.12456 -4.01395,-3.31451 z" /><path
           id="path1307-1-54-7-5-8-6-7-8-5-0"
           style="fill:#007400;stroke:none;stroke-width:0.1;stroke-dasharray:none"
           d="m 165.18886,190.88255 3.61124,3.72877 -0.12191,0.11851 -3.83273,-3.52247 z" /><path
           id="path1307-1-54-7-5-8-6-7-9-2-9"
           style="fill:#007400;stroke:none;stroke-width:0.1;stroke-dasharray:none"
           d="m 162.82617,193.30098 3.39359,3.92788 -0.12867,0.11113 -3.62643,-3.73455 z" /><path
           id="path1307-1-54-7-5-8-6-7-8-7-4-5"
           style="fill:#007400;stroke:none;stroke-width:0.1;stroke-dasharray:none"
           d="m 160.47118,195.50814 3.66061,3.6803 -0.12023,0.12021 -3.87934,-3.4711 z" /><path
           id="path1307-1-54-7-5-8-6-7-5-77-7"
           style="fill:#007400;stroke:none;stroke-width:0.1;stroke-dasharray:none"
           d="m 158.11236,197.82349 3.60431,3.73548 -0.12239,0.11802 -3.82619,-3.52959 z" /><path
           id="path1307-1-54-7-5-8-6-7-8-5-0-2"
           style="fill:#007400;stroke:none;stroke-width:0.1;stroke-dasharray:none"
           d="m 155.87859,200.15675 3.61124,3.72877 -0.12191,0.11851 -3.83273,-3.52247 z" /><path
           id="path1307-1-54-7-5-8-6-7-9-2-9-9"
           style="fill:#007400;stroke:none;stroke-width:0.1;stroke-dasharray:none"
           d="m 153.48537,202.39202 3.39359,3.92788 -0.12867,0.11113 -3.62643,-3.73455 z" /><path
           id="path1307-1-54-7-5-8-6-7-8-7-4-5-7"
           style="fill:#007400;stroke:none;stroke-width:0.1;stroke-dasharray:none"
           d="m 150.76411,204.52954 3.42323,3.90207 -0.12751,0.11246 -3.65463,-3.70696 z" /><path
           id="path1307-1-54-7-5-8-6-7-5-77-6"
           style="fill:#007400;stroke:none;stroke-width:0.1;stroke-dasharray:none"
           d="m 148.21888,206.31424 2.95251,4.26936 -0.13987,0.0967 -3.20478,-4.1021 z" /><path
           id="path1307-1-54-7-5-8-6-7-8-5-0-8"
           style="fill:#007400;stroke:none;stroke-width:0.1;stroke-dasharray:none"
           d="m 145.49199,208.26045 2.66872,4.45227 -0.14567,0.0877 -2.93132,-4.30174 z" /><path
           id="path1307-1-54-7-5-8-6-7-9-2-9-2"
           style="fill:#007400;stroke:none;stroke-width:0.1;stroke-dasharray:none"
           d="m 142.73807,210.25363 2.67972,4.44564 -0.14562,0.0877 -2.94193,-4.29452 z" /><path
           id="path1307-1-54-7-5-8-6-7-8-7-4-5-9"
           style="fill:#007400;stroke:none;stroke-width:0.1;stroke-dasharray:none"
           d="m 139.99458,211.93816 2.6305,4.47494 -0.14634,0.0865 -2.89439,-4.3267 z" /><path
           id="path1307-1-54-7-5-8-6-7-5-77-6-1"
           style="fill:#007400;stroke:none;stroke-width:0.1;stroke-dasharray:none"
           d="m 136.55569,214.32346 2.57129,4.50924 -0.14772,0.0842 -2.83711,-4.36448 z" /><path
           id="path1307-1-54-7-5-8-6-7-8-5-0-8-8"
           style="fill:#007400;stroke:none;stroke-width:0.1;stroke-dasharray:none"
           d="m 132.86574,216.46378 2.3129,4.64706 -0.15207,0.0761 -2.58646,-4.5175 z" /><path
           id="path1307-1-54-7-5-8-6-7-9-2-9-2-2"
           style="fill:#007400;stroke:none;stroke-width:0.1;stroke-dasharray:none"
           d="m 129.44076,218.40112 2.02828,4.77815 -0.1565,0.0664 -2.30913,-4.66538 z" /><path
           id="path1307-1-54-7-5-8-6-7-8-7-4-5-9-6"
           style="fill:#007400;stroke:none;stroke-width:0.1;stroke-dasharray:none"
           d="m 125.73748,219.70414 1.30827,5.02325 -0.1644,0.0432 -1.60262,-4.95272 z" /><path
           id="path1307-1-54-7-5-8-6-7-5-77-6-5"
           style="fill:#007400;stroke:none;stroke-width:0.1;stroke-dasharray:none"
           d="m 122.12672,220.88963 1.2997,5.02549 -0.16463,0.0426 -1.59416,-4.95544 z" /><path
           id="path1307-1-54-7-5-8-6-7-8-5-0-8-1"
           style="fill:#007400;stroke:none;stroke-width:0.1;stroke-dasharray:none"
           d="m 118.5367,221.93851 0.84205,5.12208 -0.16772,0.028 -1.14162,-5.07881 z" /><path
           id="path1307-1-54-7-5-8-6-7-9-2-9-2-3"
           style="fill:#007400;stroke:none;stroke-width:0.1;stroke-dasharray:none"
           d="m 115.22474,222.59279 0.12768,5.18924 -0.16994,0.004 -0.43045,-5.18774 z" /><path
           id="path1307-1-54-7-5-8-6-7-8-7-4-5-9-2"
           style="fill:#007400;stroke:none;stroke-width:0.1;stroke-dasharray:none"
           d="m 111.87124,222.75023 -0.23545,5.18547 -0.16984,-0.007 -0.0666,-5.20513 z" /><path
           id="path1307-1-54-7-5-8-6-7-8-5-0-8-1-6"
           style="fill:#007400;stroke:none;stroke-width:0.1;stroke-dasharray:none"
           d="m 108.10357,222.29264 -1.10839,5.07112 -0.16621,-0.0359 0.81401,-5.14151 z" /><path
           id="path1307-1-54-7-5-8-6-7-9-2-9-2-3-9"
           style="fill:#007400;stroke:none;stroke-width:0.1;stroke-dasharray:none"
           d="m 104.63764,221.33919 -1.95946,4.80677 -0.15735,-0.0643 1.68139,-4.92654 z" /><path
           id="path1307-1-54-7-5-8-6-7-8-7-4-5-9-2-0"
           style="fill:#007400;stroke:none;stroke-width:0.1;stroke-dasharray:none"
           d="m 101.49154,219.99133 -2.921326,4.29073 -0.140908,-0.0951 2.674514,-4.46595 z" /><path
           id="path1307-1-54-7-5-8-6-7-8-5-0-8-1-6-3"
           style="fill:#007400;stroke:none;stroke-width:0.1;stroke-dasharray:none"
           d="m 98.644181,217.9014 -3.71516,3.62524 -0.119056,-0.12141 3.508041,-3.84596 z" /><path
           id="path1307-1-54-7-5-8-6-7-9-2-9-2-3-9-9"
           style="fill:#007400;stroke:none;stroke-width:0.1;stroke-dasharray:none"
           d="m 96.296409,215.36232 -4.230499,3.00788 -0.09838,-0.13861 4.059929,-3.25805 z" /><path
           id="path1307-1-54-7-5-8-6-7-8-7-4-5-9-2-0-5"
           style="fill:#007400;stroke:none;stroke-width:0.1;stroke-dasharray:none"
           d="m 94.647121,212.96328 -4.778838,2.02663 -0.06701,-0.15624 4.666149,-2.30755 z" /><path
           id="path1307-1-54-7-5-8-6-7-8-5-0-8-1-6-3-3"
           style="fill:#007400;stroke:none;stroke-width:0.1;stroke-dasharray:none"
           d="m 93.251115,209.88455 -4.953514,1.55162 -0.05121,-0.16216 4.868694,-1.84218 z" /><path
           id="path1307-1-54-7-5-8-6-7-9-2-9-2-3-9-9-1"
           style="fill:#007400;stroke:none;stroke-width:0.1;stroke-dasharray:none"
           d="m 92.656097,207.37029 -5.158885,0.57478 -0.01868,-0.16894 5.131277,-0.87631 z" /><path
           id="path1307-1-54-7-5-8-6-7-8-7-4-5-9-2-0-5-1"
           style="fill:#007400;stroke:none;stroke-width:0.1;stroke-dasharray:none"
           d="m 92.437292,204.38974 -5.186362,-0.21487 0.0063,-0.16988 5.204817,-0.0873 z" /><path
           id="path1307-1-54-7-5-8-6-7-9-2-9-2-3-9-9-1-2"
           style="fill:#007400;stroke:none;stroke-width:0.1;stroke-dasharray:none"
           d="m 93.828155,196.70178 -4.621981,-2.36257 0.07749,-0.15128 4.765067,2.09572 z" /><path
           id="path1307-1-54-7-5-8-6-7-8-7-4-5-9-2-0-5-1-6"
           style="fill:#007400;stroke:none;stroke-width:0.1;stroke-dasharray:none"
           d="m 95.283708,194.03543 -4.176246,-3.08278 0.100367,-0.1372 4.360773,2.84278 z" /><path
           id="path1307-1-54-7-5-8-6-7-9-2-9-2-3-9-9-1-9"
           style="fill:#007400;stroke:none;stroke-width:0.1;stroke-dasharray:none"
           d="m 92.527553,201.67477 -5.15678,-0.59336 0.01957,-0.16883 5.197297,0.29329 z" /><path
           id="path1307-1-54-7-5-8-6-7-8-7-4-5-9-2-0-5-1-1"
           style="fill:#007400;stroke:none;stroke-width:0.1;stroke-dasharray:none"
           d="m 92.937393,199.0629 -4.932858,-1.616 0.05222,-0.16177 5.032723,1.3302 z" /><path
           id="path1307-1-54-7-5-8-6-7-9-2-9-2-3-9-9-1-2-9"
           style="fill:#007400;stroke:none;stroke-width:0.1;stroke-dasharray:none"
           d="m 102.7155,187.861 -1.6708,-4.91455 0.16098,-0.0546 1.95934,4.82275 z" /><path
           id="path1307-1-54-7-5-8-6-7-8-7-4-5-9-2-0-5-1-6-0"
           style="fill:#007400;stroke:none;stroke-width:0.1;stroke-dasharray:none"
           d="m 99.855556,189.48569 -2.591987,-4.49735 0.146907,-0.0856 2.857194,4.35135 z" /><path
           id="path1307-1-54-7-5-8-6-7-8-7-4-5-9-2-0-5-1-1-6"
           style="fill:#007400;stroke:none;stroke-width:0.1;stroke-dasharray:none"
           d="m 97.343073,191.35156 -3.774442,-3.56344 0.116159,-0.12411 3.986548,3.34741 z" /><path
           id="path1307-38-0"
           style="fill:#007400;stroke:none;stroke-width:0.1;stroke-dasharray:none"
           d="m 114.05555,184.99156 -2.9683,-4.2584 0.13975,-0.0969 3.21992,4.09018 z" /><path
           id="path1307-38-3"
           style="fill:#007400;stroke:none;stroke-width:0.1;stroke-dasharray:none"
           d="m 111.74077,185.87926 -1.65214,-4.92091 0.16135,-0.0537 1.94088,4.83016 z" /><path
           id="path1307-38-6"
           style="fill:#007400;stroke:none;stroke-width:0.1;stroke-dasharray:none"
           d="m 109.39068,186.23764 -0.65055,-5.14992 0.16879,-0.0206 0.95152,5.11781 z" /><path
           id="path1307-38-9"
           style="fill:#007400;stroke:none;stroke-width:0.1;stroke-dasharray:none"
           d="m 107.16467,186.41965 -0.71942,-5.14075 0.16847,-0.0231 1.01991,5.10464 z" /><path
           id="path1307-38-1"
           style="fill:#007400;stroke:none;stroke-width:0.1;stroke-dasharray:none"
           d="m 105.05383,187.02674 -1.31987,-5.02024 0.16457,-0.0428 1.61403,4.94898 z" /><path
           style="fill:#005800;stroke:none;stroke-width:0.1;stroke-dasharray:none"
           d="m 160.6178,165.63918 c 3.13627,-1.27629 5.62038,-0.50527 7.34343,2.65496 2.40405,7.0145 -0.36034,14.8559 -8.34936,17.87157 -5.85248,1.41499 -9.03402,0.19665 -9.21859,-3.97647 0.79029,-3.37163 1.93385,-4.83945 5.09585,-6.66076 1.09877,-0.80381 1.49782,-2.6442 1.59742,-3.04971 -0.17365,-2.82171 1.24283,-5.08155 3.53125,-6.83959 z"
           id="path2315"
           sodipodi:nodetypes="ccccccc" /><path
           style="fill:#005800;stroke:none;stroke-width:0.1;stroke-dasharray:none"
           d="m 154.04204,169.14891 c 2.62816,1.28894 -0.46108,6.35623 -3.24365,4.9604 -2.02803,-1.01732 0.37966,-6.365 3.24365,-4.9604 z"
           id="path2317"
           sodipodi:nodetypes="sss" /></g><path
         style="fill:#006c00;fill-opacity:1;stroke:none;stroke-width:0.176026;stroke-dasharray:none"
         d="m 117.46104,150.13816 c -0.3536,-1.5461 2.41078,-1.97701 2.21119,-0.65964 -0.3447,1.6562 -1.67284,2.54354 -2.21119,0.65964 z"
         id="path3401-6-4-6-4"
         sodipodi:nodetypes="ccc" /><path
         style="fill:#66cc33;fill-opacity:1;stroke:none;stroke-width:0.176026;stroke-dasharray:none"
         d="m 153.63772,152.69498 c -0.3536,-1.5461 2.41077,-1.97699 2.21119,-0.65964 -0.34471,1.65622 -1.67284,2.54354 -2.21119,0.65964 z"
         id="path3401-6-4-6-42"
         sodipodi:nodetypes="ccc" /><path
         style="fill:#006c00;fill-opacity:1;stroke:none;stroke-width:0.176026;stroke-dasharray:none"
         d="m 149.06372,160.46314 c -0.35361,-1.5461 2.41077,-1.977 2.21119,-0.65964 -0.34471,1.6562 -1.67285,2.54354 -2.21119,0.65964 z"
         id="path3401-6-4-6-9"
         sodipodi:nodetypes="ccc" /><path
         style="fill:#66cc33;fill-opacity:1;stroke:none;stroke-width:0.176026;stroke-dasharray:none"
         d="m 175.12204,100.98104 c -0.3536,1.54611 2.41078,1.97701 2.21119,0.65965 -0.3447,-1.656205 -1.67284,-2.543543 -2.21119,-0.65965 z"
         id="path3401-6-4-6-2"
         sodipodi:nodetypes="ccc" /><path
         style="fill:#006c00;fill-opacity:1;stroke:none;stroke-width:0.176026;stroke-dasharray:none"
         d="m 158.35738,87.049317 c -0.3536,-1.546102 2.41078,-1.977006 2.21119,-0.659641 -0.34471,1.656201 -1.67284,2.543538 -2.21119,0.659641 z"
         id="path3401-6-4-6-92"
         sodipodi:nodetypes="ccc" /><path
         style="fill:#006c00;fill-opacity:1;stroke:none;stroke-width:0.176026;stroke-dasharray:none"
         d="m 162.86289,93.280426 c -0.3536,-1.546102 2.41077,-1.977006 2.21119,-0.659641 -0.34471,1.656201 -1.67284,2.543538 -2.21119,0.659641 z"
         id="path3401-6-4-6-5"
         sodipodi:nodetypes="ccc" /><path
         style="fill:#006c00;fill-opacity:1;stroke:none;stroke-width:0.176026;stroke-dasharray:none"
         d="m 129.84369,101.71007 c -0.3536,-1.5461 2.41077,-1.977006 2.21119,-0.65964 -0.34471,1.6562 -1.67284,2.54354 -2.21119,0.65964 z"
         id="path3401-6-4-6-6"
         sodipodi:nodetypes="ccc" /><path
         style="fill:#006c00;fill-opacity:1;stroke:none;stroke-width:0.176026;stroke-dasharray:none"
         d="m 109.93148,95.36065 c -0.3536,-1.546103 2.41078,-1.977006 2.21119,-0.659641 -0.3447,1.656201 -1.67284,2.543538 -2.21119,0.659641 z"
         id="path3401-6-4-6-7"
         sodipodi:nodetypes="ccc" /><path
         style="fill:#006c00;fill-opacity:1;stroke:none;stroke-width:0.176026;stroke-dasharray:none"
         d="m 102.55767,138.58983 c -0.3536,-1.5461 2.41078,-1.97701 2.21119,-0.65964 -0.34471,1.6562 -1.67284,2.54354 -2.21119,0.65964 z"
         id="path3401-6-4-6-28"
         sodipodi:nodetypes="ccc" /><path
         style="fill:#006c00;fill-opacity:1;stroke:none;stroke-width:0.176026;stroke-dasharray:none"
         d="m 89.509676,159.51657 c -0.353602,-1.54611 2.410776,-1.97701 2.21119,-0.65964 -0.344705,1.6562 -1.672842,2.54353 -2.21119,0.65964 z"
         id="path3401-6-4-6-0"
         sodipodi:nodetypes="ccc" /><path
         style="fill:#006c00;fill-opacity:1;stroke:none;stroke-width:0.176026;stroke-dasharray:none"
         d="m 47.308397,175.79864 c -0.353602,-1.5461 2.410776,-1.977 2.21119,-0.65964 -0.344705,1.6562 -1.672842,2.54354 -2.21119,0.65964 z"
         id="path3401-6-4-6-08"
         sodipodi:nodetypes="ccc" /><path
         style="fill:#006c00;fill-opacity:1;stroke:none;stroke-width:0.176026;stroke-dasharray:none"
         d="m 42.780714,170.93302 c -0.3536,-1.5461 2.410777,-1.977 2.21119,-0.65964 -0.344705,1.6562 -1.672841,2.54354 -2.21119,0.65964 z"
         id="path3401-6-4-6-25"
         sodipodi:nodetypes="ccc" /><path
         style="fill:#006c00;fill-opacity:1;stroke:none;stroke-width:0.176026;stroke-dasharray:none"
         d="m 76.064496,195.11935 c -0.353602,-1.5461 2.410776,-1.97701 2.21119,-0.65964 -0.344705,1.6562 -1.672842,2.54353 -2.21119,0.65964 z"
         id="path3401-6-4-6-8"
         sodipodi:nodetypes="ccc" /><path
         style="fill:#66cc33;fill-opacity:1;stroke:none;stroke-width:0.176026;stroke-dasharray:none"
         d="m 83.192422,176.81334 c -0.353602,-1.5461 2.410776,-1.977 2.21119,-0.65964 -0.344705,1.6562 -1.672842,2.54354 -2.21119,0.65964 z"
         id="path3401-6-4-6-03"
         sodipodi:nodetypes="ccc" /><path
         style="fill:#006c00;fill-opacity:1;stroke:none;stroke-width:0.176026;stroke-dasharray:none"
         d="m 76.491819,207.93274 c -0.353601,-1.5461 2.410777,-1.97701 2.21119,-0.65964 -0.344704,1.6562 -1.672841,2.54354 -2.21119,0.65964 z"
         id="path3401-6-4-6-23"
         sodipodi:nodetypes="ccc" /><path
         style="fill:#006c00;fill-opacity:1;stroke:none;stroke-width:0.176026;stroke-dasharray:none"
         d="m 90.1473,188.72476 c -0.353602,-1.5461 2.410776,-1.977 2.21119,-0.65964 -0.344705,1.6562 -1.672842,2.54354 -2.21119,0.65964 z"
         id="path3401-6-4-6-3"
         sodipodi:nodetypes="ccc" /><path
         style="fill:#006c00;fill-opacity:1;stroke:none;stroke-width:0.176026;stroke-dasharray:none"
         d="m 90.831242,205.29921 c -0.353602,-1.5461 2.410776,-1.977 2.21119,-0.65964 -0.344705,1.6562 -1.672842,2.54354 -2.21119,0.65964 z"
         id="path3401-6-4-6-21"
         sodipodi:nodetypes="ccc" /><path
         style="fill:#66cc33;fill-opacity:1;stroke:none;stroke-width:0.176026;stroke-dasharray:none"
         d="m 117.59606,132.04242 c -0.3536,-1.5461 2.41078,-1.977 2.21119,-0.65964 -0.3447,1.6562 -1.67284,2.54354 -2.21119,0.65964 z"
         id="path3401-6-4-6"
         sodipodi:nodetypes="ccc" /><path
         style="fill:#006000;fill-opacity:1;stroke:none;stroke-width:0.176026;stroke-dasharray:none"
         d="m 162.67717,104.33306 c -0.3536,1.54611 2.41078,1.97701 2.21119,0.65965 -0.3447,-1.6562 -1.67284,-2.54354 -2.21119,-0.65965 z"
         id="path3401-6-7-8-0"
         sodipodi:nodetypes="ccc" /><path
         style="fill:#66cc33;fill-opacity:1;stroke:none;stroke-width:0.176026;stroke-dasharray:none"
         d="m 139.77818,96.432835 c -0.3536,-1.546102 2.41078,-1.977006 2.21119,-0.659641 -0.3447,1.656201 -1.67284,2.543538 -2.21119,0.659641 z"
         id="path3401-6-7-8-2"
         sodipodi:nodetypes="ccc" /><path
         style="fill:#66cc33;fill-opacity:1;stroke:none;stroke-width:0.176026;stroke-dasharray:none"
         d="m 140.80228,82.280764 c -0.3536,-1.546102 2.41078,-1.977005 2.21119,-0.65964 -0.3447,1.6562 -1.67284,2.543538 -2.21119,0.65964 z"
         id="path3401-6-7-8-6"
         sodipodi:nodetypes="ccc" /><path
         style="fill:#66cc33;fill-opacity:1;stroke:none;stroke-width:0.176026;stroke-dasharray:none"
         d="m 136.96211,103.55101 c -0.35361,-1.5461 2.41077,-1.97701 2.21119,-0.65964 -0.34471,1.6562 -1.67285,2.54354 -2.21119,0.65964 z"
         id="path3401-6-7-8-7"
         sodipodi:nodetypes="ccc" /><path
         style="fill:#006000;fill-opacity:1;stroke:none;stroke-width:0.176026;stroke-dasharray:none"
         d="m 158.22871,114.53576 c -0.3536,-1.5461 2.41078,-1.97701 2.21119,-0.65964 -0.3447,1.6562 -1.67284,2.54354 -2.21119,0.65964 z"
         id="path3401-6-7-8-61"
         sodipodi:nodetypes="ccc" /><path
         style="fill:#006000;fill-opacity:1;stroke:none;stroke-width:0.176026;stroke-dasharray:none"
         d="m 98.466428,155.75762 c -0.353601,-1.5461 2.410772,-1.977 2.211192,-0.65964 -0.34471,1.6562 -1.672843,2.54354 -2.211192,0.65964 z"
         id="path3401-6-7-8-21"
         sodipodi:nodetypes="ccc" /><path
         style="fill:#66cc33;fill-opacity:1;stroke:none;stroke-width:0.176026;stroke-dasharray:none"
         d="m 103.01905,159.08707 c -0.3536,-1.5461 2.41078,-1.97701 2.21119,-0.65964 -0.3447,1.6562 -1.67284,2.54354 -2.21119,0.65964 z"
         id="path3401-6-7-8-3"
         sodipodi:nodetypes="ccc" /><path
         style="fill:#66cc33;fill-opacity:1;stroke:none;stroke-width:0.176026;stroke-dasharray:none"
         d="m 93.269099,172.5632 c -0.353601,-1.5461 2.410777,-1.977 2.21119,-0.65964 -0.344704,1.6562 -1.672841,2.54354 -2.21119,0.65964 z"
         id="path3401-6-7-8-65"
         sodipodi:nodetypes="ccc" /><path
         style="fill:#66cc33;fill-opacity:1;stroke:none;stroke-width:0.176026;stroke-dasharray:none"
         d="m 74.14142,185.99229 c -0.353602,1.5461 2.410776,1.977 2.21119,0.65964 -0.344705,-1.6562 -1.672842,-2.54354 -2.21119,-0.65964 z"
         id="path3401-6-7-8-73"
         sodipodi:nodetypes="ccc" /><path
         style="fill:#66cc33;fill-opacity:1;stroke:none;stroke-width:0.176026;stroke-dasharray:none"
         d="m 41.139655,203.12991 c -0.353601,1.54611 2.410778,1.97701 2.211192,0.65964 -0.344705,-1.6562 -1.672843,-2.54353 -2.211192,-0.65964 z"
         id="path3401-6-7-8-32"
         sodipodi:nodetypes="ccc" /><path
         style="fill:#006000;fill-opacity:1;stroke:none;stroke-width:0.176026;stroke-dasharray:none"
         d="m 65.442916,213.3598 c -0.353602,-1.5461 2.410776,-1.97701 2.21119,-0.65964 -0.344705,1.6562 -1.672842,2.54354 -2.21119,0.65964 z"
         id="path3401-6-7-8-03"
         sodipodi:nodetypes="ccc" /><path
         style="fill:#006000;fill-opacity:1;stroke:none;stroke-width:0.176026;stroke-dasharray:none"
         d="m 119.7956,182.06815 c -0.3536,1.5461 2.41078,1.97701 2.21119,0.65964 -0.3447,-1.6562 -1.67284,-2.54354 -2.21119,-0.65964 z"
         id="path3401-6-7-8-735"
         sodipodi:nodetypes="ccc" /><path
         style="fill:#006000;fill-opacity:1;stroke:none;stroke-width:0.176026;stroke-dasharray:none"
         d="m 109.73081,195.75098 c -0.3536,-1.54611 2.41078,-1.97701 2.21119,-0.65965 -0.3447,1.65621 -1.67284,2.54354 -2.21119,0.65965 z"
         id="path3401-6-7-8-1"
         sodipodi:nodetypes="ccc" /><path
         style="fill:#006000;fill-opacity:1;stroke:none;stroke-width:0.176026;stroke-dasharray:none"
         d="m 114.96213,118.16322 c -0.3536,-1.54611 2.41078,-1.97701 2.21119,-0.65964 -0.3447,1.6562 -1.67284,2.54353 -2.21119,0.65964 z"
         id="path3401-6-7-8"
         sodipodi:nodetypes="ccc" /><path
         style="fill:#006c00;fill-opacity:1;stroke:none;stroke-width:0.176026;stroke-dasharray:none"
         d="m 108.06284,150.11739 c -0.41236,-2.40736 2.73572,-2.51899 2.59833,-0.29018 -0.34471,1.6562 -2.05998,2.17408 -2.59833,0.29018 z"
         id="path3401-6-4-9-1"
         sodipodi:nodetypes="ccc" /><path
         style="fill:#006c00;fill-opacity:1;stroke:none;stroke-width:0.176026;stroke-dasharray:none"
         d="m 79.671908,167.00004 c -0.412366,-2.40737 2.735717,-2.519 2.598324,-0.29019 -0.344704,1.6562 -2.059976,2.17408 -2.598324,0.29019 z"
         id="path3401-6-4-9-1-9"
         sodipodi:nodetypes="ccc" /><path
         style="fill:#66cc33;fill-opacity:1;stroke:none;stroke-width:0.176026;stroke-dasharray:none"
         d="m 52.031812,166.30629 c -0.412365,2.40736 2.735718,2.51899 2.598325,0.29018 -0.344705,-1.6562 -2.059977,-2.17408 -2.598325,-0.29018 z"
         id="path3401-6-4-9-1-0"
         sodipodi:nodetypes="ccc" /><path
         style="fill:#66cc33;fill-opacity:1;stroke:none;stroke-width:0.176026;stroke-dasharray:none"
         d="m 120.63398,90.082649 c -0.41236,-2.407362 2.73572,-2.518993 2.59833,-0.290183 -0.34471,1.656201 -2.05998,2.17408 -2.59833,0.290183 z"
         id="path3401-6-4-9-1-03"
         sodipodi:nodetypes="ccc" /><path
         style="fill:#66cc33;fill-opacity:1;stroke:none;stroke-width:0.176026;stroke-dasharray:none"
         d="m 129.32543,112.44167 c -0.41237,-2.40737 2.73571,-2.519 2.59832,-0.29019 -0.3447,1.65622 -2.05998,2.17408 -2.59832,0.29019 z"
         id="path3401-6-4-9-1-8"
         sodipodi:nodetypes="ccc" /><path
         style="fill:#006c00;fill-opacity:1;stroke:none;stroke-width:0.176026;stroke-dasharray:none"
         d="m 148.84634,103.75878 c -0.41237,-2.40737 2.73571,-2.519 2.59832,-0.29019 -0.3447,1.6562 -2.05998,2.17408 -2.59832,0.29019 z"
         id="path3401-6-4-9-1-2"
         sodipodi:nodetypes="ccc" /><path
         style="fill:#66cc33;fill-opacity:1;stroke:none;stroke-width:0.176026;stroke-dasharray:none"
         d="m 166.17969,122.18223 c -0.41237,-2.40736 2.73572,-2.51899 2.59832,-0.29018 -0.3447,1.6562 -2.05997,2.17408 -2.59832,0.29018 z"
         id="path3401-6-4-9-1-1"
         sodipodi:nodetypes="ccc" /><path
         style="fill:#006c00;fill-opacity:1;stroke:none;stroke-width:0.176026;stroke-dasharray:none"
         d="m 122.90363,145.26922 c -0.41236,2.40736 2.73572,2.51899 2.59833,0.29018 -0.34471,-1.6562 -2.05998,-2.17408 -2.59833,-0.29018 z"
         id="path3401-6-4-9-1-6"
         sodipodi:nodetypes="ccc" /><path
         style="fill:#66cc33;fill-opacity:1;stroke:none;stroke-width:0.176026;stroke-dasharray:none"
         d="m 102.95385,190.82798 c -0.41236,-2.40736 2.73572,-2.51899 2.59833,-0.29018 -0.34471,1.6562 -2.05998,2.17408 -2.59833,0.29018 z"
         id="path3401-6-4-9-1-3"
         sodipodi:nodetypes="ccc" /><path
         style="fill:#006c00;fill-opacity:1;stroke:none;stroke-width:0.176026;stroke-dasharray:none"
         d="m 109.53883,176.6095 c -0.41236,-2.40736 2.73572,-2.51899 2.59833,-0.29018 -0.34471,1.6562 -2.05998,2.17408 -2.59833,0.29018 z"
         id="path3401-6-4-9-1-29"
         sodipodi:nodetypes="ccc" /><path
         style="fill:#66cc33;fill-opacity:1;stroke:none;stroke-width:0.176026;stroke-dasharray:none"
         d="m 71.470018,202.53046 c -0.412366,-2.40736 2.735718,-2.51899 2.598325,-0.29018 -0.344705,1.6562 -2.059977,2.17408 -2.598325,0.29018 z"
         id="path3401-6-4-9-1-7"
         sodipodi:nodetypes="ccc" /><path
         style="fill:#006c00;fill-opacity:1;stroke:none;stroke-width:0.176026;stroke-dasharray:none"
         d="m 39.4935,185.88115 c -0.412366,-2.40736 2.735717,-2.51899 2.598324,-0.29018 -0.344704,1.6562 -2.059976,2.17408 -2.598324,0.29018 z"
         id="path3401-6-4-9-1-34"
         sodipodi:nodetypes="ccc" /><path
         style="fill:#006c00;fill-opacity:1;stroke:none;stroke-width:0.176026;stroke-dasharray:none"
         d="m 96.578668,113.87617 c -0.412365,-2.40736 2.735718,-2.51899 2.598325,-0.29018 -0.344705,1.6562 -2.059976,2.17408 -2.598325,0.29018 z"
         id="path3401-6-4-9-1-86"
         sodipodi:nodetypes="ccc" /><path
         style="fill:#006c00;fill-opacity:1;stroke:none;stroke-width:0.176026;stroke-dasharray:none"
         d="m 166.0605,129.52173 c -0.41237,-2.40736 2.73572,-2.51899 2.59832,-0.29018 -0.3447,1.6562 -2.05997,2.17408 -2.59832,0.29018 z"
         id="path3401-6-4-9-1-11"
         sodipodi:nodetypes="ccc" /><path
         style="fill:#006c00;fill-opacity:1;stroke:none;stroke-width:0.176026;stroke-dasharray:none"
         d="m 161.72649,142.07505 c -0.41236,-2.40736 2.73572,-2.51899 2.59833,-0.29018 -0.34471,1.6562 -2.05998,2.17408 -2.59833,0.29018 z"
         id="path3401-6-4-9-1-5"
         sodipodi:nodetypes="ccc" /><path
         style="fill:#006c00;fill-opacity:1;stroke:none;stroke-width:0.176026;stroke-dasharray:none"
         d="m 164.67642,136.49605 c -0.41237,-2.40736 2.73571,-2.519 2.59832,-0.29019 -0.3447,1.6562 -2.05998,2.17408 -2.59832,0.29019 z"
         id="path3401-6-4-9-1-69"
         sodipodi:nodetypes="ccc" /><path
         style="fill:#66cc33;fill-opacity:1;stroke:none;stroke-width:0.176026;stroke-dasharray:none"
         d="m 110.19871,136.54727 c 0.85047,-1.30357 2.64252,0.95908 1.58829,1.66443 -1.38709,0.81088 -2.55381,0.0109 -1.58829,-1.66443 z"
         id="path3401-2-0"
         sodipodi:nodetypes="ccc" /><path
         style="fill:#66cc33;fill-opacity:1;stroke:none;stroke-width:0.176026;stroke-dasharray:none"
         d="m 107.56755,122.49738 c 0.85047,-1.30357 2.64252,0.95908 1.58829,1.66443 -1.38709,0.81087 -2.55381,0.0109 -1.58829,-1.66443 z"
         id="path3401-2-0-2"
         sodipodi:nodetypes="ccc" /><path
         style="fill:#006400;fill-opacity:1;stroke:none;stroke-width:0.176026;stroke-dasharray:none"
         d="m 141.28295,110.32454 c 0.85047,-1.30357 2.64252,0.95908 1.58829,1.66443 -1.38709,0.81088 -2.55381,0.011 -1.58829,-1.66443 z"
         id="path3401-2-0-0"
         sodipodi:nodetypes="ccc" /><path
         style="fill:#66cc33;fill-opacity:1;stroke:none;stroke-width:0.176026;stroke-dasharray:none"
         d="m 128.6259,175.65057 c 0.85047,-1.30357 2.64252,0.95908 1.58828,1.66443 -1.38708,0.81087 -2.5538,0.011 -1.58828,-1.66443 z"
         id="path3401-2-0-9"
         sodipodi:nodetypes="ccc" /><path
         style="fill:#006400;fill-opacity:1;stroke:none;stroke-width:0.176026;stroke-dasharray:none"
         d="m 111.9773,183.53366 c 0.85047,-1.30357 2.64252,0.95908 1.58829,1.66443 -1.38709,0.81088 -2.55381,0.0109 -1.58829,-1.66443 z"
         id="path3401-2-0-5"
         sodipodi:nodetypes="ccc" /><path
         style="fill:#006400;fill-opacity:1;stroke:none;stroke-width:0.176026;stroke-dasharray:none"
         d="m 103.68187,166.13347 c 0.85047,-1.30357 2.64252,0.95907 1.58829,1.66443 -1.38709,0.81087 -2.55381,0.011 -1.58829,-1.66443 z"
         id="path3401-2-0-3"
         sodipodi:nodetypes="ccc" /><path
         style="fill:#006400;fill-opacity:1;stroke:none;stroke-width:0.176026;stroke-dasharray:none"
         d="m 167.90605,75.139743 c 0.85047,-1.303568 2.64252,0.959076 1.58829,1.664431 -1.38709,0.810873 -2.55381,0.01095 -1.58829,-1.664431 z"
         id="path3401-2-0-59"
         sodipodi:nodetypes="ccc" /><path
         style="fill:#006400;fill-opacity:1;stroke:none;stroke-width:0.176026;stroke-dasharray:none"
         d="m 170.41917,76.894271 c 0.85047,-1.303568 2.64252,0.959076 1.58829,1.664431 -1.38709,0.810873 -2.55381,0.01095 -1.58829,-1.664431 z"
         id="path3401-2-0-8"
         sodipodi:nodetypes="ccc" /><path
         style="fill:#99cc33;fill-opacity:1;stroke:none;stroke-width:0.209962;stroke-dasharray:none"
         d="m 114.20664,160.47798 c 6.27628,-4.61435 9.50337,4.60228 7.53881,7.14591 -3.19511,3.1312 -14.17515,-0.171 -7.53881,-7.14591 z"
         id="path3165-2"
         sodipodi:nodetypes="ccc" /><path
         style="fill:#ccfc14;fill-opacity:1;stroke:none;stroke-width:0.176026;stroke-dasharray:none"
         d="m 119.29749,164.71359 c -0.3536,-1.5461 2.41078,-1.977 2.21119,-0.65964 -0.3447,1.6562 -1.67284,2.54354 -2.21119,0.65964 z"
         id="path3401-6-4"
         sodipodi:nodetypes="ccc" /><path
         style="fill:#ccfc14;fill-opacity:1;stroke:none;stroke-width:0.176026;stroke-dasharray:none"
         d="m 116.9494,162.08023 c -0.41236,-2.40736 2.73572,-2.51899 2.59833,-0.29018 -0.34471,1.6562 -2.05998,2.17408 -2.59833,0.29018 z"
         id="path3401-6-4-9"
         sodipodi:nodetypes="ccc" /><path
         style="fill:#ccfc14;fill-opacity:1;stroke:none;stroke-width:0.176026;stroke-dasharray:none"
         d="m 117.58165,164.80501 c 2.23429,0.53935 0.62854,3.25192 -0.49158,2.67568 -1.38182,-0.82119 -1.34182,-2.65004 0.49158,-2.67568 z"
         id="path3401-9-0"
         sodipodi:nodetypes="ccc" /><path
         style="fill:#ccfc14;fill-opacity:1;stroke:none;stroke-width:0.176026;stroke-dasharray:none"
         d="m 113.39875,164.2922 c 0.85047,-1.30357 2.64252,0.95907 1.58829,1.66443 -1.38709,0.81087 -2.55381,0.011 -1.58829,-1.66443 z"
         id="path3401-2"
         sodipodi:nodetypes="ccc" /><path
         style="fill:#99cc33;fill-opacity:1;stroke:none;stroke-width:0.209962;stroke-dasharray:none"
         d="m 114.62884,105.19529 c -4.38697,-6.675789 4.13852,-10.282516 6.53434,-8.209445 6.66709,3.748875 0.054,15.236705 -6.53434,8.209445 z"
         id="path3165-8"
         sodipodi:nodetypes="ccc" /><path
         style="fill:#ccfc14;fill-opacity:1;stroke:none;stroke-width:0.176026;stroke-dasharray:none"
         d="m 117.39381,100.2162 c -0.3536,-1.546106 2.41077,-1.977009 2.21119,-0.659644 -0.34471,1.656204 -1.67284,2.543534 -2.21119,0.659644 z"
         id="path3401-6-7"
         sodipodi:nodetypes="ccc" /><path
         style="fill:#ccfc14;fill-opacity:1;stroke:none;stroke-width:0.176026;stroke-dasharray:none"
         d="m 116.55573,101.94328 c 0.85047,-1.30357 2.64252,0.95907 1.58829,1.66443 -1.38709,0.81087 -2.55381,0.011 -1.58829,-1.66443 z"
         id="path3401-0"
         sodipodi:nodetypes="ccc" /><path
         style="fill:#007400;stroke:none;stroke-width:0.176026;stroke-dasharray:none"
         d="m 54.892375,199.37385 c -2.686835,-1.06976 -4.199125,2.36756 -4.959896,4.0968 -1.776124,8.30932 -0.375691,5.57473 0.03328,9.08777 2.760558,-1.94332 0.383366,-3.6325 6.140029,-8.30493 2.610617,-3.98047 -0.0197,-4.21775 -1.213394,-4.87964 z"
         id="path2882-6-4-7"
         sodipodi:nodetypes="ccccc" /><path
         style="fill:#007400;stroke:none;stroke-width:0.15916;stroke-dasharray:none"
         d="m 52.726417,195.41802 c -2.059603,2.0737 -6.100417,2.66632 -7.824705,2.81288 -1.574381,-0.12319 -3.386418,-0.59605 -5.620285,0.17026 2.216655,-1.97381 1.550527,-1.98399 6.045776,-3.19352 3.394683,-0.37955 6.814751,-0.63816 7.399214,0.21027 z"
         id="path2882-0-8-4"
         sodipodi:nodetypes="cccccc" /><path
         style="fill:#007400;stroke:none;stroke-width:0.196176;stroke-dasharray:none"
         d="m 152.76949,78.412105 c 2.38383,2.594199 4.81194,8.326444 4.71343,10.249559 -0.029,1.691185 -0.40396,6.038323 -1.0467,10.362267 -1.79176,-4.28739 -4.61499,-7.415218 -5.06386,-12.126303 -0.40822,-4.284215 0.59934,-7.722609 1.39708,-8.485523 z"
         id="path2882-00"
         sodipodi:nodetypes="cccscc" /><path
         style="fill:#66cc33;stroke:none;stroke-width:0.176026;stroke-dasharray:none"
         d="m 148.22454,72.389404 c 2.78161,-3.699196 7.85864,0.574051 6.03545,3.712992 -1.76054,2.7568 -8.32529,0.411158 -6.03545,-3.712992 z"
         id="path2826"
         sodipodi:nodetypes="ccc" /><path
         style="fill:#007400;stroke:none;stroke-width:0.196176;stroke-dasharray:none"
         d="m 145.80794,74.113857 c 0.3839,3.606361 -4.42974,4.882264 -6.26174,5.337439 -7.78388,0.646428 -6.91129,3.951219 -10.94243,4.584434 2.53043,-3.218818 5.37092,-6.469628 11.07923,-10.01354 4.42099,-2.105973 5.17505,-0.521894 6.12494,0.09161 z"
         id="path2882"
         sodipodi:nodetypes="ccccc" /><path
         style="fill:#007400;stroke:none;stroke-width:0.15916;stroke-dasharray:none"
         d="m 148.98332,77.629866 c 0.66751,2.653271 -0.31112,3.882328 -1.13089,5.528308 -0.97155,1.409817 -3.10302,5.631217 -3.66511,7.972315 -0.49459,-2.76222 0.44943,-4.621827 1.86898,-9.212448 1.53501,-3.273494 1.87016,-4.055332 2.92697,-4.288194 z"
         id="path2882-0"
         sodipodi:nodetypes="cccccc" /><path
         style="fill:#007400;stroke:none;stroke-width:0.176026;stroke-dasharray:none"
         d="m 154.8924,72.240544 c 1.10186,2.842827 4.77086,2.429991 6.46689,1.850501 6.6396,-4.61232 12.58131,-3.763999 16.22564,-4.154097 -3.36231,-1.103793 -11.53594,-1.06275 -17.65731,-0.819979 -4.48952,0.657688 -4.49026,2.198552 -5.03522,3.123575 z"
         id="path2882-6"
         sodipodi:nodetypes="ccccc" /><path
         style="fill:#007400;stroke:none;stroke-width:0.176026;stroke-dasharray:none"
         d="m 155.75323,76.589416 c -0.80091,2.956904 5.54326,5.95173 7.20233,6.643873 4.81206,0.863485 1.76149,3.905231 7.5886,6.077176 -1.97442,-3.126477 -2.0839,-6.145721 -6.9929,-10.083654 -3.03785,-1.7738 -4.90566,-2.396668 -7.79803,-2.637395 z"
         id="path2882-6-2"
         sodipodi:nodetypes="ccccc" /><path
         style="fill:#007400;stroke:none;stroke-width:0.196176;stroke-dasharray:none"
         d="m 59.739328,190.91722 c 0.816513,-3.539 4.101208,-8.75489 5.679325,-9.6673 1.357765,-0.85522 5.004398,-2.77806 8.772277,-4.4432 -2.469438,3.87888 -3.480478,8.09911 -6.986526,10.96729 -3.18834,2.6083 -6.443407,3.4771 -7.465042,3.14326 z"
         id="path2882-00-8"
         sodipodi:nodetypes="cccscc" /><path
         style="fill:#66cc33;stroke:none;stroke-width:0.176026;stroke-dasharray:none"
         d="m 57.327822,198.22601 c -4.387166,-0.62229 -3.641964,-7.50685 -0.199332,-7.47145 3.106587,0.1772 4.667453,7.42111 0.199332,7.47145 z"
         id="path2826-7"
         sodipodi:nodetypes="ccc" /><path
         style="fill:#007400;stroke:none;stroke-width:0.196176;stroke-dasharray:none"
         d="m 59.956929,199.54321 c 2.662879,-2.23255 6.18577,1.51695 7.502395,2.95984 4.571913,6.80189 6.740588,4.27837 9.345229,7.64534 -3.874829,-0.64238 -7.936714,-1.55249 -13.726673,-4.93993 -3.977126,-2.9566 -3.112733,-4.47416 -3.120968,-5.66524 z"
         id="path2882-3"
         sodipodi:nodetypes="ccccc" /><path
         style="fill:#007400;stroke:none;stroke-width:0.15916;stroke-dasharray:none"
         d="m 61.092526,194.79758 c 1.758364,-1.9957 3.24437,-1.73902 4.978573,-1.84543 1.62581,0.15585 6.088566,-0.0903 8.240211,-0.79555 -1.934995,1.89392 -3.903557,1.99776 -8.28821,3.08951 -3.399183,0.29905 -4.194643,0.39935 -4.930557,-0.44848 z"
         id="path2882-0-8"
         sodipodi:nodetypes="cccccc" /><path
         style="fill:#007400;stroke:none;stroke-width:0.176026;stroke-dasharray:none"
         d="m 53.732838,192.18821 c 1.682367,-2.49289 -0.558502,-5.64262 -1.902905,-6.89597 -7.123732,-3.6845 -9.548453,-9.57625 -11.758399,-12.71521 0.876923,3.65925 5.17147,11.13427 8.556035,16.62189 2.863076,3.7746 4.086759,2.97183 5.105269,2.98929 z"
         id="path2882-6-4"
         sodipodi:nodetypes="ccccc" /><path
         style="fill:#007400;stroke:none;stroke-width:0.176026;stroke-dasharray:none"
         d="m 56.736533,189.13108 c 2.765057,-0.80724 1.834599,-8.18734 1.518996,-10.06987 -1.823613,-4.86362 2.181834,-3.65182 0.867722,-10.12866 -1.452558,3.44106 -3.792414,5.11578 -4.359032,11.6714 0.175816,3.71106 0.655265,5.74889 1.972314,8.52713 z"
         id="path2882-6-2-5"
         sodipodi:nodetypes="ccccc" /><path
         style="fill:#99cc33;fill-opacity:1;stroke:none;stroke-width:0.209962;stroke-dasharray:none"
         d="m 90.234367,177.83122 c 6.276284,-4.61435 9.50337,4.60228 7.538815,7.14591 -3.195115,3.1312 -14.175152,-0.171 -7.538815,-7.14591 z"
         id="path3165"
         sodipodi:nodetypes="ccc" /><path
         style="fill:#ccfc14;fill-opacity:1;stroke:none;stroke-width:0.176026;stroke-dasharray:none"
         d="m 94.54506,181.19851 c -0.353601,-1.5461 2.410777,-1.977 2.21119,-0.65964 -0.344705,1.6562 -1.672841,2.54354 -2.21119,0.65964 z"
         id="path3401-6"
         sodipodi:nodetypes="ccc" /><path
         style="fill:#ccfc14;fill-opacity:1;stroke:none;stroke-width:0.176026;stroke-dasharray:none"
         d="m 93.156292,182.39122 c 2.234298,0.53936 0.62854,3.25192 -0.491572,2.67568 -1.381824,-0.82118 -1.341822,-2.65004 0.491572,-2.67568 z"
         id="path3401-9"
         sodipodi:nodetypes="ccc" /><path
         style="fill:#ccfc14;fill-opacity:1;stroke:none;stroke-width:0.176026;stroke-dasharray:none"
         d="m 90.728961,179.25527 c 0.850471,-1.30357 2.642521,0.95908 1.588287,1.66443 -1.387088,0.81087 -2.553806,0.011 -1.588287,-1.66443 z"
         id="path3401"
         sodipodi:nodetypes="ccc" /><path
         style="fill:#006400;fill-opacity:1;stroke:none;stroke-width:0.176026;stroke-dasharray:none"
         d="m 175.05775,74.932431 c 0.85047,-1.303569 2.64252,0.959076 1.58828,1.664431 -1.38709,0.810873 -2.5538,0.01095 -1.58828,-1.664431 z"
         id="path3401-2-0-28"
         sodipodi:nodetypes="ccc" /><path
         style="fill:#006400;fill-opacity:1;stroke:none;stroke-width:0.176026;stroke-dasharray:none"
         d="m 167.55401,96.816892 c 0.85047,-1.303568 2.64252,0.959076 1.58829,1.664431 -1.38709,0.810873 -2.55381,0.01095 -1.58829,-1.664431 z"
         id="path3401-2-0-4"
         sodipodi:nodetypes="ccc" /><path
         style="fill:#66cc33;fill-opacity:1;stroke:none;stroke-width:0.176026;stroke-dasharray:none"
         d="m 168.41616,112.19952 c 0.85047,-1.30357 2.64252,0.95907 1.58829,1.66443 -1.38709,0.81087 -2.55381,0.0109 -1.58829,-1.66443 z"
         id="path3401-2-0-01"
         sodipodi:nodetypes="ccc" /><path
         style="fill:#006400;fill-opacity:1;stroke:none;stroke-width:0.176026;stroke-dasharray:none"
         d="m 132.405,89.669411 c 0.85047,-1.303569 2.64252,0.959076 1.58829,1.664431 -1.38709,0.810873 -2.55381,0.01095 -1.58829,-1.664431 z"
         id="path3401-2-0-08"
         sodipodi:nodetypes="ccc" /><path
         style="fill:#006400;fill-opacity:1;stroke:none;stroke-width:0.176026;stroke-dasharray:none"
         d="m 103.58756,103.47077 c 0.85047,-1.30357 2.64252,0.95907 1.58828,1.66443 -1.38708,0.81087 -2.5538,0.011 -1.58828,-1.66443 z"
         id="path3401-2-0-1"
         sodipodi:nodetypes="ccc" /><path
         style="fill:#006400;fill-opacity:1;stroke:none;stroke-width:0.176026;stroke-dasharray:none"
         d="m 64.616249,166.98681 c 0.850471,1.30356 2.642521,-0.95908 1.588287,-1.66444 -1.387087,-0.81087 -2.553806,-0.011 -1.588287,1.66444 z"
         id="path3401-2-0-49"
         sodipodi:nodetypes="ccc" /><path
         style="fill:#006400;fill-opacity:1;stroke:none;stroke-width:0.176026;stroke-dasharray:none"
         d="m 60.942399,176.42962 c 0.850471,-1.30357 2.642521,0.95907 1.588287,1.66443 -1.387088,0.81087 -2.553807,0.0109 -1.588287,-1.66443 z"
         id="path3401-2-0-90"
         sodipodi:nodetypes="ccc" /><path
         style="fill:#006400;fill-opacity:1;stroke:none;stroke-width:0.176026;stroke-dasharray:none"
         d="m 55.498384,208.42625 c 0.850471,-1.30356 2.642521,0.95908 1.588287,1.66444 -1.387087,0.81087 -2.553806,0.0109 -1.588287,-1.66444 z"
         id="path3401-2-0-23"
         sodipodi:nodetypes="ccc" /><path
         style="fill:#006400;fill-opacity:1;stroke:none;stroke-width:0.176026;stroke-dasharray:none"
         d="m 83.711907,202.46752 c 0.85047,-1.30357 2.642521,0.95907 1.588287,1.66443 -1.387088,0.81087 -2.553807,0.011 -1.588287,-1.66443 z"
         id="path3401-2-0-590"
         sodipodi:nodetypes="ccc" /><path
         style="fill:#006400;fill-opacity:1;stroke:none;stroke-width:0.176026;stroke-dasharray:none"
         d="m 83.220827,193.57992 c 0.850471,-1.30356 2.642521,0.95908 1.588287,1.66444 -1.387087,0.81087 -2.553806,0.0109 -1.588287,-1.66444 z"
         id="path3401-2-0-13"
         sodipodi:nodetypes="ccc" /><path
         style="fill:#66cc33;fill-opacity:1;stroke:none;stroke-width:0.176026;stroke-dasharray:none"
         d="m 96.694175,195.36935 c 0.850471,-1.30357 2.642521,0.95907 1.588287,1.66443 -1.387087,0.81087 -2.553806,0.0109 -1.588287,-1.66443 z"
         id="path3401-2-0-6"
         sodipodi:nodetypes="ccc" /><path
         style="fill:#66cc33;fill-opacity:1;stroke:none;stroke-width:0.176026;stroke-dasharray:none"
         d="m 88.729412,168.97584 c 0.850471,1.30357 2.642521,-0.95908 1.588287,-1.66443 -1.387087,-0.81088 -2.553806,-0.011 -1.588287,1.66443 z"
         id="path3401-2-0-904"
         sodipodi:nodetypes="ccc" /><path
         style="fill:#006400;fill-opacity:1;stroke:none;stroke-width:0.176026;stroke-dasharray:none"
         d="m 137.74341,163.57808 c 0.85047,1.30357 2.64252,-0.95907 1.58828,-1.66443 -1.38709,-0.81087 -2.5538,-0.0109 -1.58828,1.66443 z"
         id="path3401-2-0-24"
         sodipodi:nodetypes="ccc" /><path
         style="fill:#006400;fill-opacity:1;stroke:none;stroke-width:0.176026;stroke-dasharray:none"
         d="m 131.34416,164.77433 c 0.85047,-1.30357 2.64252,0.95907 1.58829,1.66443 -1.38709,0.81087 -2.55381,0.011 -1.58829,-1.66443 z"
         id="path3401-2-0-19"
         sodipodi:nodetypes="ccc" /><path
         style="fill:#66cc33;fill-opacity:1;stroke:none;stroke-width:0.176026;stroke-dasharray:none"
         d="m 135.22276,170.48144 c 0.85047,-1.30356 2.64252,0.95908 1.58829,1.66444 -1.38709,0.81087 -2.55381,0.0109 -1.58829,-1.66444 z"
         id="path3401-2-0-02"
         sodipodi:nodetypes="ccc" /></g></g></svg>
