<?xml version="1.0" encoding="UTF-8" standalone="no"?>
<!-- Created with Inkscape (http://www.inkscape.org/) -->

<svg
   width="226.50987mm"
   height="104.21566mm"
   viewBox="0 0 226.50986 104.21566"
   version="1.1"
   id="svg5"
   xml:space="preserve"
   inkscape:version="1.2 (dc2aeda, 2022-05-15)"
   sodipodi:docname="rotifer.svg"
   xmlns:inkscape="http://www.inkscape.org/namespaces/inkscape"
   xmlns:sodipodi="http://sodipodi.sourceforge.net/DTD/sodipodi-0.dtd"
   xmlns:xlink="http://www.w3.org/1999/xlink"
   xmlns="http://www.w3.org/2000/svg"
   xmlns:svg="http://www.w3.org/2000/svg"><sodipodi:namedview
     id="namedview7"
     pagecolor="#ffffff"
     bordercolor="#000000"
     borderopacity="0.25"
     inkscape:showpageshadow="2"
     inkscape:pageopacity="0.0"
     inkscape:pagecheckerboard="0"
     inkscape:deskcolor="#d1d1d1"
     inkscape:document-units="mm"
     showgrid="false"
     inkscape:zoom="1.3289991"
     inkscape:cx="472.91228"
     inkscape:cy="160.64721"
     inkscape:window-width="1796"
     inkscape:window-height="1033"
     inkscape:window-x="252"
     inkscape:window-y="25"
     inkscape:window-maximized="0"
     inkscape:current-layer="g23644" /><defs
     id="defs2"><linearGradient
       inkscape:collect="always"
       id="linearGradient1317"><stop
         style="stop-color:#b00000;stop-opacity:1;"
         offset="0"
         id="stop1313" /><stop
         style="stop-color:#b00000;stop-opacity:0;"
         offset="1"
         id="stop1315" /></linearGradient><linearGradient
       inkscape:collect="always"
       id="linearGradient1301"><stop
         style="stop-color:#5c0000;stop-opacity:1;"
         offset="0"
         id="stop1297" /><stop
         style="stop-color:#5c0000;stop-opacity:0;"
         offset="1"
         id="stop1299" /></linearGradient><linearGradient
       inkscape:collect="always"
       id="linearGradient1293"><stop
         style="stop-color:#680000;stop-opacity:1;"
         offset="0"
         id="stop1289" /><stop
         style="stop-color:#680000;stop-opacity:0;"
         offset="1"
         id="stop1291" /></linearGradient><linearGradient
       inkscape:collect="always"
       id="linearGradient1277"><stop
         style="stop-color:#6c0000;stop-opacity:1;"
         offset="0"
         id="stop1273" /><stop
         style="stop-color:#6c0000;stop-opacity:0;"
         offset="1"
         id="stop1275" /></linearGradient><linearGradient
       inkscape:collect="always"
       id="linearGradient1269"><stop
         style="stop-color:#740000;stop-opacity:1;"
         offset="0"
         id="stop1265" /><stop
         style="stop-color:#740000;stop-opacity:0;"
         offset="1"
         id="stop1267" /></linearGradient><linearGradient
       inkscape:collect="always"
       id="linearGradient1245"><stop
         style="stop-color:#fc4848;stop-opacity:1;"
         offset="0"
         id="stop1241" /><stop
         style="stop-color:#fc4848;stop-opacity:0;"
         offset="1"
         id="stop1243" /></linearGradient><linearGradient
       inkscape:collect="always"
       id="linearGradient1237"><stop
         style="stop-color:#740000;stop-opacity:1;"
         offset="0"
         id="stop1233" /><stop
         style="stop-color:#740000;stop-opacity:0;"
         offset="1"
         id="stop1235" /></linearGradient><linearGradient
       inkscape:collect="always"
       xlink:href="#linearGradient1237"
       id="linearGradient1239"
       x1="132.95312"
       y1="48.286457"
       x2="129.78201"
       y2="153.91539"
       gradientUnits="userSpaceOnUse" /><linearGradient
       inkscape:collect="always"
       xlink:href="#linearGradient1245"
       id="linearGradient1247"
       x1="163.5125"
       y1="44.582291"
       x2="155.70729"
       y2="74.347916"
       gradientUnits="userSpaceOnUse" /><linearGradient
       inkscape:collect="always"
       xlink:href="#linearGradient1269"
       id="linearGradient1271"
       x1="135.73125"
       y1="47.49271"
       x2="116.81355"
       y2="31.617708"
       gradientUnits="userSpaceOnUse" /><linearGradient
       inkscape:collect="always"
       xlink:href="#linearGradient1277"
       id="linearGradient1279"
       x1="157.03021"
       y1="49.080208"
       x2="174.01994"
       y2="38.126595"
       gradientUnits="userSpaceOnUse" /><linearGradient
       inkscape:collect="always"
       xlink:href="#linearGradient1293"
       id="linearGradient1295"
       x1="165.57347"
       y1="131.52333"
       x2="127.96865"
       y2="65.668121"
       gradientUnits="userSpaceOnUse" /><linearGradient
       inkscape:collect="always"
       xlink:href="#linearGradient1301"
       id="linearGradient1303"
       x1="175.30208"
       y1="51.075207"
       x2="117.49168"
       y2="133.39423"
       gradientUnits="userSpaceOnUse" /><linearGradient
       inkscape:collect="always"
       xlink:href="#linearGradient1317"
       id="linearGradient1319"
       x1="165.38638"
       y1="105.33092"
       x2="111.87902"
       y2="6.5481033"
       gradientUnits="userSpaceOnUse" /></defs><g
     inkscape:label="Layer 1"
     inkscape:groupmode="layer"
     id="layer1"
     transform="translate(-0.22448261,-89.910237)"><g
       id="g3397"
       transform="rotate(89.696997,113.8359,142.29814)"><g
         id="g2594"
         transform="matrix(2.6177225,0,0,2.113146,-268.33694,-32.9162)"><g
           id="g23644"><path
             style="fill:url(#linearGradient1295);fill-opacity:1;stroke:#ffffff;stroke-width:0.08376058;stroke-dasharray:none"
             d="m 138.46189,94.019588 c 5.20699,0.746053 10.36114,0.699598 15.47176,0 0.0851,3.253946 -0.004,6.373892 -1.15677,8.675752 0.2471,4.04076 -0.24793,7.09202 -1.73515,8.82035 0.30279,1.56418 0.4025,3.42623 -0.72298,7.0852 0.005,2.23705 0.0688,4.46576 -0.57838,6.79601 0.40114,3.58549 -0.0724,5.03847 -0.90373,6.25377 0.82059,1.57459 1.82425,2.78594 1.95205,4.88012 -1.35233,-0.72488 -2.64741,-1.69584 -3.72335,-3.43416 l -1.699,0.0723 c -0.0359,0.28679 -3.43985,3.90778 -3.72334,3.21726 -0.27716,-0.67508 1.61541,-4.77075 1.73515,-4.62706 -0.59005,-1.89805 -1.22165,-3.77186 -0.68683,-6.32608 -0.40621,-2.07946 -1.18204,-3.8509 -0.50609,-6.83216 -1.19514,-2.02135 -1.37504,-4.62283 -1.22906,-7.41054 -0.71228,-2.45963 -1.79665,-4.50065 -1.04833,-8.60345 -1.5915,-1.59832 -1.171,-5.476904 -1.44595,-8.567312 z"
             id="path520"
             sodipodi:nodetypes="ccccccccccscccccc" /><path
             style="fill:url(#linearGradient1303);fill-opacity:1;stroke:#ffffff;stroke-width:0.08376058;stroke-dasharray:none"
             d="m 138.81536,58.498871 c -3.08572,3.587385 -4.38905,9.046284 -4.75438,15.490079 0.20831,9.245507 1.32595,16.568607 4.39156,20.099517 0.89924,0.613642 13.52415,1.045475 15.45931,0 2.50619,-3.714888 4.18893,-9.713671 4.38114,-19.281559 -0.56929,-7.133857 -1.77623,-13.14244 -4.65214,-16.205792 -5.57784,0.406234 -10.9919,0.69908 -14.82549,-0.102245 z"
             id="path522"
             sodipodi:nodetypes="ccccccc" /><path
             style="fill:url(#linearGradient1247);fill-opacity:1;stroke:#ffffff;stroke-width:0.0837606;stroke-dasharray:none"
             d="m 138.71312,58.447749 c -0.48369,-1.682265 -0.24902,-3.038007 0.76683,-4.038668 -0.89578,-1.378635 -1.41665,-2.780702 -0.15337,-4.294279 -0.87512,-0.818691 -1.3636,-1.862927 -0.61346,-3.629689 -1.33746,-1.265404 -2.14703,-2.794746 -1.5848,-5.009993 0.62668,-0.384782 1.03608,-0.943378 2.30051,-0.817958 0.49533,-0.862273 0.56461,-1.085489 0.81796,-1.584793 1.00059,-0.239092 1.57147,-0.22035 1.89153,-0.05112 1.54289,2.045521 1.18284,2.399535 1.63591,3.476321 1.77123,1.253365 1.25072,2.71507 1.68704,4.08979 h 1.32918 c 0.10952,-0.956102 0.0895,-1.879824 0.71571,-2.965098 1.03917,-1.063152 1.2369,-1.621445 1.63592,-2.300507 -0.28564,-0.627911 0.3815,-1.44638 0.71571,-2.198262 0.76228,-0.224881 1.46995,-0.28597 2.09602,-0.102244 1.16124,1.094453 0.92253,1.388938 1.22694,1.993772 0.92683,-0.162202 1.46748,0.190504 1.99378,0.562346 0.41748,1.19071 0.20388,1.908113 0.10224,2.709486 -0.26323,0.697403 -0.34084,1.425743 -1.38031,1.993773 0.25535,2.231822 -0.27343,2.895365 -0.81795,3.527443 0.91008,1.557798 0.65344,3.025848 -0.20449,4.447645 0.69198,1.327111 1.16751,2.697514 0.51122,4.29428 -6.43916,0.571834 -11.36837,0.552819 -14.67212,-0.102245 z"
             id="path524"
             sodipodi:nodetypes="ccccccccccccccccccccccc" /><path
             style="fill:url(#linearGradient1271);fill-opacity:1;stroke:#ffffff;stroke-width:0.0829102;stroke-dasharray:none"
             d="m 138.20189,40.929096 c -0.75256,-1.139776 -1.62038,-2.02021 -2.91397,-1.94265 -1.22478,0.409187 -2.42769,0.993362 -3.78306,0.357856 -0.70169,-0.425264 -1.61611,-0.797349 -1.27806,-1.482549 0.31859,-1.663245 1.58178,-2.486852 3.11847,-3.067342 2.02752,-1.118139 3.63484,-1.115713 5.2656,-1.175815 2.30954,0.420999 3.63418,1.558289 4.44765,3.067343 1.61435,2.692586 1.20764,4.492828 1.58479,6.645908 l -0.9202,-0.511223 c -0.31285,-0.963865 0.18877,-0.770346 -1.27806,-3.374077 -0.75464,-0.401454 -1.46035,-0.362551 -2.14714,-0.153367 -0.25561,0.724929 -0.51122,1.217546 -0.76684,1.533671 z"
             id="path526"
             sodipodi:nodetypes="ccccccccccccc" /><path
             style="fill:url(#linearGradient1279);fill-opacity:1;stroke:#ffffff;stroke-width:0.0829102;stroke-dasharray:none"
             d="m 154.15646,41.379861 c 0.6994,-1.059276 1.60818,-2.529337 2.81041,-2.457254 1.13826,0.380287 2.25621,0.923202 3.51586,0.33258 0.65213,-0.395228 1.50197,-0.741033 1.1878,-1.377839 -0.29609,-1.545773 -1.47006,-2.31121 -2.89823,-2.850702 -1.88433,-1.039167 -3.37812,-1.292525 -4.8937,-1.348381 -2.14642,0.391265 -3.85039,1.857208 -4.64475,3.131876 -1.50032,2.502414 -1.30127,4.725074 -1.65178,6.726086 0.48674,-0.299844 1.20994,-1.321773 1.59648,-1.855421 -0.33108,-0.327017 0.61543,-2.228055 0.99608,-2.368936 0.42477,-0.124183 1.30537,-0.147141 1.89325,0.138638 0.60148,0.261295 1.01707,1.391542 1.13445,1.821549 z"
             id="path526-5"
             sodipodi:nodetypes="ccccccccccccc" /><path
             style="fill:#e80000;stroke:#ffffff;stroke-width:0.126279;stroke-dasharray:none"
             d="m 144.2193,40.368372 3.68082,0.153367 -0.22557,3.112519 c -0.88522,1.048009 -0.6179,2.559039 -0.73679,3.607047 l -1.4404,-0.0481 c -0.19419,-1.20791 -0.35645,-2.752248 -0.86605,-3.707831 -0.28541,-2.036224 -0.2476,-2.048852 -0.41201,-3.117005 z"
             id="path604"
             sodipodi:nodetypes="cccccccc" /><path
             style="fill:url(#linearGradient1319);fill-opacity:1;stroke:#ffffff;stroke-width:0.0425181;stroke-dasharray:none"
             d="m 143.16076,50.165924 c -0.18753,-1.76511 0.33633,-3.186788 2.92856,-3.609942 1.9269,0.320195 3.34756,1.19064 3.07266,3.904089 1.65796,1.027341 2.0102,2.427745 2.34969,3.831792 0.21657,1.698681 -0.6283,2.335922 -1.33752,3.108812 1.84674,1.902795 1.59359,3.041998 1.37366,4.193282 1.35639,1.033815 2.76747,1.967344 3.00038,5.060856 2.06305,3.077555 0.78308,4.556273 0.86757,6.687561 0.50463,1.585946 0.50393,4.081481 0.54223,6.506816 -0.05,4.072676 -1.70939,5.041674 -3.03651,6.651411 -0.29046,1.155142 -0.0874,1.605188 -0.97603,3.614899 -0.40806,2.05332 -1.11962,3.196126 -1.80744,4.410175 0.39896,2.656204 0.0282,2.233738 0,3.181109 -0.31926,1.753205 -1.3406,3.740436 -2.20509,5.675386 0.64126,0.74533 0.75872,1.83986 0.83143,2.96422 -0.31755,2.05979 -1.13143,2.63054 -1.80745,3.6149 -0.17645,0.85207 -0.41416,1.58163 -0.68683,2.24123 -0.32447,-0.43049 -0.63813,-0.96898 -0.86758,-2.34968 -0.79852,-0.77998 -1.4399,-1.7171 -1.66285,-3.07266 -0.16653,-0.24805 -0.28613,-0.64859 -0.0723,-2.13279 0.18607,-0.42622 0.33147,-0.87956 0.79528,-1.12062 -1.14282,-2.08459 -2.03471,-4.169182 -2.31354,-6.253773 -0.40021,-0.856905 -0.28117,-1.921516 -0.21689,-2.964217 -1.76707,-2.48223 -2.3063,-4.96446 -2.71117,-7.44669 -1.46622,-1.09221 -2.56908,-2.802115 -3.07267,-5.530791 -0.16625,-1.82862 -0.4183,-3.619103 0.25305,-5.819986 -0.0332,-2.0935 -0.60549,-1.953362 -0.0361,-6.542965 0.1682,-1.496107 0.63601,-1.793836 1.08446,-2.168939 0.46517,-2.050128 1.26592,-3.860557 3.07267,-4.95241 -0.22669,-1.902939 -0.10613,-3.568287 1.48211,-4.22943 -1.05666,-0.839309 -1.43685,-2.016848 -1.33752,-3.434153 0.39017,-1.402178 0.78585,-2.803567 2.49379,-4.017492 z"
             id="path714"
             sodipodi:nodetypes="cccccccccccccccccccccccccccccccc" /><path
             style="fill:none;stroke:none;stroke-width:0.424"
             d="m 138.71493,66.437919 c 1.16205,0.807327 0.44214,1.614655 0.57838,2.421982 -0.3591,2.879181 -0.343,3.75731 -0.43378,5.205452 0.78312,1.152031 1.0141,2.745774 1.33751,4.26558 -0.15709,1.923071 -0.44054,2.456138 -0.68683,3.398003 0.28545,1.214247 0.80157,2.351602 1.37366,3.470304 0.16168,0.800312 -0.12254,1.15472 -0.43379,1.482106 -0.7083,0.04315 -1.3065,0.379912 -2.56658,-1.048319 -1.3451,-1.942923 -1.43037,-2.85507 -1.7713,-3.976389 -0.1096,-1.530306 -0.39646,-3.060613 0.0361,-4.590919 0.0445,-1.262363 0.23045,-1.251728 0.3615,-1.735151 -0.4482,-1.577564 -0.45934,-3.329945 -0.43379,-5.097006 0.23493,-0.936954 0.35206,-2.168417 0.75913,-2.675024 0.62658,-0.919869 1.25316,-0.932543 1.87974,-1.120619 z"
             id="path824"
             sodipodi:nodetypes="cccccccccccccc" /><path
             style="fill:none;stroke:none;stroke-width:0.424"
             d="m 153.09934,66.162042 c -1.16206,0.807327 -0.44214,1.614655 -0.57839,2.421982 0.3591,2.879181 0.34301,3.75731 0.43379,5.205452 -0.78312,1.152031 -1.01411,2.745774 -1.33751,4.26558 0.15709,1.923071 0.44054,2.456138 0.68683,3.398003 -0.28545,1.214247 -0.80158,2.351602 -1.37366,3.470304 -0.16168,0.800312 0.12254,1.15472 0.43378,1.482106 0.70831,0.04315 1.30651,0.379912 2.56658,-1.048319 1.34511,-1.942923 1.5707,-2.457507 1.91163,-3.578826 0.1096,-1.530306 0.46661,-3.341246 0.0339,-4.871552 -0.0445,-1.262363 0.0502,-1.345272 -0.0809,-1.828695 -0.43541,-1.483373 -0.3992,-3.094312 -0.0573,-5.120392 -0.23493,-0.936954 -0.35206,-2.168417 -0.75913,-2.675024 -0.62658,-0.919869 -1.25316,-0.932543 -1.87974,-1.120619 z"
             id="path824-4"
             sodipodi:nodetypes="ccccccccccccccc" /><path
             style="fill:url(#linearGradient1239);fill-opacity:1;stroke:#ffffff;stroke-width:0.0412425;stroke-dasharray:none"
             d="m 144.10505,63.048881 c -1.08653,0.85898 -2.26586,0.789873 -3.60146,-0.841899 -0.0456,-1.801004 -0.64023,-3.849022 1.6838,-4.583672 -0.86208,-0.595545 -3.30007,-3.888402 0.93544,-7.436775 -0.0786,-5.961533 7.35678,-3.47515 5.98684,0.280634 3.0717,1.891624 2.88422,5.922593 0.98221,6.92228 1.11437,1.11882 2.05512,2.32445 1.44994,4.30304 -0.59874,2.042093 -1.67262,1.708494 -2.75956,1.30962 -1.22318,3.19943 -3.46817,3.546702 -4.67721,0.04677 z"
             id="path972"
             sodipodi:nodetypes="ccccccccc" /><path
             id="path1307-1-54-7-5-8-6-7-8-5-4-0"
             style="fill:#500000;stroke:#ffffff;stroke-width:0.0909887;stroke-dasharray:none"
             d="m 156.27766,33.622174 1.36939,-3.443225 0.10092,-0.05678 -0.9716,3.587796 z"
             sodipodi:nodetypes="ccccc"
             inkscape:transform-center-x="0.19249862"
             inkscape:transform-center-y="-0.0053175" /><path
             id="path1307-1-54-7-5-8-6-7-8-5-4-0-0"
             style="fill:#500000;stroke:#ffffff;stroke-width:0.0909887;stroke-dasharray:none"
             d="m 158.80041,34.825329 2.04057,-3.093074 0.11035,-0.03508 -1.68046,3.315471 z"
             sodipodi:nodetypes="ccccc"
             inkscape:transform-center-x="0.17848362"
             inkscape:transform-center-y="0.006355" /><path
             id="path1307-1-54-7-5-8-6-7-8-5-4-0-3"
             style="fill:#500000;stroke:#ffffff;stroke-width:0.0909887;stroke-dasharray:none"
             d="m 154.82617,33.36244 0.98856,-3.571246 0.0942,-0.06737 -0.57745,3.671898 z"
             sodipodi:nodetypes="ccccc"
             inkscape:transform-center-x="0.19668362"
             inkscape:transform-center-y="-0.0114395" /><path
             id="path1307-1-54-7-5-8-6-7-8-5-4-0-4"
             style="fill:#500000;stroke:#ffffff;stroke-width:0.0909887;stroke-dasharray:none"
             d="m 160.1868,35.471165 2.37327,-2.845814 0.11358,-0.02254 -2.04024,3.107039 z"
             sodipodi:nodetypes="ccccc"
             inkscape:transform-center-x="0.16761862"
             inkscape:transform-center-y="0.012648" /><path
             id="path1307-1-54-7-5-8-6-7-8-5-4-0-8"
             style="fill:#500000;stroke:#ffffff;stroke-width:0.0909887;stroke-dasharray:none"
             d="m 161.21942,36.56162 3.32397,-1.63776 0.11295,0.02549 -3.12562,2.01166 z"
             sodipodi:nodetypes="ccccc"
             inkscape:transform-center-x="0.10989362"
             inkscape:transform-center-y="0.0214105" /><path
             id="path1307-1-54-7-5-8-6-7-8-5-4-0-2"
             style="fill:#500000;stroke:#ffffff;stroke-width:0.0909887;stroke-dasharray:none"
             d="m 153.55375,33.447688 -6.2e-4,-3.705541 0.0728,-0.09007 0.42368,3.692801 z"
             sodipodi:nodetypes="ccccc"
             inkscape:transform-center-x="-0.01448638"
             inkscape:transform-center-y="0.025442" /><path
             id="path1307-1-54-7-5-8-6-7-8-5-4-0-7"
             style="fill:#500000;stroke:#ffffff;stroke-width:0.0756821;stroke-dasharray:none"
             d="m 162.29144,38.379484 2.61906,1.902887 0.0298,0.107187 -2.80687,-1.541648 z"
             sodipodi:nodetypes="ccccc"
             inkscape:transform-center-x="-4.1098598"
             inkscape:transform-center-y="-1.9162068" /><path
             id="path1307-1-54-7-5-8-6-7-8-5-4-0-48"
             style="fill:#500000;stroke:#ffffff;stroke-width:0.0909887;stroke-dasharray:none"
             d="m 152.13513,33.81715 -1.38034,-3.438853 0.034,-0.110681 1.76824,3.2695 z"
             sodipodi:nodetypes="ccccc"
             inkscape:transform-center-x="-0.02053638"
             inkscape:transform-center-y="0.0969925" /><path
             id="path1307-1-54-7-5-8-6-7-8-5-4-0-6"
             style="fill:#500000;stroke:#ffffff;stroke-width:0.0909887;stroke-dasharray:none"
             d="m 157.59747,34.161286 1.8186,-3.228578 0.10762,-0.04274 -1.44378,3.42517 z"
             sodipodi:nodetypes="ccccc"
             inkscape:transform-center-x="0.18416362"
             inkscape:transform-center-y="0.0023525" /><path
             id="path1307-1-54-7-5-8-6-7-8-5-4-0-34"
             style="fill:#500000;stroke:#ffffff;stroke-width:0.0909887;stroke-dasharray:none"
             d="m 162.09277,37.397486 3.68301,-0.408066 0.0975,0.06244 -3.62382,0.827163 z"
             sodipodi:nodetypes="ccccc"
             inkscape:transform-center-x="0.04696862"
             inkscape:transform-center-y="0.016489" /><path
             id="path1307-1-54-7-5-8-6-7-8-5-4-0-33"
             style="fill:#500000;stroke:#ffffff;stroke-width:0.0909887;stroke-dasharray:none"
             d="m 161.63061,38.748295 1.51869,3.380031 -0.0295,0.111972 -1.8994,-3.195083 z"
             sodipodi:nodetypes="ccccc"
             inkscape:transform-center-x="0.34842879"
             inkscape:transform-center-y="-0.103945" /><path
             id="path1307-1-54-7-5-8-6-7-8-5-4-0-9"
             style="fill:#500000;stroke:#ffffff;stroke-width:0.0909887;stroke-dasharray:none"
             d="m 160.30429,39.416832 0.76951,3.624761 -0.0525,0.103203 -1.18073,-3.524511 z"
             sodipodi:nodetypes="ccccc"
             inkscape:transform-center-x="0.01811862"
             inkscape:transform-center-y="-0.0657815" /><path
             id="path1307-1-54-7-5-8-6-7-8-5-4-0-1"
             style="fill:#500000;stroke:#ffffff;stroke-width:0.0909887;stroke-dasharray:none"
             d="m 150.67739,34.835577 -1.70756,-3.288668 0.0228,-0.11352 2.07718,3.082469 z"
             sodipodi:nodetypes="ccccc"
             inkscape:transform-center-x="-0.02147638"
             inkscape:transform-center-y="0.1133325" /><path
             id="path1307-1-54-7-5-8-6-7-8-5-4-0-1-0"
             style="fill:#500000;stroke:#ffffff;stroke-width:0.0909887;stroke-dasharray:none"
             d="m 149.70133,35.726794 -2.32863,-2.882465 -2.7e-4,-0.115787 2.64974,2.606752 z"
             sodipodi:nodetypes="ccccc"
             inkscape:transform-center-x="-0.02294638"
             inkscape:transform-center-y="0.1436055" /><path
             id="path1307-1-54-7-5-8-6-7-8-5-4-0-29"
             style="fill:#500000;stroke:#ffffff;stroke-width:0.0909887;stroke-dasharray:none"
             d="m 136.31903,33.540522 -1.36939,-3.443225 -0.10092,-0.05678 0.9716,3.587796 z"
             sodipodi:nodetypes="ccccc"
             inkscape:transform-center-x="-0.19250138"
             inkscape:transform-center-y="-0.0053175" /><path
             id="path1307-1-54-7-5-8-6-7-8-5-4-0-0-5"
             style="fill:#500000;stroke:#ffffff;stroke-width:0.0909887;stroke-dasharray:none"
             d="m 133.63092,34.379875 -2.04057,-3.093074 -0.11035,-0.03508 1.68046,3.315471 z"
             sodipodi:nodetypes="ccccc"
             inkscape:transform-center-x="-0.17848638"
             inkscape:transform-center-y="0.006355" /><path
             id="path1307-1-54-7-5-8-6-7-8-5-4-0-3-6"
             style="fill:#500000;stroke:#ffffff;stroke-width:0.0909887;stroke-dasharray:none"
             d="m 137.77052,33.280788 -0.98856,-3.571246 -0.0942,-0.06737 0.57745,3.671898 z"
             sodipodi:nodetypes="ccccc"
             inkscape:transform-center-x="-0.19668638"
             inkscape:transform-center-y="-0.0114395" /><path
             id="path1307-1-54-7-5-8-6-7-8-5-4-0-4-8"
             style="fill:#500000;stroke:#ffffff;stroke-width:0.0909887;stroke-dasharray:none"
             d="m 132.07916,35.091857 -2.37327,-2.845814 -0.11358,-0.02254 2.04024,3.107039 z"
             sodipodi:nodetypes="ccccc"
             inkscape:transform-center-x="-0.16762138"
             inkscape:transform-center-y="0.012648" /><path
             id="path1307-1-54-7-5-8-6-7-8-5-4-0-8-1"
             style="fill:#500000;stroke:#ffffff;stroke-width:0.0909887;stroke-dasharray:none"
             d="m 130.8481,36.05002 -3.32397,-1.63776 -0.11295,0.02549 3.12562,2.01166 z"
             sodipodi:nodetypes="ccccc"
             inkscape:transform-center-x="-0.10989638"
             inkscape:transform-center-y="0.0214105" /><path
             id="path1307-1-54-7-5-8-6-7-8-5-4-0-2-1"
             style="fill:#500000;stroke:#ffffff;stroke-width:0.0909887;stroke-dasharray:none"
             d="m 139.04294,33.366036 6.2e-4,-3.705541 -0.0728,-0.09007 -0.42368,3.692801 z"
             sodipodi:nodetypes="ccccc"
             inkscape:transform-center-x="0.01448362"
             inkscape:transform-center-y="0.025442" /><path
             id="path1307-1-54-7-5-8-6-7-8-5-4-0-7-9"
             style="fill:#500000;stroke:#ffffff;stroke-width:0.0756821;stroke-dasharray:none"
             d="m 129.97452,38.330905 -2.61906,1.902887 -0.0298,0.107187 2.80687,-1.541648 z"
             sodipodi:nodetypes="ccccc"
             inkscape:transform-center-x="4.109857"
             inkscape:transform-center-y="-1.9162068" /><path
             id="path1307-1-54-7-5-8-6-7-8-5-4-0-48-8"
             style="fill:#500000;stroke:#ffffff;stroke-width:0.0909887;stroke-dasharray:none"
             d="m 140.46156,33.735498 1.38034,-3.438853 -0.034,-0.110681 -1.76824,3.2695 z"
             sodipodi:nodetypes="ccccc"
             inkscape:transform-center-x="0.02053362"
             inkscape:transform-center-y="0.0969925" /><path
             id="path1307-1-54-7-5-8-6-7-8-5-4-0-6-5"
             style="fill:#500000;stroke:#ffffff;stroke-width:0.0909887;stroke-dasharray:none"
             d="m 134.86693,33.781978 -1.8186,-3.228578 -0.10762,-0.04274 1.44378,3.42517 z"
             sodipodi:nodetypes="ccccc"
             inkscape:transform-center-x="-0.18416638"
             inkscape:transform-center-y="0.0023525" /><path
             id="path1307-1-54-7-5-8-6-7-8-5-4-0-34-7"
             style="fill:#500000;stroke:#ffffff;stroke-width:0.0909887;stroke-dasharray:none"
             d="m 130.07397,37.282761 -3.68301,-0.408066 -0.0975,0.06244 3.62382,0.827163 z"
             sodipodi:nodetypes="ccccc"
             inkscape:transform-center-x="-0.04697138"
             inkscape:transform-center-y="0.016489" /><path
             id="path1307-1-54-7-5-8-6-7-8-5-4-0-33-8"
             style="fill:#500000;stroke:#ffffff;stroke-width:0.0909887;stroke-dasharray:none"
             d="m 130.80072,39.228883 -1.51869,3.380031 0.0295,0.111972 1.8994,-3.195083 z"
             sodipodi:nodetypes="ccccc"
             inkscape:transform-center-x="-0.34843155"
             inkscape:transform-center-y="-0.103945" /><path
             id="path1307-1-54-7-5-8-6-7-8-5-4-0-9-3"
             style="fill:#500000;stroke:#ffffff;stroke-width:0.0909887;stroke-dasharray:none"
             d="m 131.9286,39.732055 -0.76951,3.624761 0.0525,0.103203 1.18073,-3.524511 z"
             sodipodi:nodetypes="ccccc"
             inkscape:transform-center-x="-0.01812138"
             inkscape:transform-center-y="-0.0657815" /><path
             id="path1307-1-54-7-5-8-6-7-8-5-4-0-1-8"
             style="fill:#500000;stroke:#ffffff;stroke-width:0.0909887;stroke-dasharray:none"
             d="m 141.9193,34.753925 1.70756,-3.288668 -0.0228,-0.11352 -2.07718,3.082469 z"
             sodipodi:nodetypes="ccccc"
             inkscape:transform-center-x="0.02147362"
             inkscape:transform-center-y="0.1133325" /><path
             id="path1307-1-54-7-5-8-6-7-8-5-4-0-1-0-3"
             style="fill:#500000;stroke:#ffffff;stroke-width:0.0909887;stroke-dasharray:none"
             d="m 142.89536,35.645142 2.32863,-2.882465 2.7e-4,-0.115787 -2.64974,2.606752 z"
             sodipodi:nodetypes="ccccc"
             inkscape:transform-center-x="0.02294362"
             inkscape:transform-center-y="0.1436055" /></g></g></g></g></svg>
