<?xml version="1.0" encoding="UTF-8" standalone="no"?>
<!-- Created with Inkscape (http://www.inkscape.org/) -->

<svg
   width="59.587009mm"
   height="63.76231mm"
   viewBox="0 0 59.587009 63.76231"
   version="1.1"
   id="svg5"
   xml:space="preserve"
   inkscape:version="1.3.2 (091e20e, 2023-11-25, custom)"
   sodipodi:docname="spathidium.svg"
   xmlns:inkscape="http://www.inkscape.org/namespaces/inkscape"
   xmlns:sodipodi="http://sodipodi.sourceforge.net/DTD/sodipodi-0.dtd"
   xmlns="http://www.w3.org/2000/svg"
   xmlns:svg="http://www.w3.org/2000/svg"><sodipodi:namedview
     id="namedview7"
     pagecolor="#ffffff"
     bordercolor="#000000"
     borderopacity="0.25"
     inkscape:showpageshadow="2"
     inkscape:pageopacity="0.0"
     inkscape:pagecheckerboard="0"
     inkscape:deskcolor="#d1d1d1"
     inkscape:document-units="mm"
     showgrid="false"
     showguides="true"
     inkscape:zoom="3.2213244"
     inkscape:cx="123.24124"
     inkscape:cy="102.59755"
     inkscape:window-width="2560"
     inkscape:window-height="1361"
     inkscape:window-x="-9"
     inkscape:window-y="-9"
     inkscape:window-maximized="1"
     inkscape:current-layer="g6620"><sodipodi:guide
       position="-40.153678,-25.148041"
       orientation="0,-1"
       id="guide6516"
       inkscape:locked="false" /></sodipodi:namedview><defs
     id="defs2" /><g
     inkscape:label="Layer 1"
     inkscape:groupmode="layer"
     id="layer1"
     transform="translate(-71.515897,-134.5745)"><g
       id="g6620"
       transform="translate(136.59989,10.22176)"><path
         style="fill:#fd933a;fill-rule:evenodd;stroke:#ffffff;stroke-width:0.671;stroke-linecap:round;stroke-dasharray:none"
         d="m -14.287234,182.24933 c -2.9287,2.14024 -13.81901,1.14225 -20.44352,-7.31785 -3.74018,-4.35799 -6.894623,-6.60732 -13.590295,-21.60508 -2.305847,-5.39088 -4.616884,-10.75581 -6.620914,-17.65577 -1.474205,-3.75399 -3.352858,-4.83964 -4.065471,-5.34318 -1.140032,-0.55707 -3.521308,-0.69273 -5.110883,-0.69694 -0.573899,-0.2316 -0.818165,-0.73789 -0.464624,-1.74235 1.831454,-2.10023 18.150043,-3.13681 19.358963,-2.79943 4.49776,1.92867 1.739758,2.28149 13.861764,11.27884 4.3875,3.17012 12.04899,7.45486 17.53961,19.9789 2.3954,4.82307 2.76026,10.66141 3.36853,16.37804 0.15725,7.47985 -1.88331,8.36627 -3.83316,9.52482 z"
         id="path356"
         sodipodi:nodetypes="cccccccccccc" /><path
         style="fill:#fafad2;fill-opacity:1;stroke:none;stroke-width:0.178257;stroke-dasharray:none"
         d="m -39.690139,144.93295 c 0.495603,-2.05419 -3.287874,-2.14944 -3.12276,-0.24761 0.414274,1.41322 2.475747,1.85509 3.12276,0.24761 z"
         id="path3401-6-4-9-1-8-9-46-5"
         sodipodi:nodetypes="ccc" /><path
         style="fill:#fafad2;fill-opacity:1;stroke:none;stroke-width:0.0823379;stroke-dasharray:none"
         d="m -28.656222,163.12099 c 0.18769,-1.15729 -1.24515,-1.21095 -1.18262,-0.1395 0.15689,0.79618 0.93759,1.04512 1.18262,0.1395 z"
         id="path3401-6-4-9-1-8-9-46-5-7"
         sodipodi:nodetypes="ccc" /><path
         style="fill:#fcfc80;fill-opacity:1;stroke:none;stroke-width:0.0823379;stroke-dasharray:none"
         d="m -38.019607,159.50705 c 0.18769,-1.15729 -1.24515,-1.21095 -1.18262,-0.1395 0.15689,0.79618 0.93759,1.04512 1.18262,0.1395 z"
         id="path3401-6-4-9-1-8-9-46-5-3"
         sodipodi:nodetypes="ccc" /><path
         style="fill:#fcfc80;fill-opacity:1;stroke:none;stroke-width:0.0823379;stroke-dasharray:none"
         d="m -28.491952,150.30793 c 0.18769,-1.15729 -1.24515,-1.21095 -1.18262,-0.1395 0.15689,0.79618 0.93759,1.04512 1.18262,0.1395 z"
         id="path3401-6-4-9-1-8-9-46-5-4"
         sodipodi:nodetypes="ccc" /><path
         style="fill:#fcfc80;fill-opacity:1;stroke:none;stroke-width:0.0823379;stroke-dasharray:none"
         d="m -31.94162,170.34886 c 0.18769,-1.15729 -1.24515,-1.21095 -1.18262,-0.1395 0.15689,0.79618 0.93759,1.04512 1.18262,0.1395 z"
         id="path3401-6-4-9-1-8-9-46-5-30"
         sodipodi:nodetypes="ccc" /><path
         style="fill:#fcfc80;fill-opacity:1;stroke:none;stroke-width:0.0823379;stroke-dasharray:none"
         d="m -14.36474,166.07784 c 0.18769,-1.15729 -1.24515,-1.21095 -1.18262,-0.1395 0.15689,0.79618 0.93759,1.04512 1.18262,0.1395 z"
         id="path3401-6-4-9-1-8-9-46-5-48"
         sodipodi:nodetypes="ccc" /><path
         style="fill:#fcfc80;fill-opacity:1;stroke:none;stroke-width:0.0823379;stroke-dasharray:none"
         d="m -22.085425,156.22165 c 0.18769,-1.15729 -1.24515,-1.21095 -1.18262,-0.1395 0.15689,0.79618 0.93759,1.04512 1.18262,0.1395 z"
         id="path3401-6-4-9-1-8-9-46-5-75"
         sodipodi:nodetypes="ccc" /><path
         style="fill:#fcfc80;fill-opacity:1;stroke:none;stroke-width:0.0823379;stroke-dasharray:none"
         d="m -34.734209,140.28747 c 0.18769,-1.15729 -1.24515,-1.21095 -1.18262,-0.1395 0.15689,0.79618 0.93759,1.04512 1.18262,0.1395 z"
         id="path3401-6-4-9-1-8-9-46-5-9"
         sodipodi:nodetypes="ccc" /><path
         style="fill:#fafad2;fill-opacity:1;stroke:none;stroke-width:0.122085;stroke-dasharray:none"
         d="m -36.944525,136.65557 c 0.296554,-1.6103 -1.967362,-1.68496 -1.868563,-0.19411 0.247889,1.10784 1.48141,1.45422 1.868563,0.19411 z"
         id="path3401-6-4-9-1-8-9-46-5-9-7"
         sodipodi:nodetypes="ccc" /><path
         style="fill:#fcfc80;fill-opacity:1;stroke:none;stroke-width:0.0823379;stroke-dasharray:none"
         d="m -45.740293,141.92824 c 0.18769,1.15729 -1.24515,1.21095 -1.18262,0.1395 0.15689,-0.79618 0.93759,-1.04512 1.18262,-0.1395 z"
         id="path3401-6-4-9-1-8-9-46-5-5"
         sodipodi:nodetypes="ccc" /><path
         style="fill:#fafad2;fill-opacity:1;stroke:none;stroke-width:0.148002;stroke-dasharray:none"
         d="m -50.189497,131.69758 c 0.341647,2.05419 -2.266512,2.14944 -2.15269,0.24761 0.285582,-1.41322 1.706669,-1.85509 2.15269,-0.24761 z"
         id="path3401-6-4-9-1-8-9-46-5-5-6"
         sodipodi:nodetypes="ccc" /><path
         style="fill:#c64600;fill-rule:evenodd;stroke:none;stroke-width:0.382187;stroke-linecap:round"
         d="m -37.337262,148.97929 c -1.980911,1.70443 -1.635435,4.92313 2.205699,3.6108 3.53979,-1.73325 -0.685884,-5.29477 -2.205699,-3.6108 z"
         id="path16090-8"
         sodipodi:nodetypes="ccc" /><path
         style="fill:#c64600;fill-rule:evenodd;stroke:none;stroke-width:0.315939;stroke-linecap:round"
         d="m -36.086912,166.21498 c 2.273362,0.84123 3.451513,-0.81642 -0.06427,-3.30396 -3.474587,-2.06725 -1.848443,2.82025 0.06427,3.30396 z"
         id="path16090-8-3"
         sodipodi:nodetypes="ccc" /><path
         style="fill:#c64600;fill-rule:evenodd;stroke:none;stroke-width:0.249846;stroke-linecap:round"
         d="m -18.649081,155.36825 c -1.093951,1.31899 -0.903163,3.80981 1.21809,2.79425 1.954837,-1.34129 -0.378777,-4.0974 -1.21809,-2.79425 z"
         id="path16090-8-8"
         sodipodi:nodetypes="ccc" /><path
         style="fill:#c64600;fill-rule:evenodd;stroke:none;stroke-width:0.275693;stroke-linecap:round"
         d="m -22.714953,162.89238 c -1.162178,1.51171 -0.959491,4.36647 1.294061,3.20253 2.076756,-1.53727 -0.402401,-4.69609 -1.294061,-3.20253 z"
         id="path16090-0"
         sodipodi:nodetypes="ccc" /><path
         style="fill:#c64600;fill-rule:evenodd;stroke:none;stroke-width:0.406507;stroke-linecap:round"
         d="m -49.166222,134.9665 c -2.526732,1.51171 -2.086063,4.36647 2.813459,3.20253 4.515146,-1.53727 -0.874873,-4.69609 -2.813459,-3.20253 z"
         id="path16090-6"
         sodipodi:nodetypes="ccc" /><path
         style="fill:#ffdb9d;fill-rule:evenodd;stroke:none;stroke-width:0.802538;stroke-linecap:round;stroke-dasharray:none"
         d="m -18.305574,180.04129 c 6.429649,0.30533 8.5972001,-11.41059 -0.136027,-11.56472 -5.335309,-0.0481 -8.140166,9.97867 0.136027,11.56472 z"
         id="path510"
         sodipodi:nodetypes="ccc" /><path
         style="fill:#ffdb9d;fill-rule:evenodd;stroke:none;stroke-width:0.248787;stroke-linecap:round;stroke-dasharray:none"
         d="m -26.473029,173.00173 c 1.102602,0.90486 3.854586,-3.45985 2.304471,-4.58597 -0.956267,-0.66977 -3.483456,2.94983 -2.304471,4.58597 z"
         id="path510-8"
         sodipodi:nodetypes="ccc" /><path
         style="fill:#ffdf7e;fill-rule:evenodd;stroke:none;stroke-width:0.671;stroke-linecap:round;stroke-dasharray:none"
         d="m -63.187001,129.33805 c 1.875504,-1.27666 3.240966,-1.208 4.644191,-1.47892 1.599571,-0.10124 5.239955,-0.76219 7.232798,-0.79814 1.572284,-0.0259 6.946728,-0.33721 8.458277,-0.24935 -0.430583,-0.73673 -1.601113,-1.38235 -2.804765,-1.65524 -1.999871,-0.0272 -6.646766,0.30507 -10.501832,0.72306 -3.207418,0.53402 -7.522708,1.24443 -8.132155,1.99666 -0.617228,1.05504 -0.277207,1.53429 0.392456,1.49095 z"
         id="path1052"
         sodipodi:nodetypes="ccccccccc" /><path
         id="path1307-1-54-7-5-8-6-7-8-5-8-90"
         style="fill:#c64600;fill-opacity:1;stroke:#ffffff;stroke-width:0.0823379;stroke-dasharray:none"
         d="m -11.593175,159.60836 3.9101899,-1.04192 -0.0472,-0.14045 -3.9990399,0.79323 z" /><path
         id="path1307-1-54-7-5-8-6-7-5-72-8"
         style="fill:#c64600;fill-opacity:1;stroke:#ffffff;stroke-width:0.0823379;stroke-dasharray:none"
         d="m -12.232705,157.73399 3.6656999,-1.64375 -0.0649,-0.13416 -3.7853499,1.40689 z" /><path
         id="path1307-1-54-7-5-8-6-7-8-5-8-13"
         style="fill:#c64600;fill-opacity:1;stroke:#ffffff;stroke-width:0.0823379;stroke-dasharray:none"
         d="m -13.035905,155.95701 3.6159899,-1.76196 -0.0702,-0.13126 -3.7454499,1.53044 z" /><path
         id="path1307-1-54-7-5-8-6-7-9-2-0-0"
         style="fill:#c64600;fill-opacity:1;stroke:#ffffff;stroke-width:0.0823379;stroke-dasharray:none"
         d="m -13.781655,154.11227 3.491,-1.97955 -0.0762,-0.12822 -3.63131,1.75407 z" /><path
         id="path1307-1-54-7-5-8-6-7-8-7-4-0-8"
         style="fill:#c64600;fill-opacity:1;stroke:#ffffff;stroke-width:0.0823379;stroke-dasharray:none"
         d="m -14.716535,152.29186 3.32277,-2.24549 -0.0834,-0.12366 -3.47565,2.02829 z" /><path
         id="path1307-1-54-7-5-8-6-7-8-5-8-90-44"
         style="fill:#c64600;fill-opacity:1;stroke:#ffffff;stroke-width:0.0823379;stroke-dasharray:none"
         d="m -9.7329884,169.18608 4.044956,-0.11625 -0.013692,-0.14754 -4.07433,-0.14619 z" /><path
         id="path1307-1-54-7-5-8-6-7-5-72-8-8"
         style="fill:#c64600;fill-opacity:1;stroke:#ffffff;stroke-width:0.0823379;stroke-dasharray:none"
         d="m -9.8799022,167.4801 3.9706106,-0.61116 -0.026938,-0.14658 -4.0230614,0.35099 z" /><path
         id="path1307-1-54-7-5-8-6-7-8-5-8-13-6"
         style="fill:#c64600;fill-opacity:1;stroke:#ffffff;stroke-width:0.0823379;stroke-dasharray:none"
         d="m -10.20426,165.58501 3.9719361,-0.63531 -0.029032,-0.14597 -4.0285351,0.3762 z" /><path
         id="path1307-1-54-7-5-8-6-7-9-2-0-0-1"
         style="fill:#c64600;fill-opacity:1;stroke:#ffffff;stroke-width:0.0823379;stroke-dasharray:none"
         d="m -10.546972,163.6885 3.9296947,-0.81437 -0.033236,-0.14541 -3.9941477,0.55674 z" /><path
         id="path1307-1-54-7-5-8-6-7-8-7-4-0-8-4"
         style="fill:#c64600;fill-opacity:1;stroke:#ffffff;stroke-width:0.0823379;stroke-dasharray:none"
         d="m -11.056576,161.5756 3.9311476,-0.79315 -0.029362,-0.14625 -3.9886236,0.53385 z" /><path
         id="path1307-1-54-7-5-8-6-7-8-5-8-90-44-0"
         style="fill:#c64600;fill-opacity:1;stroke:#ffffff;stroke-width:0.0823379;stroke-dasharray:none"
         d="m -10.118969,178.49767 3.7555314,1.50704 0.046303,-0.14076 -3.677769,-1.75941 z" /><path
         id="path1307-1-54-7-5-8-6-7-5-72-8-8-8"
         style="fill:#c64600;fill-opacity:1;stroke:#ffffff;stroke-width:0.0823379;stroke-dasharray:none"
         d="m -9.7422006,176.68145 3.8895986,1.00513 0.033085,-0.14531 -3.8351512,-1.26485 z" /><path
         id="path1307-1-54-7-5-8-6-7-8-5-8-13-6-1"
         style="fill:#c64600;fill-opacity:1;stroke:#ffffff;stroke-width:0.0823379;stroke-dasharray:none"
         d="m -9.5330518,174.8101 3.993973,0.47758 0.012088,-0.14835 -3.9773859,-0.74233 z" /><path
         id="path1307-1-54-7-5-8-6-7-9-2-0-0-1-0"
         style="fill:#c64600;fill-opacity:1;stroke:#ffffff;stroke-width:0.0823379;stroke-dasharray:none"
         d="m -9.5091496,173.00066 4.0067646,0.22699 0.0054,-0.14906 -4.0025744,-0.49252 z" /><path
         id="path1307-1-54-7-5-8-6-7-8-7-4-0-8-4-3"
         style="fill:#c64600;fill-opacity:1;stroke:#ffffff;stroke-width:0.0823379;stroke-dasharray:none"
         d="m -9.6141129,171.13066 3.9986716,-0.30601 -0.01124,-0.14874 -4.0239761,0.0416 z" /><path
         id="path1307-1-54-7-5-8-6-7-8-5-8-90-44-1"
         style="fill:#c64600;fill-opacity:1;stroke:#ffffff;stroke-width:0.0823379;stroke-dasharray:none"
         d="m -17.492704,184.08242 0.336319,4.03263 0.146581,-0.0218 -0.07587,-4.07623 z" /><path
         id="path1307-1-54-7-5-8-6-7-5-72-8-8-1"
         style="fill:#c64600;fill-opacity:1;stroke:#ffffff;stroke-width:0.0823379;stroke-dasharray:none"
         d="m -15.538848,183.78152 1.302242,3.80045 0.139515,-0.0524 -1.055452,-3.89797 z" /><path
         id="path1307-1-54-7-5-8-6-7-8-5-8-13-6-5"
         style="fill:#c64600;fill-opacity:1;stroke:#ffffff;stroke-width:0.0823379;stroke-dasharray:none"
         d="m -13.719541,182.91755 1.878191,3.557 0.128913,-0.0744 -1.65098,-3.6939 z" /><path
         id="path1307-1-54-7-5-8-6-7-9-2-0-0-1-08"
         style="fill:#c64600;fill-opacity:1;stroke:#ffffff;stroke-width:0.0823379;stroke-dasharray:none"
         d="m -12.224276,181.83518 2.7233597,2.94771 0.1074688,-0.10344 -2.5358145,-3.13574 z" /><path
         id="path1307-1-54-7-5-8-6-7-8-7-4-0-8-4-4"
         style="fill:#c64600;fill-opacity:1;stroke:#ffffff;stroke-width:0.0823379;stroke-dasharray:none"
         d="m -10.873392,180.28331 3.2704212,2.32107 0.086437,-0.1216 -3.1208512,-2.54055 z" /><path
         id="path1307-1-54-7-5-8-6-7-8-5-8-90-44-9"
         style="fill:#c64600;fill-opacity:1;stroke:#ffffff;stroke-width:0.0823379;stroke-dasharray:none"
         d="m -27.340152,181.97375 -2.085345,3.46791 0.131579,0.0681 2.32214,-3.35099 z" /><path
         id="path1307-1-54-7-5-8-6-7-5-72-8-8-3"
         style="fill:#c64600;fill-opacity:1;stroke:#ffffff;stroke-width:0.0823379;stroke-dasharray:none"
         d="m -25.518856,182.70855 -1.710684,3.63495 0.136632,0.0595 1.95575,-3.53316 z" /><path
         id="path1307-1-54-7-5-8-6-7-8-5-8-13-6-0"
         style="fill:#c64600;fill-opacity:1;stroke:#ffffff;stroke-width:0.0823379;stroke-dasharray:none"
         d="m -23.489645,183.3524 -1.514119,3.72657 0.139911,0.0508 1.765115,-3.64075 z" /><path
         id="path1307-1-54-7-5-8-6-7-9-2-0-0-1-5"
         style="fill:#c64600;fill-opacity:1;stroke:#ffffff;stroke-width:0.0823379;stroke-dasharray:none"
         d="m -21.526152,183.76756 -0.968819,3.89449 0.145451,0.033 1.228931,-3.84095 z" /><path
         id="path1307-1-54-7-5-8-6-7-8-7-4-0-8-4-2"
         style="fill:#c64600;fill-opacity:1;stroke:#ffffff;stroke-width:0.0823379;stroke-dasharray:none"
         d="m -19.626356,184.05046 -0.380669,3.99225 0.148471,0.0143 0.645499,-3.97207 z" /><path
         id="path1307-1-54-7-5-8-6-7-8-7-1-8-7"
         style="fill:#c64600;fill-opacity:1;stroke:#ffffff;stroke-width:0.0823379;stroke-dasharray:none"
         d="m -15.767015,150.39356 3.28634,-2.30147 -0.0833,-0.12375 -3.43931,2.08457 z" /><path
         id="path1307-1-54-7-5-8-6-7-5-7-2-6"
         style="fill:#c64600;fill-opacity:1;stroke:#ffffff;stroke-width:0.0823379;stroke-dasharray:none"
         d="m -17.020305,148.4842 3.13282,-2.51742 -0.09,-0.11875 -3.29624,2.30886 z" /><path
         id="path1307-1-54-7-5-8-6-7-8-5-4-5-2"
         style="fill:#c64600;fill-opacity:1;stroke:#ffffff;stroke-width:0.0823379;stroke-dasharray:none"
         d="m -18.227065,146.78779 2.88141,-2.82562 -0.0983,-0.11131 -3.05981,2.63097 z" /><path
         id="path1307-1-54-7-5-8-6-7-9-2-5-8-91"
         style="fill:#c64600;fill-opacity:1;stroke:#ffffff;stroke-width:0.0823379;stroke-dasharray:none"
         d="m -19.802825,144.99525 2.77902,-2.93795 -0.10141,-0.10802 -2.96283,2.7491 z" /><path
         id="path1307-1-54-7-5-8-6-7-8-7-4-1-0-4"
         style="fill:#c64600;fill-opacity:1;stroke:#ffffff;stroke-width:0.0823379;stroke-dasharray:none"
         d="m -21.469275,143.18649 2.80638,-2.90483 -0.10064,-0.10905 -2.98904,2.71443 z" /><path
         id="path1307-1-54-7-5-8-6-7-8-5-8-90-4"
         style="fill:#c64600;fill-opacity:1;stroke:#ffffff;stroke-width:0.0823379;stroke-dasharray:none"
         d="m -23.021045,141.72069 2.78173,-2.93892 -0.11386,-0.0948 -2.98786,2.77385 z" /><path
         id="path1307-1-54-7-5-8-6-7-5-72-8-0"
         style="fill:#c64600;fill-opacity:1;stroke:#ffffff;stroke-width:0.0823379;stroke-dasharray:none"
         d="m -24.684924,140.37316 2.573169,-3.08515 -0.11717,-0.0921 -2.784595,2.92477 z" /><path
         id="path1307-1-54-7-5-8-6-7-8-5-8-13-0"
         style="fill:#c64600;fill-opacity:1;stroke:#ffffff;stroke-width:0.0823379;stroke-dasharray:none"
         d="m -26.20321,139.14856 2.351555,-3.26344 -0.123927,-0.0824 -2.575168,3.12077 z" /><path
         id="path1307-1-54-7-5-8-6-7-9-2-0-0-9"
         style="fill:#c64600;fill-opacity:1;stroke:#ffffff;stroke-width:0.0823379;stroke-dasharray:none"
         d="m -27.68214,137.92694 2.288445,-3.29677 -0.124206,-0.0826 -2.512602,3.15436 z" /><path
         id="path1307-1-54-7-5-8-6-7-8-7-4-0-8-3"
         style="fill:#c64600;fill-opacity:1;stroke:#ffffff;stroke-width:0.0823379;stroke-dasharray:none"
         d="m -29.45847,136.71196 2.361996,-3.24097 -0.120438,-0.088 -2.579589,3.08865 z" /><path
         id="path1307-1-54-7-5-8-6-7-8-7-1-8-7-7"
         style="fill:#c64600;fill-opacity:1;stroke:#ffffff;stroke-width:0.0823379;stroke-dasharray:none"
         d="m -31.136893,135.43644 2.369175,-3.23789 -0.118742,-0.0903 -2.583889,3.08186 z" /><path
         id="path1307-1-54-7-5-8-6-7-5-7-2-6-5"
         style="fill:#c64600;fill-opacity:1;stroke:#ffffff;stroke-width:0.0823379;stroke-dasharray:none"
         d="m -32.86811,134.20294 2.443523,-3.19079 -0.11568,-0.0939 -2.651892,3.02713 z" /><path
         id="path1307-1-54-7-5-8-6-7-8-5-4-5-2-7"
         style="fill:#c64600;fill-opacity:1;stroke:#ffffff;stroke-width:0.0823379;stroke-dasharray:none"
         d="m -34.78596,132.81013 2.701219,-2.99834 -0.104992,-0.10503 -2.891311,2.8151 z" /><path
         id="path1307-1-54-7-5-8-6-7-9-2-5-8-91-2"
         style="fill:#c64600;fill-opacity:1;stroke:#ffffff;stroke-width:0.0823379;stroke-dasharray:none"
         d="m -36.431022,131.44156 2.556003,-3.1339 -0.109062,-0.10029 -2.753172,2.95905 z" /><path
         id="path1307-1-54-7-5-8-6-7-8-7-4-1-0-4-9"
         style="fill:#c64600;fill-opacity:1;stroke:#ffffff;stroke-width:0.0823379;stroke-dasharray:none"
         d="m -37.89537,130.18449 2.671837,-3.02904 -0.105479,-0.10438 -2.86294,2.84711 z" /><path
         id="path1307-1-54-7-5-8-6-7-9-2-5-8-91-2-3"
         style="fill:#c64600;fill-opacity:1;stroke:#ffffff;stroke-width:0.0823379;stroke-dasharray:none"
         d="m -39.494949,128.5544 2.8745,-2.84459 -0.09779,-0.11131 -3.051976,2.64978 z" /><path
         id="path1307-1-54-7-5-8-6-7-8-7-4-1-0-4-9-2"
         style="fill:#c64600;fill-opacity:1;stroke:#ffffff;stroke-width:0.0823379;stroke-dasharray:none"
         d="m -41.00041,126.91117 3.222433,-2.43511 -0.08254,-0.12332 -3.373398,2.2187 z" /><path
         id="path1307-1-54-7-5-8-6-7-8-5-8-90-9"
         style="fill:#c64600;fill-opacity:1;stroke:#ffffff;stroke-width:0.0823379;stroke-dasharray:none"
         d="m -59.404952,131.16282 -1.459615,3.77421 0.141322,0.0445 1.712931,-3.69964 z" /><path
         id="path1307-1-54-7-5-8-6-7-5-72-8-3"
         style="fill:#c64600;fill-opacity:1;stroke:#ffffff;stroke-width:0.0823379;stroke-dasharray:none"
         d="m -55.424467,137.49895 -3.770882,1.38554 0.05544,0.13835 3.873815,-1.14096 z" /><path
         id="path1307-1-54-7-5-8-6-7-8-5-8-13-4"
         style="fill:#c64600;fill-opacity:1;stroke:#ffffff;stroke-width:0.0823379;stroke-dasharray:none"
         d="m -54.890361,139.19377 -3.789996,1.34752 0.05512,0.13827 3.892817,-1.103 z" /><path
         id="path1307-1-54-7-5-8-6-7-9-2-0-0-0"
         style="fill:#c64600;fill-opacity:1;stroke:#ffffff;stroke-width:0.0823379;stroke-dasharray:none"
         d="m -54.345909,140.85386 -3.676642,1.60873 0.06256,0.1354 3.792935,-1.36997 z" /><path
         id="path1307-1-54-7-5-8-6-7-8-7-4-0-8-7"
         style="fill:#c64600;fill-opacity:1;stroke:#ffffff;stroke-width:0.0823379;stroke-dasharray:none"
         d="m -51.835907,147.35141 -3.624538,1.71632 0.06371,0.13487 3.742758,-1.47847 z" /><path
         id="path1307-1-54-7-5-8-6-7-8-7-1-8-7-5"
         style="fill:#c64600;fill-opacity:1;stroke:#ffffff;stroke-width:0.0823379;stroke-dasharray:none"
         d="m -51.104831,149.22608 -3.684074,1.58884 0.05653,0.13805 3.789987,-1.34547 z" /><path
         id="path1307-1-54-7-5-8-6-7-5-7-2-6-7"
         style="fill:#c64600;fill-opacity:1;stroke:#ffffff;stroke-width:0.0823379;stroke-dasharray:none"
         d="m -50.323498,151.09899 -3.694856,1.58113 0.05471,0.1386 3.7961,-1.33628 z" /><path
         id="path1307-1-54-7-5-8-6-7-8-7-4-0-8-7-5"
         style="fill:#c64600;fill-opacity:1;stroke:#ffffff;stroke-width:0.0823379;stroke-dasharray:none"
         d="m -53.722506,142.50372 -3.708422,1.52664 0.05665,0.13798 3.814187,-1.283 z" /><path
         id="path1307-1-54-7-5-8-6-7-8-7-1-8-7-5-6"
         style="fill:#c64600;fill-opacity:1;stroke:#ffffff;stroke-width:0.0823379;stroke-dasharray:none"
         d="m -53.115542,144.09554 -3.764358,1.38796 0.049,0.14089 3.856999,-1.13923 z" /><path
         id="path1307-1-54-7-5-8-6-7-5-7-2-6-7-3"
         style="fill:#c64600;fill-opacity:1;stroke:#ffffff;stroke-width:0.0823379;stroke-dasharray:none"
         d="m -52.541016,145.75407 -3.69843,1.57276 0.0544,0.13872 3.799119,-1.32768 z" /><path
         id="path1307-1-54-7-5-8-6-7-8-5-4-5-2-5"
         style="fill:#c64600;fill-opacity:1;stroke:#ffffff;stroke-width:0.0823379;stroke-dasharray:none"
         d="m -49.484957,152.95455 -3.665006,1.68949 0.05504,0.13792 3.767387,-1.44611 z" /><path
         id="path1307-1-54-7-5-8-6-7-9-2-5-8-91-0"
         style="fill:#c64600;fill-opacity:1;stroke:#ffffff;stroke-width:0.0823379;stroke-dasharray:none"
         d="m -48.732594,154.6883 -3.555467,1.92695 0.06274,0.13423 3.671362,-1.69027 z" /><path
         id="path1307-1-54-7-5-8-6-7-8-7-4-1-0-4-6"
         style="fill:#c64600;fill-opacity:1;stroke:#ffffff;stroke-width:0.0823379;stroke-dasharray:none"
         d="m -47.941819,156.5187 -3.532426,1.95852 0.0644,0.13368 3.65151,-1.72306 z" /><path
         id="path1307-1-54-7-5-8-6-7-8-5-8-90-4-4"
         style="fill:#c64600;fill-opacity:1;stroke:#ffffff;stroke-width:0.0823379;stroke-dasharray:none"
         d="m -46.977776,158.39173 -3.570039,1.90528 0.07793,0.12601 3.713196,-1.68337 z" /><path
         id="path1307-1-54-7-5-8-6-7-5-72-8-0-7"
         style="fill:#c64600;fill-opacity:1;stroke:#ffffff;stroke-width:0.0823379;stroke-dasharray:none"
         d="m -46.153468,160.25775 -3.627816,1.72577 0.0679,0.13267 3.75276,-1.49165 z" /><path
         id="path1307-1-54-7-5-8-6-7-8-5-8-13-0-8"
         style="fill:#c64600;fill-opacity:1;stroke:#ffffff;stroke-width:0.0823379;stroke-dasharray:none"
         d="m -45.268023,161.80503 -3.477837,2.02102 0.07956,0.12576 3.623847,-1.79957 z" /><path
         id="path1307-1-54-7-5-8-6-7-9-2-0-0-9-4"
         style="fill:#c64600;fill-opacity:1;stroke:#ffffff;stroke-width:0.0823379;stroke-dasharray:none"
         d="m -44.375351,163.59176 -3.388116,2.1509 0.08244,0.1243 3.539475,-1.93268 z" /><path
         id="path1307-1-54-7-5-8-6-7-8-7-4-0-8-3-0"
         style="fill:#c64600;fill-opacity:1;stroke:#ffffff;stroke-width:0.0823379;stroke-dasharray:none"
         d="m -43.343217,165.28192 -3.275406,2.31401 0.08592,0.12193 3.432768,-2.10003 z" /><path
         id="path1307-1-54-7-5-8-6-7-8-7-1-8-7-7-0"
         style="fill:#c64600;fill-opacity:1;stroke:#ffffff;stroke-width:0.0823379;stroke-dasharray:none"
         d="m -42.149118,167.08533 -3.230284,2.37954 0.08624,0.12172 3.388401,-2.16636 z" /><path
         id="path1307-1-54-7-5-8-6-7-5-7-2-6-5-6"
         style="fill:#c64600;fill-opacity:1;stroke:#ffffff;stroke-width:0.0823379;stroke-dasharray:none"
         d="m -41.042456,168.91192 -3.038656,2.6303 0.09429,0.11537 3.209595,-2.42787 z" /><path
         id="path1307-1-54-7-5-8-6-7-8-5-4-5-2-7-2"
         style="fill:#c64600;fill-opacity:1;stroke:#ffffff;stroke-width:0.0823379;stroke-dasharray:none"
         d="m -39.693064,170.69427 -2.935908,2.76895 0.09611,0.11321 3.110482,-2.57088 z" /><path
         id="path1307-1-54-7-5-8-6-7-9-2-5-8-91-2-4"
         style="fill:#c64600;fill-opacity:1;stroke:#ffffff;stroke-width:0.0823379;stroke-dasharray:none"
         d="m -38.318593,172.16758 -2.738925,2.97537 0.102864,0.10663 2.925281,-2.78903 z" /><path
         id="path1307-1-54-7-5-8-6-7-8-7-4-1-0-4-9-7"
         style="fill:#c64600;fill-opacity:1;stroke:#ffffff;stroke-width:0.0823379;stroke-dasharray:none"
         d="m -37.037501,173.7092 -2.887143,2.82457 0.09753,0.11183 3.064361,-2.6291 z" /><path
         id="path1307-1-54-7-5-8-6-7-8-7-4-1-0-4-9-7-1"
         style="fill:#c64600;fill-opacity:1;stroke:#ffffff;stroke-width:0.0823379;stroke-dasharray:none"
         d="m -35.782356,175.13957 -3.153782,2.52338 0.08592,0.12097 3.310678,-2.31125 z" /><path
         id="path1307-1-54-7-5-8-6-7-8-5-8-90-9-1"
         style="fill:#c64600;fill-opacity:1;stroke:#ffffff;stroke-width:0.0823379;stroke-dasharray:none"
         d="m -62.984132,130.32968 -0.619676,3.9989 0.147564,0.0133 0.88307,-3.98017 z" /><path
         id="path1307-1-54-7-5-8-6-7-5-72-8-3-8"
         style="fill:#c64600;fill-opacity:1;stroke:#ffffff;stroke-width:0.0823379;stroke-dasharray:none"
         d="m -61.198546,130.66696 -0.5586,3.97835 0.148128,0.0164 0.82281,-3.95363 z" /><path
         id="path1307-1-54-7-5-8-6-7-8-5-8-13-4-5"
         style="fill:#c64600;fill-opacity:1;stroke:#ffffff;stroke-width:0.0823379;stroke-dasharray:none"
         d="m -57.928193,132.46442 -2.600065,3.06913 0.117124,0.0919 2.81181,-2.90936 z" /><path
         id="path1307-1-54-7-5-8-6-7-9-2-0-0-0-8"
         style="fill:#c64600;fill-opacity:1;stroke:#ffffff;stroke-width:0.0823379;stroke-dasharray:none"
         d="m -56.745386,133.85835 -3.325472,2.24654 0.086,0.12187 3.482989,-2.03272 z" /><path
         id="path1307-1-54-7-5-8-6-7-8-7-4-0-8-7-9"
         style="fill:#c64600;fill-opacity:1;stroke:#ffffff;stroke-width:0.0823379;stroke-dasharray:none"
         d="m -55.905969,135.82604 -3.833997,1.17622 0.04361,0.14263 3.916717,-0.92382 z" /><path
         style="fill:#fcfc80;fill-opacity:1;stroke:none;stroke-width:0.0823379;stroke-dasharray:none"
         d="m -43.111974,132.23824 c 0.18769,-1.15729 -1.24515,-1.21095 -1.18262,-0.1395 0.15689,0.79618 0.93759,1.04512 1.18262,0.1395 z"
         id="path3401-6-4-9-1-8-9-46-5-2"
         sodipodi:nodetypes="ccc" /><path
         style="fill:#fafad2;fill-opacity:1;stroke:none;stroke-width:0.0823379;stroke-dasharray:none"
         d="m -25.535094,176.91773 c 0.18769,1.15729 -1.24515,1.21095 -1.18262,0.1395 0.15689,-0.79618 0.93759,-1.04512 1.18262,-0.1395 z"
         id="path3401-6-4-9-1-8-9-46-5-73"
         sodipodi:nodetypes="ccc" /><path
         style="fill:#fcfc80;fill-opacity:1;stroke:none;stroke-width:0.109647;stroke-dasharray:none"
         d="m -28.332549,157.043 c 0.332842,-1.15729 -2.208099,-1.21095 -2.097211,-0.1395 0.278223,0.79618 1.662685,1.04512 2.097211,0.1395 z"
         id="path3401-6-4-9-1-8-9-46-5-77"
         sodipodi:nodetypes="ccc" /><path
         style="fill:#fcfc80;fill-opacity:1;stroke:none;stroke-width:0.0823379;stroke-dasharray:none"
         d="m -23.563855,149.65085 c 0.18769,-1.15729 -1.24515,-1.21095 -1.18262,-0.1395 0.15689,0.79618 0.93759,1.04512 1.18262,0.1395 z"
         id="path3401-6-4-9-1-8-9-46-5-77-9"
         sodipodi:nodetypes="ccc" /><path
         style="fill:#fcfc80;fill-opacity:1;stroke:none;stroke-width:0.0823379;stroke-dasharray:none"
         d="m -43.111974,151.12928 c 0.18769,-1.15729 -1.24515,-1.21095 -1.18262,-0.1395 0.15689,0.79618 0.93759,1.04512 1.18262,0.1395 z"
         id="path3401-6-4-9-1-8-9-46-5-95"
         sodipodi:nodetypes="ccc" /><path
         style="fill:#fafad2;fill-opacity:1;stroke:none;stroke-width:0.153459;stroke-dasharray:none"
         d="m -28.836728,144.44014 c 0.367306,-2.05419 -2.436739,-2.14944 -2.314368,-0.24761 0.307031,1.41322 1.834848,1.85509 2.314368,0.24761 z"
         id="path3401-6-4-9-1-8-9-46-5-33"
         sodipodi:nodetypes="ccc" /><path
         id="path1307-1-54-7-5-8-6-7-8-5-8-90-44-3"
         style="fill:#c64600;fill-opacity:1;stroke:#ffffff;stroke-width:0.0823379;stroke-dasharray:none"
         d="m -34.563942,176.55635 -3.189505,2.49044 0.09842,0.11075 3.368677,-2.29641 z" /><path
         id="path1307-1-54-7-5-8-6-7-5-72-8-8-87"
         style="fill:#c64600;fill-opacity:1;stroke:#ffffff;stroke-width:0.0823379;stroke-dasharray:none"
         d="m -33.201453,177.91248 -3.063757,2.59859 0.09967,0.11079 3.24457,-2.40436 z" /><path
         id="path1307-1-54-7-5-8-6-7-8-5-8-13-6-8"
         style="fill:#c64600;fill-opacity:1;stroke:#ffffff;stroke-width:0.0823379;stroke-dasharray:none"
         d="m -31.879543,179.0749 -2.852327,2.83621 0.108863,0.10147 3.04968,-2.65896 z" /><path
         id="path1307-1-54-7-5-8-6-7-9-2-0-0-1-04"
         style="fill:#c64600;fill-opacity:1;stroke:#ffffff;stroke-width:0.0823379;stroke-dasharray:none"
         d="m -30.388146,180.16501 -2.555109,3.09469 0.116933,0.0926 2.766622,-2.9341 z" /><path
         id="path1307-1-54-7-5-8-6-7-8-7-4-0-8-4-5"
         style="fill:#c64600;fill-opacity:1;stroke:#ffffff;stroke-width:0.0823379;stroke-dasharray:none"
         d="m -28.944145,181.10994 -2.252911,3.31773 0.123316,0.084 2.47544,-3.17274 z" /></g></g></svg>
